<?xml version="1.0" encoding="UTF-8"?><svg id="Capa_2" xmlns="http://www.w3.org/2000/svg" viewBox="0 0 1592.26 691.27"><defs><style>.cls-1,.cls-2,.cls-3,.cls-4,.cls-5,.cls-6,.cls-7,.cls-8,.cls-9,.cls-10{stroke-width:0px;}.cls-2{fill:#a2a2a2;}.cls-3{fill:#bbb;}.cls-4{fill:#c3006e;}.cls-5{fill:#b4acc6;}.cls-6{fill:#686868;}.cls-7{fill:#f44f36;}.cls-8{fill:#fff;}.cls-9{fill:#fff5c1;}.cls-10{fill:#e4e4e4;}</style></defs><g id="Capa_2-2"><path class="cls-5" d="m1519.24,431.34l-4.85,6.49c3.02,2.25,73.11,55.94,38.56,132.84-.16.37-.34.74-.5,1.11,1.72-3.37,3.23-6.55,4.56-9.46,33.23-73.93-31.59-126.21-37.76-130.98Zm-25.84,232.02c-26.21,14.2-55.81,21.41-87.92,21.41-24.59,0-51.06-4.24-78.73-12.56-105.15-31.67-167.89-70.43-213.71-98.76l-.66-.4c-2.7-1.7-5.35-3.31-7.95-4.93-45.52,28.01-114.77,40.38-158.12,28.22-19.77-5.56-34-16.11-41.13-30.53-3.66-7.34-4.48-14.65-2.57-21.41-5.99,8.45-6.52,18.52-1.51,28.64,6.97,14.07,20.91,24.38,40.3,29.84,43.4,12.16,112.43-.32,157.75-28.49,3.02,1.85,6.12,3.76,9.3,5.72,45.76,28.27,108.43,67.01,213.42,98.63,27.66,8.32,53.79,12.51,78.33,12.51,31.96,0,61.16-7.1,87.31-21.25,21.04-11.37,37.63-26.02,50.67-41.26-12.06,12.83-26.79,24.88-44.78,34.61Zm-370.87-108.96l.13.08c.32-.34.61-.72.87-1.09-.32.34-.66.69-1.01,1.01Zm.87-56.42c-3.21-19.61-20.01-35.85-42.8-41.42-26.71-6.49-115.3-1.88-200.97,2.6-92.64,4.85-188.46,9.83-230.51,2.84-34.29-5.72-58.01-27.43-65.05-59.57-4.77-21.81-1.51-45.79,7.9-67.01-12.32,22.84-17.22,50.08-11.87,74.54,6.92,31.59,30.23,52.92,63.97,58.54,41.92,7,137.66,1.99,230.25-2.84,85.75-4.48,174.44-9.12,201.31-2.57,23.32,5.7,40.52,22.36,43.8,42.48,1.22,7.45.45,14.81-2.2,21.86,5.67-9.22,7.84-19.29,6.17-29.44Zm-76.37,40.65c-16.11-5.06-35.22-7.74-55.25-7.74-31.24,0-58.8,6.68-66.99,16.24-.77.9-1.48,1.85-1.8,3.13,11.74-7.9,36.49-12.88,63.52-12.88,18.65,0,38.37,2.36,55.65,7.79,10.39,3.26,21.01,8.32,32.51,14.73,3.02-1.35,5.96-2.78,8.85-4.29-14.84-8.48-26.15-13.75-36.49-16.99Zm-238.25-182.18c-33.02,16.03-64.05-6.94-91.42-27.19-32.49-24.06-53.82-37.57-76.34-22.26-6.2,4.21-11.82,9.51-16.69,15.58,3.34-3.31,6.89-6.28,10.68-8.85,23.24-15.82,44.92-2.15,77.88,22.26,27.06,20.06,57.77,42.77,90.04,27.08,9.86-4.77,18.39-11.71,25.12-20.24-5.62,5.54-12.11,10.12-19.26,13.62Zm-5.94-142.72c-42.8-58.35-122.58-29.57-194.02,1.99-17.78,7.87-49.13,29.39-85.4,54.27-96.32,66.11-228.23,156.63-329.14,156.63-29.97,0-53.39-14.97-64.26-41.07-10.25-24.64-7.87-54.45,5.41-83.89-16.64,31.75-20.56,64.55-9.46,91.18,10.68,25.6,33.65,40.25,63.04,40.25,100.48,0,232.21-90.39,328.37-156.37,36.36-24.94,67.76-46.48,85.64-54.4,71.89-31.77,152.23-60.71,195.61-1.56,22.95,31.27,32.06,62.62,25.73,88.27-.64,2.57-1.43,5.09-2.41,7.5,2.84-4.77,5.01-10.02,6.39-15.63,6.25-25.25-2.81-56.2-25.49-87.15Zm-534.08-20.22c-24.86,19.42-53.02,41.44-80.13,68.76-2.99,3.02-5.94,6.2-8.77,9.51.87-.87,1.72-1.75,2.57-2.62,27.16-27.4,55.36-49.45,80.26-68.9,22.95-17.94,41.92-32.75,53.53-46.82-11.71,12.14-28.19,25.01-47.46,40.07Zm41.66-84.58c-9.65-11.74-41.13,8.98-48.39,14.73l-1.03.82-10.39-13.09c-3.68,2.52-5.96,4.35-6.2,4.5l11.53,14.52c7.95-6.28,39.8-27.19,50.24-14.52,3.92,4.74,4.05,8.27,3.82,10.49-.08.72-.21,1.46-.42,2.2,2.49-3.68,4.03-7.08,4.37-10.15.21-1.99.08-5.14-3.52-9.51Z"/><path class="cls-1" d="m1531.54,414.09l-1.06-.79-12.67,16.99,1.06.79c.08.05.21.16.37.27,6.17,4.77,70.99,57.05,37.76,130.98-1.32,2.91-2.84,6.09-4.56,9.46-22.92,44.41-83.71,121.05-219.57,80.13-102.47-30.87-163.87-68.79-208.7-96.51l-1.51-.93-.13-.08c.34-.32.69-.66,1.01-1.01,23.58-23.24,22.44-48.73,20.77-58.85-4.56-27.98-27.61-50.98-58.69-58.56-29.7-7.26-115.83-2.76-207.06,2.01-91.5,4.8-186.13,9.73-225.95,3.1-32.91-5.49-44.17-26.53-47.83-43.22-5.49-25.01,2.81-54.56,19.56-75.28,4.88-6.07,10.49-11.37,16.69-15.58,22.52-15.32,43.86-1.8,76.34,22.26,27.37,20.24,58.4,43.22,91.42,27.19,7.15-3.5,13.65-8.08,19.26-13.62,10.04-9.8,17.3-22.5,20.88-36.83,7.79-31.48-2.52-68.71-28.99-104.8-56.44-77-162.62-30.08-219.67-4.85-19.61,8.64-50.16,29.63-88.85,56.18-88.72,60.87-222.8,152.9-317.13,152.9-21.28,0-37.15-9.96-44.68-28.04-13.83-33.15,4.13-74.94,30.08-105.38.08-.05.13-.13.19-.21,2.84-3.31,5.78-6.49,8.77-9.51,27.11-27.32,55.28-49.34,80.13-68.76,19.26-15.05,35.75-27.93,47.46-40.07,10.81-11.16,17.6-21.68,18.79-32.7.98-8.98-1.78-17.49-8.21-25.31-7.61-9.22-22.63-17.54-51.04-4.72-14.15,6.39-25.62,15.32-26.9,16.32l-1.03.82,2.78,3.52,10.39,13.09,1.03-.82c7.26-5.75,38.74-26.47,48.39-14.73,3.6,4.37,3.74,7.53,3.52,9.51-.34,3.07-1.88,6.47-4.37,10.15l-.03.03c-8.88,13.06-30.1,29.65-53.84,48.2-25.33,19.82-54.08,42.27-82.12,70.54-16.83,16.96-29.7,35.56-38.16,54.3-13.28,29.44-15.66,59.25-5.41,83.89,10.86,26.1,34.29,41.07,64.26,41.07,100.91,0,232.82-90.52,329.14-156.63,36.28-24.88,67.62-46.4,85.4-54.27,71.44-31.56,151.23-60.34,194.02-1.99,22.68,30.95,31.75,61.9,25.49,87.15-1.38,5.62-3.55,10.86-6.39,15.63-5.33,9.06-13.06,16.32-22.42,20.88-21.49,10.41-44.84-6.86-69.56-25.2-30.16-22.31-64.31-47.59-100.88-22.71-16.14,10.97-28.96,27.37-37.12,45.92-9.41,21.23-12.67,45.21-7.9,67.01,7.05,32.14,30.76,53.85,65.05,59.57,42.05,7,137.87,2.01,230.51-2.84,85.67-4.48,174.25-9.09,200.97-2.6,22.79,5.56,39.59,21.81,42.8,41.42,1.67,10.15-.5,20.22-6.17,29.44-3.34,5.46-7.92,10.65-13.65,15.4-15.9-9.51-32.96-19-50.19-24.43-46.82-14.68-122.79-10.65-144.71,14.97-2.91,3.42-4.96,7.13-6.07,11.02v.03c-1.91,6.76-1.09,14.07,2.57,21.41,7.13,14.42,21.36,24.96,41.13,30.53,43.35,12.16,112.59-.21,158.12-28.22,2.6,1.62,5.25,3.23,7.95,4.93l.66.4c45.82,28.33,108.56,67.09,213.71,98.76,27.66,8.32,54.14,12.56,78.73,12.56,32.12,0,61.72-7.21,87.92-21.41,17.99-9.73,32.73-21.78,44.78-34.61.03-.03.05-.05.05-.08,18.28-19.37,30.37-40.44,38.1-57.66,41.18-91.61-43.93-156.29-44.81-156.92Zm42.37,155.84c-1.46,3.26-3.1,6.65-4.88,10.15-13.73,26.84-37.44,59.62-76.87,80.98-25.84,13.96-54.98,21.07-86.68,21.07-24.33,0-50.56-4.19-77.96-12.43-104.83-31.59-167.39-70.25-213.1-98.5l-.64-.4c-2.97-1.83-5.86-3.6-8.66-5.35l-.69-.42-.72.42c-44.94,27.96-113.76,40.38-156.69,28.35-19.03-5.35-32.67-15.42-39.48-29.15-4.64-9.38-4.27-18.68.95-26.6.64-1.01,1.38-2.01,2.2-2.97,21.3-24.91,95.85-28.62,141.9-14.15,17.25,5.41,34.45,15.05,50.43,24.64l.8.48.72-.58c1.78-1.43,3.44-2.89,5.01-4.43.05-.03.08-.08.11-.11,13.12-12.67,18.89-27.88,16.38-43.4-3.39-20.64-20.96-37.73-44.81-43.54-27.08-6.6-115.85-1.96-201.71,2.52-92.51,4.82-188.17,9.83-229.95,2.86-33.18-5.51-56.1-26.5-62.91-57.53-6.78-31.03,3.15-66.62,23.88-91.69,5.86-7.13,12.61-13.41,20.09-18.5,35-23.8,68.37.9,97.81,22.68,25.39,18.81,49.34,36.54,72.26,25.44,4.96-2.41,9.49-5.56,13.46-9.3,8.08-7.55,13.96-17.57,16.77-28.96,6.44-26.02-2.76-57.77-25.94-89.38-43.93-59.91-124.83-30.82-197.2,1.17-18.02,7.95-49.45,29.52-85.86,54.51-96.03,65.9-227.54,156.16-327.63,156.16-28.83,0-51.38-14.39-61.82-39.46-15.05-36.12-2.04-83.87,33.15-124.62,3.1-3.63,6.39-7.18,9.86-10.68,27.93-28.14,56.6-50.53,81.88-70.33,17.78-13.89,34.16-26.68,45.15-37.92,8.16-8.32,13.38-15.77,14.07-22.23.26-2.46.13-6.36-4.08-11.5-11.63-14.1-44.68,8.9-51.04,13.54l-8.64-10.86-1.25-1.59c3.23-2.44,13.43-9.83,25.28-15.18,26.87-12.14,40.89-4.53,47.91,4,5.96,7.23,8.53,15.08,7.63,23.32-.58,5.33-2.6,10.6-5.86,15.93-10.02,16.48-31.82,33.49-59.38,55.04-24.94,19.48-53.16,41.55-80.4,69-13.81,13.91-26.26,31.24-34.47,49.5-10.31,22.92-13.94,47.35-5.14,68.47,7.98,19.13,24.7,29.68,47.14,29.68,95.16,0,229.64-92.29,318.64-153.37,38.56-26.47,69.03-47.38,88.4-55.94,56.36-24.91,161.3-71.28,216.47,4,26.02,35.46,36.14,71.89,28.54,102.6-1.7,6.86-4.29,13.33-7.66,19.29-7.18,12.75-17.91,23.05-31.06,29.41-31.56,15.34-61.9-7.13-88.69-26.95-33.41-24.75-55.41-38.61-79.39-22.31-13.33,9.09-24.03,23.05-30.84,38.77,0,.03-.03.03-.03.05-7.61,17.54-10.33,37.26-6.49,54.83,3.84,17.46,15.63,39.51,50,45.23,40.09,6.68,134.85,1.72,226.59-3.05,90.97-4.74,176.9-9.25,206.21-2.09,30.05,7.34,52.31,29.49,56.73,56.44,1.19,7.39,2.12,23.42-7.63,40.54-3.42,6.02-8.14,12.14-14.6,18.1l-1.3,1.19,2.73,1.7,1.88,1.17c44.94,27.77,106.5,65.8,209.31,96.77,97.2,29.28,156.53-.87,191.21-37.02.03-.03.05-.05.08-.08,18.13-18.92,29.49-39.46,36.01-53.95,33.12-73.69-28.62-126.29-37.89-133.63l4.66-6.28,4.82-6.47c9.59,7.68,80.77,68.71,42.9,152.9Z"/><path class="cls-8" d="m1531.01,417.03l-4.82,6.47-4.66,6.28c9.27,7.34,71.02,59.94,37.89,133.63-6.52,14.49-17.89,35.03-36.01,53.95-.03.03-.05.05-.08.08-34.69,36.14-94.02,66.3-191.21,37.02-102.81-30.98-164.37-69-209.31-96.77l-1.88-1.17-2.73-1.7,1.3-1.19c6.47-5.96,11.18-12.08,14.6-18.1,9.75-17.12,8.82-33.15,7.63-40.54-4.43-26.95-26.68-49.1-56.73-56.44-29.31-7.15-115.24-2.65-206.21,2.09-91.74,4.77-186.5,9.73-226.59,3.05-34.37-5.72-46.16-27.77-50-45.23-3.84-17.57-1.11-37.28,6.49-54.83,0-.03.03-.03.03-.05,6.81-15.71,17.52-29.68,30.84-38.77,23.98-16.3,45.97-2.44,79.39,22.31,26.79,19.82,57.13,42.29,88.69,26.95,13.14-6.36,23.88-16.67,31.06-29.41,3.37-5.96,5.96-12.43,7.66-19.29,7.61-30.71-2.52-67.15-28.54-102.6-55.17-75.28-160.1-28.91-216.47-4-19.37,8.56-49.84,29.47-88.4,55.94-89.01,61.08-223.49,153.37-318.64,153.37-22.44,0-39.16-10.55-47.14-29.68-8.8-21.12-5.17-45.55,5.14-68.47,8.21-18.26,20.67-35.59,34.47-49.5,27.24-27.45,55.46-49.53,80.4-69,27.56-21.54,49.37-38.56,59.38-55.04,3.26-5.33,5.27-10.6,5.86-15.93.9-8.24-1.67-16.08-7.63-23.32-7.02-8.53-21.04-16.14-47.91-4-11.84,5.35-22.05,12.75-25.28,15.18l1.25,1.59,8.64,10.86c6.36-4.64,39.4-27.64,51.04-13.54,4.21,5.14,4.35,9.04,4.08,11.5-.69,6.47-5.91,13.91-14.07,22.23-11,11.24-27.37,24.03-45.15,37.92-25.28,19.79-53.95,42.19-81.88,70.33-3.47,3.5-6.76,7.05-9.86,10.68-35.19,40.75-48.2,88.51-33.15,124.62,10.44,25.07,32.99,39.46,61.82,39.46,100.09,0,231.6-90.25,327.63-156.16,36.41-24.99,67.84-46.56,85.86-54.51,72.37-31.98,153.27-61.08,197.2-1.17,23.19,31.61,32.38,63.36,25.94,89.38-2.81,11.39-8.69,21.41-16.77,28.96-3.97,3.74-8.51,6.89-13.46,9.3-22.92,11.1-46.88-6.62-72.26-25.44-29.44-21.78-62.8-46.48-97.81-22.68-7.47,5.09-14.23,11.37-20.09,18.5-20.72,25.07-30.66,60.66-23.88,91.69,6.81,31.03,29.73,52.02,62.91,57.53,41.79,6.97,137.45,1.96,229.95-2.86,85.86-4.48,174.63-9.12,201.71-2.52,23.85,5.8,41.42,22.89,44.81,43.54,2.52,15.53-3.26,30.74-16.38,43.4-.03.03-.05.08-.11.11-1.56,1.54-3.23,2.99-5.01,4.43l-.72.58-.8-.48c-15.98-9.59-33.18-19.24-50.43-24.64-46.05-14.47-120.59-10.76-141.9,14.15-.82.95-1.56,1.96-2.2,2.97-5.22,7.92-5.59,17.22-.95,26.6,6.81,13.73,20.46,23.8,39.48,29.15,42.93,12.03,111.74-.4,156.69-28.35l.72-.42.69.42c2.81,1.75,5.7,3.52,8.66,5.35l.64.4c45.71,28.25,108.27,66.91,213.1,98.5,27.4,8.24,53.63,12.43,77.96,12.43,31.69,0,60.84-7.1,86.68-21.07,39.43-21.36,63.15-54.14,76.87-80.98,1.78-3.5,3.42-6.89,4.88-10.15,37.87-84.19-33.31-145.21-42.9-152.9Zm-444.12,139.81c-3.05,1.64-6.17,3.21-9.38,4.66-28.7,13.43-63.33,21.01-92.88,21.01-12.24,0-23.58-1.3-33.28-4.03-14.79-4.16-24.72-11.18-29.55-20.91-1.01-2.01-1.48-3.71-1.59-5.19-.24-3.1,1.09-5.25,2.57-6.97,8.8-10.25,36.51-17.17,69-17.17,20.3,0,39.67,2.7,56.04,7.84,11,3.47,23.05,9.14,39.09,18.44l2.07,1.19-2.09,1.11Z"/><path class="cls-1" d="m1086.92,554.53c-16.03-9.3-28.09-14.97-39.09-18.44-16.38-5.14-35.75-7.84-56.04-7.84-32.49,0-60.2,6.92-69,17.17-1.48,1.72-2.81,3.87-2.57,6.97.11,1.48.58,3.18,1.59,5.19,4.82,9.73,14.76,16.75,29.55,20.91,9.7,2.73,21.04,4.03,33.28,4.03,29.55,0,64.18-7.58,92.88-21.01,3.21-1.46,6.33-3.02,9.38-4.66l2.09-1.11-2.07-1.19Zm-12.24,5.38c-39.77,18.15-90.49,25.04-122.61,16.03-14.04-3.95-23.42-10.52-27.88-19.53-1.35-2.73-1.54-4.66-1.19-6.15.32-1.27,1.03-2.23,1.8-3.13,8.19-9.57,35.75-16.24,66.99-16.24,20.03,0,39.14,2.68,55.25,7.74,10.33,3.23,21.65,8.51,36.49,16.99-2.89,1.51-5.83,2.94-8.85,4.29Z"/><path class="cls-9" d="m361.33,201.22l-15.55-12.72-.1-.08c.03.15.03.28-.03.43,0,.03-.03.05-.03.05,0,.05-.03.1-.08.15l-3.77,5.51c-.15.23-.41.36-.69.36h-.05l-32.38-2.75s-.08.05-.1.05h-.13c-.18,0-.36-.05-.51-.18l-2.35-1.84-2.68,3.65c-.15.23-.41.36-.69.36h-.08l-32.31-3.72s-.05.03-.08.03c-.03.03-.08.03-.1.03-.2,0-.38-.08-.54-.2l-42.15-34.98c-.36-.28-.41-.79-.15-1.15l3.93-5.38c.05-.08.1-.13.15-.13.03-.05.08-.08.15-.13.1-.08.26-.1.38-.1h.08l34.24,4.92c.13.03.25.08.36.15l.61.51,1.61-2.37c.1-.13.23-.25.38-.28,0-.03.03-.03.03-.03.03,0,.03-.03.05-.03h.05c.05,0,.1-.03.15-.03h.1l34.37,3.9c.13.03.25.08.36.15l30.8,24.02-46.13-37.76-3.47,5.28c-.15.23-.41.38-.69.38h-.05l-32.38-2.19s-.08.05-.13.05h-.15c-.18,0-.36-.05-.51-.15l-4.9-3.7-3.09,4.41c-.15.2-.41.36-.69.36-.03,0-.05,0-.08-.03l-32.33-3.06s-.08.05-.1.05h-.13c-.18,0-.38-.05-.54-.18l-42.84-34.14c-.33-.28-.41-.79-.15-1.15l3.8-5.46c.05-.05.1-.13.15-.13.03-.05.1-.08.15-.13.13-.08.31-.13.46-.1l34.35,4.23c.13.03.25.08.36.15l3.11,2.47,2.17-3.29c.03-.05.08-.1.13-.1.05-.08.1-.13.15-.15.03-.03.05-.03.05-.03.08-.05.15-.08.23-.08.05-.03.1-.03.18-.03l34.45,3.31c.13,0,.26.05.36.13l18.38,13.82L134.76,15.88C100.28,11.29,37.66,3.03,24.99,1.63l244.98,195.06,82.66,4.13,8.72.43-.03-.03ZM98.17,51.73h-.13c-.18,0-.36-.05-.51-.18L54.69,17.41c-.36-.28-.43-.77-.18-1.15l3.82-5.46c.03-.05.08-.1.13-.1l.15-.15c.08-.03.15-.08.23-.08.05-.03.1-.03.15-.03h.1l34.32,4.23c.13.03.25.08.36.15l6.83,5.46,2.73-3.85c.08-.13.18-.2.28-.26.1-.05.25-.1.38-.1h.1l34.32,4.41c.13,0,.23.05.33.15l41.23,33.15c.25.18.33.51.23.82-.03.08-.08.13-.13.18h-.03c0,.05-.03.1-.05.15l-3.85,5.43c-.15.23-.41.36-.66.36h-.1l-32.28-3.24h-.05s-.03.05-.08.05-.08.03-.13.03c-.18,0-.38-.08-.54-.2l-8.34-6.71-2.63,3.75c-.15.23-.41.36-.66.36h-.1l-32.31-3.09c-.05.03-.08.05-.13.05Zm57.14,47.02s-.03.03-.05.03c-.03.03-.08.03-.1.03-.2,0-.38-.08-.54-.18l-42.84-34.17c-.36-.25-.41-.76-.15-1.12l3.8-5.48c.03-.05.08-.1.13-.1.05-.05.1-.1.18-.13t.05-.03c.08-.05.15-.08.23-.08.05-.03.1-.03.18-.03l34.35,4.26c.13,0,.23.05.33.15l3.37,2.68,2.68-3.9c.03-.05.08-.1.13-.1.1-.1.23-.2.38-.23.05-.03.1-.03.15-.03h.08l34.37,4c.13,0,.26.05.36.13l41.64,32.66c.23.2.33.54.2.82-.03.05-.03.08-.08.1,0,.05-.03.08-.05.1,0,.05-.03.08-.05.13l-3.77,5.48c-.15.23-.43.38-.69.38h-.08l-32.33-2.86s-.08.05-.13.05h-.13c-.2,0-.38-.05-.54-.18l-4.97-3.9-2.93,4.21c-.15.23-.41.36-.69.36h-.08l-32.38-3.06h-.03Z"/><polygon class="cls-7" points="250.88 215.71 242.49 226.17 2.02 33.05 9.65 23.54 236.3 204.01 250.88 215.71"/><path class="cls-7" d="m349.25,219.64l-5.05,6.94-99.75-.05,7.98-9.66,1.33,1.05c.15.13.33.2.54.2.05.03.1.03.15.03h.08l94.72,1.5Z"/><polygon class="cls-10" points="350.49 217.93 350.47 217.98 295.95 217.12 350.49 217.93"/><polygon class="cls-10" points="350.49 217.93 350.47 217.98 295.95 217.12 350.49 217.93"/><path class="cls-1" d="m361.36,201.21l-8.69-.41,8.72.43-.03-.03Z"/><polygon class="cls-4" points="304.11 186.9 302.53 186.75 302.51 186.72 304.11 186.9"/><path class="cls-4" d="m310.98,186.11l-.71,1.12-1.99,2.91-1.68-1.33.25-.36c.03-.05.05-.1.08-.15.03-.03.05-.05.05-.08.03-.03.05-.05.08-.1.13-.28.03-.61-.2-.82l-38.81-32.2,1.2-1.76,25.14,19.63.76.61,15.83,12.52Z"/><path class="cls-4" d="m312.37,187.03l-.82,1.3.87-1.3h-.05Zm-9.87-.31l-1.56-.15.03.03,1.56.15,1.58.15-1.61-.18Zm-33.61-35.42s-.03,0-.05.03c.05,0,.1-.03.15-.03h-.1Zm34.55,37.2l.79.64.38-.51-1.17-.13Z"/><polygon class="cls-4" points="343.36 189.3 340.71 193.2 310.11 190.6 311.57 188.33 312.38 187.03 312.43 187.03 343.36 189.3"/><path class="cls-4" d="m345.71,188.41c.03.15.03.28-.03.43.03-.03.05-.08.08-.13.03-.08.05-.15.05-.23l-.1-.08Z"/><path class="cls-4" d="m254.07,138.99l-.82,1.33-.18.28-.1.15-.1.18-1.43,2.17-4.28-3.21c.13-.28.03-.61-.2-.82l-36.95-29.42,1.76-2.65,29.68,22.36.43.33,12.19,9.31Z"/><path class="cls-4" d="m255.49,139.91l-.66,1.07.71-1.07h-.05Z"/><polygon class="cls-4" points="286.53 141.62 283.93 145.57 253.28 143.5 254.81 141.03 254.83 140.98 255.5 139.91 255.55 139.91 286.53 141.62"/><path class="cls-4" d="m199.5,95.24v.03l-.46.66-2.29,3.34-4.36-3.42s.05-.05.05-.1c.05-.03.05-.05.08-.1.13-.28.03-.61-.2-.82l-36.72-29.22,2.22-3.24,28.15,22.11,13.54,10.76Z"/><path class="cls-4" d="m200.87,96.16l-.97,1.5,1.02-1.5h-.05Zm-43.37-35.85s-.03,0-.05.03c.05-.03.1-.03.15-.03h-.1Z"/><polygon class="cls-4" points="231.86 98.5 229.18 102.38 198.59 99.7 199.91 97.66 200.88 96.16 200.93 96.16 231.86 98.5"/><path class="cls-4" d="m145.5,51.48l-.54.84-.28.41-1.96,2.75-7.73-6.22.23-.33c.03-.05.05-.1.05-.15h.03c.05-.05.1-.13.13-.18.1-.31.03-.64-.23-.82l-33.22-26.47,2.27-3.19,26.39,21.24,1.61,1.3,13.26,10.81Z"/><path class="cls-4" d="m146.89,52.43l-.84,1.27.89-1.27h-.05Zm-14.79-3.34l.61.48.28-.41-.89-.08Z"/><polygon class="cls-4" points="177.83 55.13 175.13 59.01 144.56 55.95 145.75 54.14 146.06 53.7 146.9 52.43 146.95 52.43 177.83 55.13"/><polygon class="cls-4" points="157.76 92.69 156.95 93.94 156.85 94.09 155.01 96.72 113.5 63.62 116.33 59.54 143.54 81.21 144.05 81.62 144.38 81.9 157.76 92.69"/><path class="cls-4" d="m159.16,93.63l-.46.71.48-.71h-.03Z"/><polygon class="cls-4" points="190.12 96.21 187.42 100.08 156.85 97.18 158.61 94.5 158.71 94.35 159.17 93.63 159.19 93.63 190.12 96.21"/><polygon class="cls-4" points="212.41 136.98 211.87 137.79 209.65 140.95 168.14 107.86 170.97 103.78 196.62 124.23 212.41 136.98"/><path class="cls-4" d="m213.8,137.9l-.74,1.15.79-1.15h-.05Z"/><polygon class="cls-4" points="244.76 140.44 242.06 144.32 211.49 141.44 213.07 139.04 213.81 137.9 213.86 137.9 244.76 140.44"/><polygon class="cls-4" points="272.35 184.5 271.74 185.4 271.71 185.45 269.52 188.46 228.67 154.55 231.61 150.52 257.66 172.16 272.35 184.5"/><path class="cls-4" d="m273.72,185.45l-.46.71.51-.71h-.05Z"/><polygon class="cls-4" points="304.63 188.64 304.25 189.15 301.85 192.46 271.36 188.97 273.01 186.52 273.12 186.39 273.27 186.16 273.73 185.45 273.78 185.45 303.46 188.51 304.63 188.64"/><polygon class="cls-4" points="304.11 186.9 302.53 186.75 300.98 186.6 300.95 186.57 302.51 186.72 304.11 186.9"/><path class="cls-4" d="m302.51,186.72l-1.56-.15.03.03,1.56.15,1.58.15-1.61-.18Zm0,0l-1.56-.15.03.03,1.56.15,1.58.15-1.61-.18Zm0,0l-1.56-.15.03.03,1.56.15,1.58.15-1.61-.18Zm0,0l-1.56-.15.03.03,1.56.15,1.58.15-1.61-.18Zm0,0l-1.56-.15.03.03,1.56.15,1.58.15-1.61-.18Zm0,0l-1.56-.15.03.03,1.56.15,1.58.15-1.61-.18Zm0,0l-1.56-.15.03.03,1.56.15,1.58.15-1.61-.18Zm0,0l-1.56-.15.03.03,1.56.15,1.58.15-1.61-.18Zm0,0l-1.56-.15.03.03,1.56.15,1.58.15-1.61-.18Zm0,0l-1.56-.15.03.03,1.56.15,1.58.15-1.61-.18Zm0,0l-1.56-.15.03.03,1.56.15,1.58.15-1.61-.18Zm0,0l-1.56-.15.03.03,1.56.15,1.58.15-1.61-.18Zm0,0l-1.56-.15.03.03,1.56.15,1.58.15-1.61-.18Zm0,0l-1.56-.15.03.03,1.56.15,1.58.15-1.61-.18Zm0,0l-1.56-.15.03.03,1.56.15,1.58.15-1.61-.18Zm0,0l-1.56-.15.03.03,1.56.15,1.58.15-1.61-.18Zm0,0l-1.56-.15.03.03,1.56.15,1.58.15-1.61-.18Zm0,0l-1.56-.15.03.03,1.56.15,1.58.15-1.61-.18Z"/><polygon class="cls-4" points="100.67 45.67 100.67 45.7 100.22 46.38 97.9 49.67 56.39 16.58 59.24 12.5 87.24 34.83 100.67 45.67"/><path class="cls-4" d="m102.04,46.59l-.89,1.35.94-1.35h-.05ZM58.93,10.43s-.03,0-.05.03c.05-.03.1-.03.15-.03h-.1Z"/><polygon class="cls-4" points="133.01 49.16 132.73 49.57 130.33 53.04 99.73 50.13 101.16 47.94 102.05 46.59 102.1 46.59 132.11 49.09 133.01 49.16"/><path class="cls-1" d="m364.18,201.95c-.03-.08-.05-.15-.08-.2,0-.1-.08-.18-.15-.26L135.52,14.64c-.1-.08-.2-.13-.36-.15C116.65,12.04,24.3-.25,22.62,0c-.03,0-.05,0-.08.03h-.03c-.33,0-.66.15-.87.43L6.4,19.59c-.18.23-.25.51-.23.82.03.28.18.54.41.71l1.76,1.4L.18,32.67c-.28.36-.23.87.13,1.17l241.79,194.16s.05.05.1.05c.05.03.1.05.15.08.08.05.15.05.25.05.03.03.05.03.08.03l101.94.05c.25,0,.51-.13.66-.36l5.99-8.24,1.48.03h.03c.28,0,.56-.15.71-.41l10.58-16.7c.05-.08.05-.18.08-.28.03-.05.05-.13.05-.2-.03-.05-.03-.1-.03-.15Zm-57.34-14.64l-38.81-32.2,1.2-1.76,25.14,19.63.76.61,15.83,12.52-.71,1.12-1.99,2.91-1.68-1.33.26-.36c.03-.05.05-.1.08-.15.03-.03.05-.05.05-.08.03-.03.05-.05.08-.1.13-.28.03-.61-.2-.82Zm-49.18-15.15l14.69,12.34-.61.89-.03.05-2.19,3.01-40.85-33.91,2.93-4.03,26.06,21.65Zm-23.89-21.95l.1.03,31.49,4.51.56.46.66.56.64.54,36.9,30.6-1.58-.15-1.56-.15-.03-.03-26.75-2.83-.66-.08-39.78-33.45Zm39.24,36.31l.1-.13.15-.23.46-.71h.05l29.68,3.06,1.17.13-.38.51-2.4,3.31-30.5-3.49,1.66-2.45Zm38.55,1.81l.82-1.3h.05l30.93,2.27-2.65,3.9-30.6-2.6,1.45-2.27Zm1.25-3.03l-.66-.05-40.75-32.25h.1l31.62,3.6,39.7,30.98-30.01-2.27Zm-65.86-46.23l-36.95-29.42,1.76-2.65,29.68,22.36.43.33,12.19,9.31-.82,1.33-.18.28-.1.15-.1.18-1.43,2.17-4.28-3.21c.13-.28.03-.61-.2-.82Zm-50.33-14.84l15.78,12.75-.54.82-2.22,3.16-41.51-33.1,2.83-4.08,25.65,20.45Zm-23.46-20.78h.1l31.57,3.9,3.06,2.45.66.54.66.51,10.48,8.34,23.89,19.05.05.03.38.31.2.18-1.56-.13-28.43-2.47-.66-.05-40.41-32.64Zm39.9,35.59l.74-1.15h.05l30.9,2.55-2.7,3.88-30.57-2.88,1.58-2.4Zm41.74,1.99l.03-.05.66-1.07h.05l30.98,1.71-2.6,3.95-30.65-2.07,1.53-2.47Zm1.07-2.91h-.03l-.61-.03-41.31-31.52h.08l31.69,3.03,40.24,30.29-30.06-1.78ZM134.78,15.86l129.99,106.33-18.38-13.82c-.1-.08-.23-.13-.36-.13l-34.45-3.31c-.08,0-.13,0-.18.03-.08,0-.15.03-.23.08,0,0-.03,0-.05.03-.05.03-.1.08-.15.15-.05,0-.1.05-.13.1l-2.17,3.29-3.11-2.47c-.1-.08-.23-.13-.36-.15l-34.35-4.23c-.15-.03-.33.03-.46.1-.05.05-.13.08-.15.13-.05,0-.1.08-.15.13l-3.8,5.46c-.26.36-.18.87.15,1.15l42.84,34.14c.15.13.36.18.54.18h.13s.08-.03.1-.05l32.33,3.06s.05.03.08.03c.28,0,.54-.15.69-.36l3.09-4.41,4.9,3.7c.15.1.33.15.51.15h.15c.05,0,.1-.03.13-.05l32.38,2.19h.05c.28,0,.54-.15.69-.38l3.47-5.28,46.13,37.76-30.8-24.02c-.1-.08-.23-.13-.36-.15l-34.37-3.9h-.1c-.05,0-.1.03-.15.03h-.05s-.03.03-.05.03c0,0-.03,0-.03.03-.15.03-.28.15-.38.28l-1.61,2.37-.61-.51c-.1-.08-.23-.13-.36-.15l-34.24-4.92h-.08c-.13,0-.28.03-.38.1-.08.05-.13.08-.15.13-.05,0-.1.05-.15.13l-3.93,5.38c-.25.36-.2.87.15,1.15l42.15,34.98c.15.13.33.2.54.2.03,0,.08,0,.1-.03.03,0,.05,0,.08-.03l32.31,3.72h.08c.28,0,.54-.13.69-.36l2.68-3.65,2.35,1.84c.15.13.33.18.51.18h.13s.08-.03.1-.05l32.38,2.75h.05c.28,0,.54-.13.69-.36l3.77-5.51c.05-.05.08-.1.08-.15,0,0,.03-.03.03-.05.05-.15.05-.28.03-.43l.1.08,15.55,12.72.03.03-8.72-.43-82.66-4.13L25.01,1.61c12.67,1.4,75.29,9.66,109.77,14.25ZM22.64,2.63l245.52,195.47-13.31,16.7-.59.74-.94-.74-103.7-82.56L9.69,20.84l-.94-.74L22.64,2.63Zm219.84,223.54L2.02,33.05l7.62-9.51,226.65,180.47,14.58,11.7-8.39,10.45Zm101.71.41l-99.75-.05,7.98-9.66,1.33,1.05c.15.13.33.2.54.2.05.03.1.03.15.03h.08l94.72,1.5-5.05,6.94Zm8.75-9.54v.03l-.61.94-.84-.03h-1.02l-54.51-.87-39.7-.61.66-.82.66-.84,12.93-16.27,91.38,4.33-8.95,14.13Z"/><polygon class="cls-10" points="285.93 139.91 255.87 138.12 255.85 138.12 255.23 138.1 213.93 106.58 214 106.58 245.7 109.62 285.93 139.91"/><polygon class="cls-10" points="244.22 138.74 242.66 138.61 214.23 136.14 213.57 136.08 173.16 103.45 173.26 103.45 204.82 107.35 207.88 109.8 208.55 110.33 209.21 110.84 219.69 119.18 243.58 138.23 243.63 138.25 244.01 138.56 244.22 138.74"/><polygon class="cls-10" points="342.82 187.56 312.81 185.3 312.14 185.24 271.4 152.99 271.5 152.99 303.12 156.59 342.82 187.56"/><polygon class="cls-10" points="304.11 186.9 302.51 186.72 300.95 186.57 274.2 183.74 273.54 183.66 233.76 150.21 233.87 150.24 265.36 154.75 265.92 155.21 266.58 155.77 267.22 156.3 304.11 186.9"/><polygon class="cls-7" points="361.89 202.91 352.94 217.04 352.94 217.07 352.33 218.01 351.49 217.98 350.47 217.98 350.49 217.93 295.95 217.12 256.25 216.5 256.92 215.69 257.58 214.85 270.51 198.58 361.89 202.91"/><polygon class="cls-7" points="268.16 198.1 254.85 214.8 254.26 215.54 253.32 214.8 149.62 132.23 9.69 20.84 8.75 20.1 22.64 2.63 268.16 198.1"/><path class="cls-1" d="m234.04,97.1l-41.64-32.66c-.1-.08-.23-.13-.36-.13l-34.37-4h-.08c-.05,0-.1,0-.15.03-.15.03-.28.13-.38.23-.05,0-.1.05-.13.1l-2.68,3.9-3.37-2.68c-.1-.1-.2-.15-.33-.15l-34.35-4.26c-.08,0-.13,0-.18.03-.08,0-.15.03-.23.08t-.05.03c-.08.03-.13.08-.18.13-.05,0-.1.05-.13.1l-3.8,5.48c-.26.36-.2.87.15,1.12l42.84,34.17c.15.1.33.18.54.18.03,0,.08,0,.1-.03t.05-.03h.03l32.38,3.06h.08c.28,0,.54-.13.69-.36l2.93-4.21,4.97,3.9c.15.13.33.18.54.18h.13c.05,0,.1-.03.13-.05l32.33,2.86h.08c.25,0,.54-.15.69-.38l3.77-5.48c.03-.05.05-.08.05-.13.03-.03.05-.05.05-.1.05-.03.05-.05.08-.1.13-.28.03-.61-.2-.82Zm-73.97-35.11l31.62,3.7,39.62,31.08-30.04-2.37-.64-.05-40.67-32.36h.1Zm-41.46-2.78h.03l31.54,3.9,3.29,2.63.64.51,35.47,28.23-.28-.03h-.03l-1.53-.13-28.15-2.42h-.03l-.64-.05-40.44-32.66.13.03Zm36.39,37.51l-41.51-33.1,2.83-4.08,27.21,21.67.51.41.33.28,13.39,10.79-.82,1.25-.1.15-1.84,2.63Zm32.41,3.37l-30.57-2.91,1.76-2.68.1-.15.46-.71h.03l30.93,2.58-2.7,3.88Zm9.33-.82l-4.36-3.42s.05-.05.05-.1c.05-.03.05-.05.08-.1.13-.28.03-.61-.2-.82l-36.72-29.22,2.22-3.24,28.15,22.11,13.54,10.76v.03l-.46.66-2.29,3.34Zm32.43,3.11l-30.6-2.68,1.33-2.04.97-1.5h.05l30.93,2.35-2.68,3.88Z"/><polygon class="cls-10" points="231.32 96.77 201.28 94.4 200.64 94.35 159.97 61.99 160.08 61.99 191.69 65.69 231.32 96.77"/><polygon class="cls-10" points="189.58 94.47 189.3 94.45 189.27 94.45 187.74 94.32 159.59 91.9 159.57 91.9 158.93 91.85 118.49 59.18 118.62 59.21 118.64 59.21 150.18 63.11 153.47 65.74 154.11 66.25 189.58 94.47"/><path class="cls-1" d="m180.02,53.78l-41.23-33.15c-.1-.1-.2-.15-.33-.15l-34.32-4.41h-.1c-.13,0-.28.05-.38.1-.1.05-.2.13-.28.26l-2.73,3.85-6.83-5.46c-.1-.08-.23-.13-.36-.15l-34.32-4.23h-.1c-.05,0-.1,0-.15.03-.08,0-.15.05-.23.08l-.15.15c-.05,0-.1.05-.13.1l-3.82,5.46c-.25.38-.18.87.18,1.15l42.84,34.14c.15.13.33.18.51.18h.13c.05,0,.08-.03.13-.05l32.31,3.09h.1c.25,0,.51-.13.66-.36l2.63-3.75,8.34,6.71c.15.13.36.2.54.2.05,0,.08-.03.13-.03s.05-.03.08-.05h.05l32.28,3.24h.1c.25,0,.51-.13.66-.36l3.85-5.43c.03-.05.05-.1.05-.15h.03c.05-.05.1-.1.13-.18.1-.31.03-.64-.23-.82ZM106.56,17.83l31.52,4.03,39.24,31.54-29.99-2.73-.66-.05-40.26-32.82.15.03Zm-45.03-5.66l31.57,3.88,6.73,5.38.66.51,32,25.5-1.25-.1-1.48-.13h-.03l-27.26-2.37-.64-.05L61.4,12.14l.13.03Zm36.36,37.51L56.38,16.58l2.86-4.08,28,22.34,13.44,10.84v.03l-.46.69-2.32,3.29Zm34.83-.1l-2.4,3.47-30.6-2.91,1.43-2.19.89-1.35h.05l30.01,2.5.89.08-.28.41Zm10,5.92l-7.73-6.22.23-.33c.03-.05.05-.1.05-.15h.03c.05-.05.1-.13.13-.18.1-.31.03-.64-.23-.82l-33.22-26.47,2.27-3.19,26.39,21.24,1.61,1.3,13.26,10.81-.54.84-.28.41-1.96,2.75Zm32.41,3.52l-30.57-3.06,1.2-1.81.31-.43.84-1.27h.05l30.88,2.7-2.7,3.88Z"/><polygon class="cls-10" points="177.31 53.4 147.33 50.67 146.66 50.62 106.4 17.8 106.56 17.83 138.07 21.86 177.31 53.4"/><polygon class="cls-10" points="132.49 47.43 131.24 47.33 129.76 47.2 129.73 47.2 102.48 44.83 101.84 44.78 61.4 12.14 61.53 12.17 93.09 16.04 99.82 21.42 100.49 21.93 132.49 47.43"/><path class="cls-10" d="m1176.72,350.38h0s-.02,0-.03,0l-8.69,17.7,4.38-.88.02-.03h0s8.66-17.64,8.66-17.64c-2.57.51-3.75.74-4.33.83Zm0,0h0s-.02,0-.03,0l-8.69,17.7,4.38-.88.02-.03h0s8.66-17.64,8.66-17.64c-2.57.51-3.75.74-4.33.83Zm3.65-2.12l-20.6-12.19-3.95.74h0s-.09.01-.09.01l20.66,12.23c.58-.09,2.36-.44,4.02-.77l-.03-.02Zm-3.65,2.12h0s-.02,0-.03,0l-8.69,17.7,4.38-.88.02-.03h0s8.66-17.64,8.66-17.64c-2.57.51-3.75.74-4.33.83Zm0,0h0s-.02,0-.03,0l-8.69,17.7,4.38-.88.02-.03h0s8.66-17.64,8.66-17.64c-2.57.51-3.75.74-4.33.83Zm3.65-2.12l-20.6-12.19-3.95.74h0s-.09.01-.09.01l20.66,12.23c.58-.09,2.36-.44,4.02-.77l-.03-.02Zm0,0l-20.6-12.19-3.95.74h0s-.09.01-.09.01l20.66,12.23c.58-.09,2.36-.44,4.02-.77l-.03-.02Zm-3.65,2.12h0s-.02,0-.03,0l-8.69,17.7,4.38-.88.02-.03h0s8.66-17.64,8.66-17.64c-2.57.51-3.75.74-4.33.83Zm0,0h0s-.02,0-.03,0l-8.69,17.7,4.38-.88.02-.03h0s8.66-17.64,8.66-17.64c-2.57.51-3.75.74-4.33.83Zm3.65-2.12l-20.6-12.19-3.95.74h0s-.09.01-.09.01l20.66,12.23c.58-.09,2.36-.44,4.02-.77l-.03-.02Zm0,0l-20.6-12.19-3.95.74h0s-.09.01-.09.01l20.66,12.23c.58-.09,2.36-.44,4.02-.77l-.03-.02Zm-3.65,2.12h0s-.02,0-.03,0l-8.69,17.7,4.38-.88.02-.03h0s8.66-17.64,8.66-17.64c-2.57.51-3.75.74-4.33.83Zm0,0h0s-.02,0-.03,0l-8.69,17.7,4.38-.88.02-.03h0s8.66-17.64,8.66-17.64c-2.57.51-3.75.74-4.33.83Zm3.65-2.12l-20.6-12.19-3.95.74h0s-.09.01-.09.01l20.66,12.23c.58-.09,2.36-.44,4.02-.77l-.03-.02Zm0,0l-20.6-12.19-3.95.74h0s-.09.01-.09.01l20.66,12.23c.58-.09,2.36-.44,4.02-.77l-.03-.02Zm-3.65,2.12h0s-.02,0-.03,0l-8.69,17.7,4.38-.88.02-.03h0s8.66-17.64,8.66-17.64c-2.57.51-3.75.74-4.33.83Zm0,0h0s-.02,0-.03,0l-8.69,17.7,4.38-.88.02-.03h0s8.66-17.64,8.66-17.64c-2.57.51-3.75.74-4.33.83Zm3.65-2.12l-20.6-12.19-3.95.74h0s-.09.01-.09.01l20.66,12.23c.58-.09,2.36-.44,4.02-.77l-.03-.02Zm0,0l-20.6-12.19-3.95.74h0s-.09.01-.09.01l20.66,12.23c.58-.09,2.36-.44,4.02-.77l-.03-.02Zm-3.65,2.12h0s-.02,0-.03,0l-8.69,17.7,4.38-.88.02-.03h0s8.66-17.64,8.66-17.64c-2.57.51-3.75.74-4.33.83Zm0,0h0s-.02,0-.03,0l-8.69,17.7,4.38-.88.02-.03h0s8.66-17.64,8.66-17.64c-2.57.51-3.75.74-4.33.83Zm3.65-2.12l-20.6-12.19-3.95.74h0s-.09.01-.09.01l20.66,12.23c.58-.09,2.36-.44,4.02-.77l-.03-.02Zm0,0l-20.6-12.19-3.95.74h0s-.09.01-.09.01l20.66,12.23c.58-.09,2.36-.44,4.02-.77l-.03-.02Zm-3.65,2.12h0s-.02,0-.03,0l-8.69,17.7,4.38-.88.02-.03h0s8.66-17.64,8.66-17.64c-2.57.51-3.75.74-4.33.83Zm0,0h0s-.02,0-.03,0l-8.69,17.7,4.38-.88.02-.03h0s8.66-17.64,8.66-17.64c-2.57.51-3.75.74-4.33.83Zm3.65-2.12l-20.6-12.19-3.95.74h0s-.09.01-.09.01l20.66,12.23c.58-.09,2.36-.44,4.02-.77l-.03-.02Zm0,0l-20.6-12.19-3.95.74h0s-.09.01-.09.01l20.66,12.23c.58-.09,2.36-.44,4.02-.77l-.03-.02Zm-3.65,2.12h0s-.02,0-.03,0l-8.69,17.7,4.38-.88.02-.03h0s8.66-17.64,8.66-17.64c-2.57.51-3.75.74-4.33.83Zm0,0h0s-.02,0-.03,0l-8.69,17.7,4.38-.88.02-.03h0s8.66-17.64,8.66-17.64c-2.57.51-3.75.74-4.33.83Zm3.65-2.12l-20.6-12.19-3.95.74h0s-.09.01-.09.01l20.66,12.23c.58-.09,2.36-.44,4.02-.77l-.03-.02Zm408.8,20.72c-.57-1.81-1.8-3.28-3.48-4.15l-31.26-16.25c-.47-.25-.76-.75-.73-1.28,1.3-21.96,3.1-55.33,2.77-58.23-.16-.47-.06-1.01.32-1.39,0-.02.03-.02.05-.04.07-.06.13-.12.2-.16.08-.05.16-.09.24-.11v-.02s.07-3.01.07-3.01v-.06s-101.49,184.03-101.49,184.03c-.61,1.1-1.32,2.11-2.13,3.04-.12.13-.25.26-.36.39-.19.2-.39.39-.59.6-.21.19-.41.38-.62.55-.22.18-.44.36-.65.53-.22.17-.45.34-.67.5-.17.12-.33.23-.51.34-.05.02-.09.05-.14.08-.08.05-.16.09-.23.14-.11.06-.2.12-.31.18-.18.11-.36.21-.55.3-.18.11-.38.2-.56.28-.97.48-2,.84-3.06,1.12-2.97.77-6.01.71-8.86-.15-1.42-.43-2.79-1.04-4.08-1.86-1.25-.78-3.34-2.01-5.89-3.51-.37-.21-.75-.44-1.12-.67-.02,0-.03-.02-.05-.02,0,.19-.05.39-.14.58l-19.63,39.65c1.48.41,2.98.7,4.51.9l92.16,11.77c.29.04.57.06.85.07.14,0,.28.01.42,0,.14,0,.28,0,.42,0,.14,0,.28,0,.42-.02.13,0,.26-.01.39-.03.14,0,.27-.02.4-.05.27-.03.53-.08.8-.13.14-.02.27-.05.4-.09.13-.03.26-.07.39-.1.28-.08.55-.16.82-.27.06-.02.13-.05.2-.07l.04-.02c.13-.05.25-.1.36-.16.01,0,.02,0,.03-.01.06-.02.11-.04.16-.07.09-.03.18-.07.26-.12.12-.06.24-.11.36-.18,0,0,0,0,0,0,.27-.14.53-.29.79-.45.46-.28.91-.61,1.33-.97.23-.18.44-.37.64-.58.11-.1.21-.2.32-.31.68-.74,1.28-1.57,1.76-2.49l74.77-142.66c.87-1.67,1.05-3.59.48-5.39Zm-408.8-20.72l-20.6-12.19-3.95.74h0s-.09.01-.09.01l20.66,12.23c.58-.09,2.36-.44,4.02-.77l-.03-.02Zm-3.65,2.12h0s-.02,0-.03,0l-8.69,17.7,4.38-.88.02-.03h0s8.66-17.64,8.66-17.64c-2.57.51-3.75.74-4.33.83Zm0,0h0s-.02,0-.03,0l-8.69,17.7,4.38-.88.02-.03h0s8.66-17.64,8.66-17.64c-2.57.51-3.75.74-4.33.83Zm3.65-2.12l-20.6-12.19-3.95.74h0s-.09.01-.09.01l20.66,12.23c.58-.09,2.36-.44,4.02-.77l-.03-.02Zm0,0l-20.6-12.19-3.95.74h0s-.09.01-.09.01l20.66,12.23c.58-.09,2.36-.44,4.02-.77l-.03-.02Zm-3.65,2.12h0s-.02,0-.03,0l-8.69,17.7,4.38-.88.02-.03h0s8.66-17.64,8.66-17.64c-2.57.51-3.75.74-4.33.83Zm0,0h0s-.02,0-.03,0l-8.69,17.7,4.38-.88.02-.03h0s8.66-17.64,8.66-17.64c-2.57.51-3.75.74-4.33.83Zm3.65-2.12l-20.6-12.19-3.95.74h0s-.09.01-.09.01l20.66,12.23c.58-.09,2.36-.44,4.02-.77l-.03-.02Zm0,0l-20.6-12.19-3.95.74h0s-.09.01-.09.01l20.66,12.23c.58-.09,2.36-.44,4.02-.77l-.03-.02Zm-3.65,2.12h0s-.02,0-.03,0l-8.69,17.7,4.38-.88.02-.03h0s8.66-17.64,8.66-17.64c-2.57.51-3.75.74-4.33.83Zm0,0h0s-.02,0-.03,0l-8.69,17.7,4.38-.88.02-.03h0s8.66-17.64,8.66-17.64c-2.57.51-3.75.74-4.33.83Zm3.65-2.12l-20.6-12.19-3.95.74h0s-.09.01-.09.01l20.66,12.23c.58-.09,2.36-.44,4.02-.77l-.03-.02Zm-3.65,2.12h0s-.02,0-.03,0l-8.69,17.7,4.38-.88.02-.03h0s8.66-17.64,8.66-17.64c-2.57.51-3.75.74-4.33.83Zm3.65-2.12l-20.6-12.19-3.95.74h0s-.09.01-.09.01l20.66,12.23c.58-.09,2.36-.44,4.02-.77l-.03-.02Zm-3.65,2.12h0s-.02,0-.03,0l-8.69,17.7,4.38-.88.02-.03h0s8.66-17.64,8.66-17.64c-2.57.51-3.75.74-4.33.83Zm3.65-2.12l-20.6-12.19-3.95.74h0s-.09.01-.09.01l20.66,12.23c.58-.09,2.36-.44,4.02-.77l-.03-.02Zm0,0l-20.6-12.19-3.95.74h0s-.09.01-.09.01l20.66,12.23c.58-.09,2.36-.44,4.02-.77l-.03-.02Zm-3.65,2.12h0s-.02,0-.03,0l-8.69,17.7,4.38-.88.02-.03h0s8.66-17.64,8.66-17.64c-2.57.51-3.75.74-4.33.83Zm0,0h0s-.02,0-.03,0l-8.69,17.7,4.38-.88.02-.03h0s8.66-17.64,8.66-17.64c-2.57.51-3.75.74-4.33.83Zm3.65-2.12l-20.6-12.19-3.95.74h0s-.09.01-.09.01l20.66,12.23c.58-.09,2.36-.44,4.02-.77l-.03-.02Zm0,0l-20.6-12.19-3.95.74h0s-.09.01-.09.01l20.66,12.23c.58-.09,2.36-.44,4.02-.77l-.03-.02Zm-3.65,2.12h0s-.02,0-.03,0l-8.69,17.7,4.38-.88.02-.03h0s8.66-17.64,8.66-17.64c-2.57.51-3.75.74-4.33.83Zm144.52,78.87l-8.52,17.33,2.73,1.51,7.26-14.79c-.52-1.48-1.09-3.04-1.48-4.05Zm1.45-.03c.3.79.69,1.88,1.24,3.42l58.27,31.91.91-1.85-60.42-33.48Zm58.97,36.43l-57.91-31.72-7.24,14.76-.02.03,57.8,32.08,7.43-15.12-.06-.03Zm-204.94-115.27h0s-.02,0-.03,0l-8.69,17.7,4.38-.88.02-.03h0s8.66-17.64,8.66-17.64c-2.57.51-3.75.74-4.33.83Zm3.68-2.09l-.03-.02-20.6-12.19-3.95.74h0s-.09.01-.09.01l20.66,12.23c.58-.09,2.36-.44,4.02-.77Zm142.29,80.93c.3.79.69,1.88,1.24,3.42l58.27,31.91.91-1.85-60.42-33.48Zm1.06,4.7l-7.24,14.76-.02.03,57.8,32.08,7.43-15.12-.06-.03-57.91-31.72Zm-2.52-4.67l-8.52,17.33,2.73,1.51,7.26-14.79c-.52-1.48-1.09-3.04-1.48-4.05Zm79.1,24.33c-.39-.09-.78-.2-1.17-.31-1.1-.33-2.19-.78-3.25-1.36l-245.1-133.28-.03-.02c-.03.07-.05.14-.09.21l-19.47,40.57,267.16,148.04c1.52.84,3.09,1.56,4.71,2.14l.02-.05,19.8-39.97c.11-.2.24-.37.41-.5.04-.02.07-.05.11-.08-8.57-5.07-19.39-11.61-23.12-15.39Zm-79.36-26.87l.62.35,63.29,35.08-10.03,20.43-.62-.35-63.3-35.08,10.03-20.43Zm-167.72-90.5c.05-.09.11-.16.19-.22,0,0,0,0,0,0l.03-.02s.02-.03.04-.03c0,0,.01,0,.02,0,.03-.02.08-.04.12-.06,0,0,0-.01.01-.01.05-.02.11-.04.18-.07l5.92-1.11c.16-.03.33-.02.47.08l22.37,13.25s.08.05.11.09c.02.02.04.04.06.06.03.02.05.05.07.09.02.03.03.06.05.1.02.05.03.1.04.15,0,.05.01.1,0,.16,0,0,0,.01,0,.02,0,.05-.02.11-.05.16,0,.04-.02.07-.04.1l-9.4,19.15c-.04.08-.1.15-.17.21-.03.03-.06.05-.11.07-.06.05-.12.08-.2.09l-5.85,1.17c-.08.02-.15.02-.23,0-.09.02-.19.01-.28-.02-.05-.02-.1-.04-.15-.07l-22.37-13.24c-.32-.18-.42-.57-.26-.89l9.42-19.21Zm228.94,128.34l.91-1.85-60.42-33.48c.3.79.69,1.88,1.24,3.42l58.27,31.91Zm-.53,1.09l-57.91-31.72-7.24,14.76-.02.03,57.8,32.08,7.43-15.12-.06-.03Zm-60.43-36.4l-8.52,17.33,2.73,1.51,7.26-14.79c-.52-1.48-1.09-3.04-1.48-4.05Zm-144.52-78.87s-.02,0-.03,0l-8.69,17.7,4.38-.88.02-.03h0s8.66-17.64,8.66-17.64c-2.57.51-3.75.74-4.33.83h0Zm3.69-2.09l-.03-.02-20.6-12.19-3.95.74h0s-.09.01-.09.01l20.66,12.23c.58-.09,2.36-.44,4.02-.77Zm140.84,80.96l-8.52,17.33,2.73,1.51,7.26-14.79c-.52-1.48-1.09-3.04-1.48-4.05Zm1.45-.03c.3.79.69,1.88,1.24,3.42l58.27,31.91.91-1.85-60.42-33.48Zm58.97,36.43l-57.91-31.72-7.24,14.76-.02.03,57.8,32.08,7.43-15.12-.06-.03Zm-201.3-117.38l-20.6-12.19-3.95.74h0s-.09.01-.09.01l20.66,12.23c.58-.09,2.36-.44,4.02-.77l-.03-.02Zm-3.65,2.12h0s-.02,0-.03,0l-8.69,17.7,4.38-.88.02-.03h0s8.66-17.64,8.66-17.64c-2.57.51-3.75.74-4.33.83Zm204.94,115.27l-57.91-31.72-7.24,14.76-.02.03,57.8,32.08,7.43-15.12-.06-.03Zm-58.97-36.43c.3.79.69,1.88,1.24,3.42l58.27,31.91.91-1.85-60.42-33.48Zm-1.45.03l-8.52,17.33,2.73,1.51,7.26-14.79c-.52-1.48-1.09-3.04-1.48-4.05Zm-144.52-78.87h0s-.02,0-.03,0l-8.69,17.7,4.38-.88.02-.03h0s8.66-17.64,8.66-17.64c-2.57.51-3.75.74-4.33.83Zm3.65-2.12l-20.6-12.19-3.95.74h0s-.09.01-.09.01l20.66,12.23c.58-.09,2.36-.44,4.02-.77l-.03-.02Zm0,0l-20.6-12.19-3.95.74h0s-.09.01-.09.01l20.66,12.23c.58-.09,2.36-.44,4.02-.77l-.03-.02Zm-3.65,2.12h0s-.02,0-.03,0l-8.69,17.7,4.38-.88.02-.03h0s8.66-17.64,8.66-17.64c-2.57.51-3.75.74-4.33.83Zm0,0h0s-.02,0-.03,0l-8.69,17.7,4.38-.88.02-.03h0s8.66-17.64,8.66-17.64c-2.57.51-3.75.74-4.33.83Zm3.65-2.12l-20.6-12.19-3.95.74h0s-.09.01-.09.01l20.66,12.23c.58-.09,2.36-.44,4.02-.77l-.03-.02Zm0,0l-20.6-12.19-3.95.74h0s-.09.01-.09.01l20.66,12.23c.58-.09,2.36-.44,4.02-.77l-.03-.02Zm-3.65,2.12h0s-.02,0-.03,0l-8.69,17.7,4.38-.88.02-.03h0s8.66-17.64,8.66-17.64c-2.57.51-3.75.74-4.33.83Zm3.65-2.12l-20.6-12.19-3.95.74h0s-.09.01-.09.01l20.66,12.23c.58-.09,2.36-.44,4.02-.77l-.03-.02Zm-3.65,2.12h0s-.02,0-.03,0l-8.69,17.7,4.38-.88.02-.03h0s8.66-17.64,8.66-17.64c-2.57.51-3.75.74-4.33.83Zm3.65-2.12l-20.6-12.19-3.95.74h0s-.09.01-.09.01l20.66,12.23c.58-.09,2.36-.44,4.02-.77l-.03-.02Zm-3.65,2.12h0s-.02,0-.03,0l-8.69,17.7,4.38-.88.02-.03h0s8.66-17.64,8.66-17.64c-2.57.51-3.75.74-4.33.83Zm0,0h0s-.02,0-.03,0l-8.69,17.7,4.38-.88.02-.03h0s8.66-17.64,8.66-17.64c-2.57.51-3.75.74-4.33.83Zm3.65-2.12l-20.6-12.19-3.95.74h0s-.09.01-.09.01l20.66,12.23c.58-.09,2.36-.44,4.02-.77l-.03-.02Zm0,0l-20.6-12.19-3.95.74h0s-.09.01-.09.01l20.66,12.23c.58-.09,2.36-.44,4.02-.77l-.03-.02Zm-3.65,2.12h0s-.02,0-.03,0l-8.69,17.7,4.38-.88.02-.03h0s8.66-17.64,8.66-17.64c-2.57.51-3.75.74-4.33.83Zm0,0h0s-.02,0-.03,0l-8.69,17.7,4.38-.88.02-.03h0s8.66-17.64,8.66-17.64c-2.57.51-3.75.74-4.33.83Zm3.65-2.12l-20.6-12.19-3.95.74h0s-.09.01-.09.01l20.66,12.23c.58-.09,2.36-.44,4.02-.77l-.03-.02Zm0,0l-20.6-12.19-3.95.74h0s-.09.01-.09.01l20.66,12.23c.58-.09,2.36-.44,4.02-.77l-.03-.02Zm-3.65,2.12h0s-.02,0-.03,0l-8.69,17.7,4.38-.88.02-.03h0s8.66-17.64,8.66-17.64c-2.57.51-3.75.74-4.33.83Zm0,0h0s-.02,0-.03,0l-8.69,17.7,4.38-.88.02-.03h0s8.66-17.64,8.66-17.64c-2.57.51-3.75.74-4.33.83Zm3.65-2.12l-20.6-12.19-3.95.74h0s-.09.01-.09.01l20.66,12.23c.58-.09,2.36-.44,4.02-.77l-.03-.02Zm0,0l-20.6-12.19-3.95.74h0s-.09.01-.09.01l20.66,12.23c.58-.09,2.36-.44,4.02-.77l-.03-.02Zm-3.65,2.12h0s-.02,0-.03,0l-8.69,17.7,4.38-.88.02-.03h0s8.66-17.64,8.66-17.64c-2.57.51-3.75.74-4.33.83Zm0,0h0s-.02,0-.03,0l-8.69,17.7,4.38-.88.02-.03h0s8.66-17.64,8.66-17.64c-2.57.51-3.75.74-4.33.83Zm3.65-2.12l-20.6-12.19-3.95.74h0s-.09.01-.09.01l20.66,12.23c.58-.09,2.36-.44,4.02-.77l-.03-.02Zm0,0l-20.6-12.19-3.95.74h0s-.09.01-.09.01l20.66,12.23c.58-.09,2.36-.44,4.02-.77l-.03-.02Zm-3.65,2.12h0s-.02,0-.03,0l-8.69,17.7,4.38-.88.02-.03h0s8.66-17.64,8.66-17.64c-2.57.51-3.75.74-4.33.83Zm0,0h0s-.02,0-.03,0l-8.69,17.7,4.38-.88.02-.03h0s8.66-17.64,8.66-17.64c-2.57.51-3.75.74-4.33.83Zm3.65-2.12l-20.6-12.19-3.95.74h0s-.09.01-.09.01l20.66,12.23c.58-.09,2.36-.44,4.02-.77l-.03-.02Zm0,0l-20.6-12.19-3.95.74h0s-.09.01-.09.01l20.66,12.23c.58-.09,2.36-.44,4.02-.77l-.03-.02Zm-3.65,2.12h0s-.02,0-.03,0l-8.69,17.7,4.38-.88.02-.03h0s8.66-17.64,8.66-17.64c-2.57.51-3.75.74-4.33.83Zm0,0h0s-.02,0-.03,0l-8.69,17.7,4.38-.88.02-.03h0s8.66-17.64,8.66-17.64c-2.57.51-3.75.74-4.33.83Zm3.65-2.12l-20.6-12.19-3.95.74h0s-.09.01-.09.01l20.66,12.23c.58-.09,2.36-.44,4.02-.77l-.03-.02Zm0,0l-20.6-12.19-3.95.74h0s-.09.01-.09.01l20.66,12.23c.58-.09,2.36-.44,4.02-.77l-.03-.02Zm-3.65,2.12h0s-.02,0-.03,0l-8.69,17.7,4.38-.88.02-.03h0s8.66-17.64,8.66-17.64c-2.57.51-3.75.74-4.33.83Zm0,0h0s-.02,0-.03,0l-8.69,17.7,4.38-.88.02-.03h0s8.66-17.64,8.66-17.64c-2.57.51-3.75.74-4.33.83Zm3.65-2.12l-20.6-12.19-3.95.74h0s-.09.01-.09.01l20.66,12.23c.58-.09,2.36-.44,4.02-.77l-.03-.02Zm0,0l-20.6-12.19-3.95.74h0s-.09.01-.09.01l20.66,12.23c.58-.09,2.36-.44,4.02-.77l-.03-.02Zm-3.65,2.12h0s-.02,0-.03,0l-8.69,17.7,4.38-.88.02-.03h0s8.66-17.64,8.66-17.64c-2.57.51-3.75.74-4.33.83Zm0,0h0s-.02,0-.03,0l-8.69,17.7,4.38-.88.02-.03h0s8.66-17.64,8.66-17.64c-2.57.51-3.75.74-4.33.83Zm3.65-2.12l-20.6-12.19-3.95.74h0s-.09.01-.09.01l20.66,12.23c.58-.09,2.36-.44,4.02-.77l-.03-.02Zm0,0l-20.6-12.19-3.95.74h0s-.09.01-.09.01l20.66,12.23c.58-.09,2.36-.44,4.02-.77l-.03-.02Zm-3.65,2.12h0s-.02,0-.03,0l-8.69,17.7,4.38-.88.02-.03h0s8.66-17.64,8.66-17.64c-2.57.51-3.75.74-4.33.83Zm0,0h0s-.02,0-.03,0l-8.69,17.7,4.38-.88.02-.03h0s8.66-17.64,8.66-17.64c-2.57.51-3.75.74-4.33.83Zm3.65-2.12l-20.6-12.19-3.95.74h0s-.09.01-.09.01l20.66,12.23c.58-.09,2.36-.44,4.02-.77l-.03-.02Zm0,0l-20.6-12.19-3.95.74h0s-.09.01-.09.01l20.66,12.23c.58-.09,2.36-.44,4.02-.77l-.03-.02Zm-3.65,2.12h0s-.02,0-.03,0l-8.69,17.7,4.38-.88.02-.03h0s8.66-17.64,8.66-17.64c-2.57.51-3.75.74-4.33.83Zm0,0h0s-.02,0-.03,0l-8.69,17.7,4.38-.88.02-.03h0s8.66-17.64,8.66-17.64c-2.57.51-3.75.74-4.33.83Zm3.65-2.12l-20.6-12.19-3.95.74h0s-.09.01-.09.01l20.66,12.23c.58-.09,2.36-.44,4.02-.77l-.03-.02Zm-3.65,2.12h0s-.02,0-.03,0l-8.69,17.7,4.38-.88.02-.03h0s8.66-17.64,8.66-17.64c-2.57.51-3.75.74-4.33.83Zm0,0h0s-.02,0-.03,0l-8.69,17.7,4.38-.88.02-.03h0s8.66-17.64,8.66-17.64c-2.57.51-3.75.74-4.33.83Z"/><path class="cls-7" d="m1544.8,214.68c.14-1.59-.04-3.2-.53-4.78-1.03-3.36-3.33-6.06-6.48-7.61l-23.6-11.65-1-.5-1.01-.5-2.62-1.29-1.09-.55-1.09-.54-249.49-123.17c-.64-.32-1.29-.58-1.97-.78-5.49-1.64-11.59.64-14.57,5.73l-78.04,133.35-.57.97h0s-.57.98-.57.98l-2.31,3.95-.69,1.19-.7,1.19-42.63,72.85c-1.51,2.59-1.91,5.62-1.11,8.5.81,2.9,2.7,5.28,5.34,6.71l30.81,16.75,246.41,133.99c2.45,1.33,5.13,1.88,7.75,1.71,4.76-.29,9.29-2.91,11.78-7.32l100.41-177.97,25.99-46.07c.91-1.62,1.45-3.38,1.6-5.17Zm-39.81,14.29l-22.71,40.26-81.25,144.01c-3.29,5.83-10.21,8.45-16.41,6.6-.91-.27-1.81-.65-2.67-1.12l-219.15-119.17h0s-8.85-4.82-8.85-4.82c-2.71-1.47-4.65-3.92-5.48-6.89s-.42-6.06,1.13-8.71l103.24-176.41c3.34-5.7,10.59-7.86,16.52-4.95l230.22,113.67c3.15,1.55,5.44,4.24,6.48,7.59,1.04,3.35.66,6.88-1.07,9.94Z"/><path class="cls-1" d="m1591.8,368.13c-.79-2.5-2.49-4.54-4.82-5.75l-30.48-15.84c3.41-57.76,2.78-58.37,2.24-58.92-.39-.38-.95-.48-1.43-.3-.02.01-.04.02-.06.02v.02c-.08.03-.16.07-.24.11-.06.04-.13.1-.2.16-.37.38-.48.92-.32,1.4.34,2.89-1.47,36.27-2.76,58.23-.03.53.25,1.03.73,1.28l31.26,16.25c1.69.88,2.92,2.35,3.48,4.15.57,1.81.4,3.72-.47,5.4l-74.77,142.66c-.49.94-1.11,1.79-1.81,2.53-.1.11-.21.21-.32.31-.2.21-.41.4-.64.58-.42.36-.86.69-1.33.97-.26.16-.52.31-.79.45,0,0,0,0,0,0-.12.06-.24.12-.36.18-.08.05-.17.09-.26.12-.06.02-.11.05-.16.07-.01,0-.02.01-.03.01-.06.04-.13.07-.2.09-.06.03-.11.05-.17.07-.01.01-.03.02-.04.02-.06.03-.13.06-.2.07-.27.1-.54.19-.82.27-.13.04-.26.07-.39.1-.13.04-.26.07-.4.09-.26.06-.53.1-.8.13-.14.02-.27.04-.4.05-.13.02-.26.02-.39.03-.14,0-.28.02-.42.02-.14,0-.28,0-.42,0-.14,0-.28,0-.42,0-.28-.01-.56-.04-.85-.07l-92.16-11.77c-1.53-.2-3.03-.49-4.51-.9l19.63-39.65c.09-.19.14-.39.14-.58.02,0,.03.02.05.02v-.07c.4.24.8.47,1.18.7,2.54,1.51,4.63,2.74,5.88,3.52,1.29.81,2.67,1.43,4.08,1.85,2.86.86,5.89.92,8.86.15,1.05-.27,2.05-.63,3.01-1.08.18-.09.37-.19.56-.28.18-.1.37-.2.55-.3.11-.06.21-.12.31-.18.07-.05.15-.1.23-.14.04-.03.09-.06.14-.08.18-.11.34-.22.51-.34.22-.16.45-.33.67-.5.22-.17.44-.35.65-.53.2-.18.41-.36.62-.55.2-.21.4-.4.59-.6.12-.12.25-.26.36-.39.8-.93,1.52-1.94,2.13-3.04l101.5-184.03v.06s.05-.1.05-.1h0s14.63-26.54,14.63-26.54c3.16-5.71,2.66-12.77-1.26-17.98-7.72-10.27-24.81-33.41-25.49-34.4l-.11.08c-1.48-2.36-3.59-4.27-6.17-5.54l-23.41-11.56-1-.5-1.01-.5-3.85-1.9-1.09-.53-1.09-.55-248.45-122.67c-7.23-3.57-16.02-.91-20.08,6.02l-77.86,133.03-.57.98-.56.98-3.49,5.96-.7,1.18-.72,1.23-41.63,71.13c-1.89,3.23-2.38,7-1.37,10.6,1,3.6,3.37,6.58,6.66,8.36l29.75,16.18c-.08.09-.15.18-.2.29l-20.03,41.72c-.31.65-.06,1.43.56,1.77l268.29,148.66c2.25,1.26,4.61,2.24,7.05,2.97,1.87.56,3.78.98,5.73,1.22l92.16,11.77c5.82.75,11.57-2.25,14.29-7.45l74.77-142.66c1.21-2.32,1.45-4.97.67-7.46Zm-44.27-155.13c5.78,7.84,15.69,21.22,21.07,28.36,3.28,4.36,3.68,10.26,1.05,15.04l-12.12,21.96-104.01,188.6c-1.87,3.38-4.95,5.78-8.69,6.74-3.73.96-7.58.36-10.83-1.67-1.26-.78-3.38-2.04-5.95-3.55-6.85-4.04-17.45-10.29-23.05-14.56,5.71-.3,11.17-3.41,14.16-8.71l101.33-179.62,25.06-44.42c1.44-2.54,2.1-5.35,1.98-8.18Zm-427.48,85.75c-2.64-1.44-4.53-3.82-5.34-6.72-.8-2.88-.41-5.9,1.11-8.5l42.64-72.85.7-1.19.69-1.19,2.31-3.95.57-.98h0s.57-.98.57-.98l78.04-133.34c2.98-5.09,9.08-7.38,14.58-5.73.66.2,1.32.46,1.97.78l249.49,123.18,1.09.53,1.09.55,2.62,1.29,1.01.5,1,.49,23.59,11.65c3.15,1.56,5.46,4.25,6.49,7.61.49,1.58.67,3.19.53,4.78-.14,1.79-.68,3.54-1.6,5.16l-25.99,46.07-100.41,177.98c-2.49,4.42-7.02,7.03-11.78,7.32-2.62.16-5.31-.38-7.75-1.71l-246.4-133.99-30.81-16.75Zm283.1,210.78h-.03s-.02.04-.02.04c-1.62-.59-3.19-1.3-4.71-2.14l-267.16-148.04,19.47-40.57c.03-.07.06-.14.09-.21l.03.02s.02-.04.03-.06l245.13,133.31c1.06.58,2.15,1.03,3.25,1.36.39.12.78.22,1.16.31,3.74,3.78,14.55,10.33,23.13,15.4-.02.01-.04.02-.06.04-.04.02-.08.05-.11.08-.15.12-.27.28-.36.46l-19.82,40.02Z"/><path class="cls-2" d="m1503.92,219.63c-.85-2.76-2.75-4.98-5.33-6.26l-230.23-113.67c-.53-.26-1.07-.47-1.61-.64-4.52-1.35-9.54.53-11.99,4.72l-103.25,176.4c-1.25,2.13-1.57,4.62-.91,7,.66,2.38,2.22,4.35,4.4,5.52l11.76,6.4,216.23,117.59c5.69,3.08,12.89,1.02,16.08-4.61l80.48-142.66,23.48-41.61c1.42-2.52,1.73-5.42.88-8.18Zm-109.09,179.19c-3.1,5.5-10.05,7.49-15.59,4.47l-194.7-105.87-7.45-4.05c-4.47-2.43-6.04-8.08-3.47-12.47l91.53-156.41c2.71-4.63,8.54-6.38,13.36-4l204.12,100.78c5.26,2.59,7.25,9.07,4.37,14.18l-19.83,35.15-72.34,128.22Z"/><path class="cls-1" d="m1506.06,219.03c-1.03-3.35-3.33-6.05-6.48-7.59l-230.22-113.67c-5.93-2.91-13.18-.75-16.52,4.95l-103.24,176.41c-1.55,2.65-1.95,5.75-1.13,8.71s2.77,5.42,5.48,6.89l8.85,4.81h0s219.15,119.17,219.15,119.17c.86.47,1.76.84,2.67,1.12,6.19,1.86,13.12-.76,16.41-6.6l81.25-144.01,22.71-40.26c1.72-3.06,2.11-6.59,1.07-9.94Zm-3.01,8.84l-23.48,41.61-80.48,142.66c-3.19,5.64-10.4,7.69-16.08,4.61l-216.23-117.59-11.76-6.4c-2.18-1.18-3.74-3.14-4.4-5.52-.66-2.37-.34-4.86.91-7l103.25-176.4c2.45-4.19,7.47-6.07,11.99-4.72.55.16,1.09.38,1.61.64l230.23,113.67c2.58,1.28,4.48,3.5,5.33,6.26.85,2.76.54,5.66-.88,8.18Z"/><path class="cls-9" d="m1483.31,239.47l-17.53,31.3-7.13,12.74-64.6,114.49c-.34.6-.72,1.15-1.15,1.66-3.5,3.16-8.76,3.94-13.15,1.57l-192.89-104-4.17-2.25c-2.54-2.72-3.11-6.88-1.14-10.26l87.94-150.25c2.6-4.45,8.2-6.13,12.83-3.85l196.09,96.81c4.51,2.23,6.53,7.45,4.92,12.03Z"/><path class="cls-1" d="m1482.64,221.33l-204.12-100.78c-4.82-2.38-10.64-.62-13.36,4l-91.53,156.41c-2.57,4.39-1,10.03,3.47,12.47l7.45,4.05,194.7,105.87c5.54,3.02,12.49,1.02,15.59-4.47l72.34-128.22,19.83-35.15c2.88-5.11.89-11.58-4.37-14.18Zm.65,18.16c-.18.54-.42,1.08-.72,1.59l-16.76,29.71-7.19,12.75-64.6,114.49c-.34.6-.72,1.15-1.15,1.66-3.5,3.16-8.76,3.94-13.15,1.57l-192.89-104-4.17-2.25c-2.54-2.72-3.11-6.88-1.14-10.26l87.94-150.25c2.6-4.45,8.2-6.13,12.83-3.85l196.09,96.81c4.51,2.23,6.53,7.45,4.92,12.03Z"/><path class="cls-1" d="m1398.45,507.38l-267.17-148.04,19.47-40.57s.04-.1.06-.15l-.03-.02c-.02.07-.05.14-.08.21l-19.47,40.57,267.17,148.04c1.52.84,3.09,1.56,4.71,2.15l.02-.05c-1.6-.59-3.17-1.3-4.68-2.14Zm158.89-223.1l-101.49,184.03c-.61,1.1-1.33,2.12-2.13,3.04.83-.93,1.56-1.96,2.19-3.08l101.43-183.93h0s0-.06,0-.06Zm-.08,3.07c-.09.03-.16.08-.24.13.08-.05.15-.09.24-.12h0Zm-54.85,235.67l-92.16-11.77c-1.53-.2-3.03-.49-4.51-.9l19.63-39.65c.08-.17.12-.34.13-.51-.02-.01-.03-.02-.05-.03,0,.19-.05.39-.14.58l-19.63,39.65c1.48.41,2.98.7,4.51.9l92.16,11.77c2.67.34,5.33-.29,7.52-1.67-2.19,1.35-4.82,1.97-7.46,1.63Z"/><path class="cls-7" d="m1569.66,256.4l-12.11,21.96-104.01,188.61c-1.87,3.38-4.95,5.78-8.69,6.74-3.73.96-7.58.36-10.83-1.68-1.26-.79-3.38-2.04-5.95-3.55-6.85-4.04-17.45-10.29-23.05-14.55,5.71-.3,11.17-3.41,14.16-8.71l101.34-179.62,25.06-44.42c1.44-2.54,2.1-5.35,1.98-8.18,5.78,7.84,15.69,21.22,21.06,28.35,3.28,4.36,3.69,10.26,1.06,15.04Z"/><path class="cls-7" d="m1180.45,348.25c-1.67.33-3.44.68-4.02.77l-20.66-12.23,4.05-.76,20.63,12.21Z"/><path class="cls-7" d="m1181.1,349.51l-8.68,17.66-4.38.88,8.7-17.71c.56-.09,1.74-.31,4.37-.83Z"/><path class="cls-1" d="m1182.98,348.47c0-.05-.02-.1-.04-.15-.01-.03-.03-.07-.05-.1-.02-.04-.04-.07-.06-.09-.02-.02-.04-.04-.06-.06-.03-.04-.07-.06-.11-.09l-22.37-13.25c-.15-.1-.31-.11-.47-.09l-5.92,1.11c-.07.01-.13.04-.18.07,0,0,0,0-.02,0-.17.05-.31.18-.4.34l-9.43,19.21c-.16.32-.05.7.26.89l22.37,13.24s.1.06.15.07c.09.03.19.03.28.02.08.02.16.02.23,0l5.85-1.17c.2-.04.38-.18.48-.37l9.4-19.14s.04-.06.04-.1c.03-.05.05-.11.05-.17,0,0,0-.01,0-.02,0-.06,0-.11,0-.16Zm-23.16-12.44l20.63,12.21c-1.67.33-3.44.68-4.02.77l-20.66-12.23,4.05-.76Zm6.8,31.85l-.05.1-21.2-12.55,8.83-18,.3.17,20.91,12.38-8.78,17.9Zm5.8-.71l-4.38.88,8.7-17.71c.56-.09,1.74-.31,4.37-.83l-8.68,17.66Z"/><polygon class="cls-7" points="1175.4 349.98 1166.62 367.88 1166.57 367.98 1145.37 355.43 1154.19 337.43 1154.49 337.6 1175.4 349.98"/><path class="cls-1" d="m1182.98,348.47c0-.05-.02-.1-.04-.15.02.03.03.07.04.11,0,.01,0,.03,0,.04Z"/><path class="cls-1" d="m1381.66,465.64l-7.4,15.05-57.75-32-.02.03,57.8,32.08,7.43-15.12-.06-.03Z"/><path class="cls-1" d="m1321.59,427.06l-.62-.35-10.03,20.43,63.3,35.08.62.35,10.03-20.43-63.29-35.08Zm60.13,38.61l-7.43,15.12-57.8-32.08.02-.03,7.24-14.76,57.91,31.72.06.03Zm1.38-2.97l-.91,1.85-58.27-31.91c-.54-1.54-.94-2.63-1.24-3.42l60.42,33.48Zm-61.87-33.46c.39,1.01.96,2.57,1.48,4.05l-7.26,14.79-2.73-1.51,8.52-17.33Z"/><polygon class="cls-6" points="1381.73 465.68 1374.29 480.79 1316.5 448.71 1316.51 448.69 1323.75 433.92 1381.66 465.64 1381.73 465.68"/><path class="cls-1" d="m1361.94,300.4c-.18-.05-.34-.18-.43-.37-2.88-6.36-8.09-12.24-15.07-17-6.82-4.66-21.04-5.15-21.18-5.15-.38-.02-.67-.32-.66-.7.01-.37.33-.67.7-.66.6.02,14.75.5,21.91,5.39,7.18,4.9,12.55,10.97,15.54,17.56.15.34,0,.74-.34.9-.15.07-.32.08-.47.03Z"/><path class="cls-3" d="m1285.77,234.36c-.09.25-.18.5-.27.76.08-.25.18-.5.27-.76Z"/><polygon class="cls-1" points="1286.15 235.34 1284.87 234.9 1285.13 234.13 1286.41 234.58 1286.15 235.34"/><path class="cls-1" d="m1299.64,251.59l1.59.15s-.11-3.25,1.77-8.59c1.87-5.34,7.87-9.27,7.87-9.27l12.79-.72s-8.38-6.86-6.64-11.54c1.23-3.31,8.8-10.05,13.77-13.63-.79-.72-1.63-1.39-2.57-1.94-11.15-6.5-28.35,2.24-38.41,19.51-.97,1.66-1.76,3.34-2.52,5.02.82-1.87,1.75-3.74,2.82-5.58,10.06-17.27,27.26-26,38.41-19.51,11.15,6.5,12.04,25.77,1.98,43.04-4.45,7.64-10.29,13.59-16.39,17.31-3.23-5.58-7.91-10.47-13.94-13.98-.17-.1-.35-.17-.52-.27Z"/><path class="cls-1" d="m1313.87,266.79l-.35-.6c-3.29-5.68-8.02-10.43-13.7-13.74-.08-.04-.16-.08-.24-.12l-.27-.14-2.86-1.57,4.11.39c.08-1.28.4-4.11,1.79-8.07,1.93-5.49,7.89-9.45,8.14-9.61l.15-.1h.18s11.15-.64,11.15-.64c-2.35-2.21-7.05-7.26-5.6-11.19,1.27-3.42,8.45-9.82,13.32-13.44-.64-.53-1.23-.96-1.83-1.31-5.21-3.03-11.93-2.71-18.97.86-7.14,3.63-13.72,10.16-18.52,18.4-.99,1.7-1.8,3.45-2.49,4.96l-1.24-.56c.91-2.06,1.84-3.91,2.86-5.65,4.93-8.46,11.7-15.19,19.07-18.93,7.46-3.79,14.67-4.08,20.27-.82,11.46,6.68,12.46,26.4,2.22,43.96-4.31,7.41-10.22,13.65-16.62,17.55l-.59.36Zm-11.95-14.64c5.05,3.24,9.32,7.62,12.42,12.76,5.99-3.81,11.5-9.72,15.58-16.71,8.81-15.13,9.12-31.84,1.35-39.7l-.08.06c-4.79,3.45-12.37,10.18-13.53,13.32-1.29,3.47,4.21,8.96,6.43,10.78l1.35,1.1-14.34.8c-.91.63-5.85,4.22-7.46,8.83-1.8,5.13-1.73,8.31-1.73,8.34l.02.42Z"/><path class="cls-1" d="m1283.04,246.68c.27-3.72,1.09-7.6,2.47-11.56-1.33,3.96-2.09,7.87-2.31,11.58-.05,0-.1-.01-.15-.01Z"/><path class="cls-1" d="m1282.47,247.32l-.1-.69c.28-3.82,1.12-7.77,2.5-11.74l1.28.44c-1.28,3.85-2.05,7.68-2.28,11.41l-.04.68-1.36-.1Z"/><path class="cls-1" d="m1287.28,230.59c-.56,1.26-1.07,2.52-1.51,3.77.46-1.26.94-2.51,1.51-3.77Z"/><path class="cls-1" d="m1286.41,234.59l-1.28-.46c.22-.64.47-1.28.74-1.96.24-.62.51-1.24.79-1.87l1.24.55c-.28.63-.53,1.23-.76,1.81-.26.66-.5,1.3-.72,1.92Z"/><path class="cls-8" d="m1328.21,206.06c.94.55,1.78,1.22,2.57,1.94-4.97,3.58-12.54,10.32-13.77,13.63-1.74,4.68,6.64,11.54,6.64,11.54l-12.79.72s-6,3.93-7.87,9.27c-1.88,5.34-1.77,8.59-1.77,8.59l-1.59-.15c-5.24-2.95-10.85-4.54-16.44-4.9.23-3.7.98-7.61,2.31-11.58.09-.25.17-.5.27-.76.44-1.26.95-2.52,1.51-3.77.76-1.68,1.55-3.36,2.52-5.02,10.06-17.27,27.26-26,38.41-19.51Z"/><path class="cls-1" d="m1282.48,247.33l.04-.68c.24-3.84,1.02-7.79,2.35-11.75l.27-.78c.42-1.19.92-2.44,1.52-3.82.7-1.55,1.53-3.33,2.56-5.08,4.93-8.46,11.7-15.19,19.07-18.93,7.46-3.79,14.64-4.09,20.27-.82h0c.88.51,1.73,1.15,2.69,2.02l.62.56-.68.49c-4.79,3.45-12.37,10.18-13.53,13.32-1.29,3.47,4.21,8.96,6.43,10.78l1.35,1.1-14.34.8c-.91.63-5.85,4.22-7.46,8.83-1.8,5.13-1.73,8.31-1.73,8.34l.02.77-2.5-.23-.12-.07c-5.03-2.83-10.47-4.45-16.15-4.81l-.67-.04Zm9.44.24c2.73.82,5.38,1.94,7.93,3.36l.72.07c.08-1.28.4-4.11,1.79-8.07,1.93-5.49,7.89-9.45,8.14-9.61l.15-.1h.18s11.15-.64,11.15-.64c-2.35-2.21-7.05-7.26-5.6-11.19,1.27-3.42,8.45-9.82,13.32-13.44-.64-.53-1.23-.96-1.83-1.31h0c-5.21-3.03-11.93-2.71-18.97.86-7.14,3.63-13.72,10.16-18.52,18.4-.99,1.7-1.8,3.45-2.49,4.96-.59,1.33-1.07,2.55-1.48,3.72l-.26.75c-1.21,3.61-1.96,7.22-2.23,10.73,2.73.22,5.4.72,8,1.5Z"/><path class="cls-1" d="m1315,270.61c-.18-.05-.34-.18-.43-.37-2.88-6.36-8.09-12.23-15.07-17-6.82-4.66-21.04-5.15-21.18-5.15-.38-.02-.67-.32-.66-.7.01-.37.33-.67.7-.66.6.02,14.75.5,21.91,5.39,7.18,4.9,12.56,10.97,15.55,17.56.15.34,0,.74-.34.9-.15.07-.32.08-.47.03Z"/><path class="cls-3" d="m1332.01,264.82c-.09.25-.18.5-.27.76.08-.25.18-.5.27-.76Z"/><path class="cls-1" d="m1332.38,265.8l-1.29-.43c.05-.16.11-.32.17-.48l.11-.3,1.28.47-.26.75Z"/><path class="cls-1" d="m1345.87,282.05l1.59.15s-.11-3.25,1.77-8.59c1.87-5.34,7.87-9.27,7.87-9.27l12.79-.72s-8.38-6.86-6.64-11.54c1.23-3.31,8.8-10.05,13.77-13.63-.79-.72-1.63-1.39-2.57-1.94-11.15-6.5-28.35,2.24-38.41,19.51-.97,1.66-1.76,3.34-2.52,5.02.82-1.87,1.75-3.74,2.82-5.58,10.06-17.27,27.26-26,38.41-19.51,11.15,6.5,12.04,25.77,1.98,43.04-4.45,7.64-10.29,13.59-16.39,17.31-3.23-5.58-7.91-10.47-13.94-13.98-.17-.1-.35-.17-.52-.27Z"/><path class="cls-1" d="m1360.09,297.25l-.35-.6c-3.28-5.68-8.02-10.43-13.7-13.73-.08-.05-.16-.09-.23-.12-.09-.05-.19-.09-.28-.15l-2.74-1.56,4.01.38c.07-1.28.4-4.11,1.79-8.07,1.93-5.49,7.89-9.45,8.14-9.61l.15-.1h.18s11.15-.64,11.15-.64c-2.35-2.21-7.05-7.26-5.6-11.19,1.28-3.43,8.45-9.82,13.32-13.44-.64-.53-1.23-.95-1.83-1.3-5.21-3.03-11.93-2.71-18.97.86-7.14,3.62-13.72,10.16-18.52,18.4-.99,1.7-1.8,3.45-2.49,4.96l-1.24-.56c.91-2.05,1.84-3.9,2.86-5.65,10.23-17.57,27.92-26.42,39.34-19.75,11.46,6.68,12.46,26.4,2.22,43.96-4.32,7.41-10.22,13.65-16.63,17.55l-.59.36Zm-11.94-14.64c5.05,3.24,9.31,7.61,12.41,12.76,5.99-3.81,11.5-9.72,15.58-16.71,8.81-15.13,9.12-31.83,1.35-39.7l-.08.06c-4.79,3.45-12.36,10.18-13.53,13.31-1.29,3.46,4.21,8.96,6.43,10.78l1.35,1.1-14.34.8c-.91.63-5.85,4.22-7.46,8.83-1.8,5.13-1.73,8.31-1.73,8.34l.02.43Z"/><path class="cls-1" d="m1329.27,277.14c.27-3.72,1.09-7.6,2.47-11.56-1.33,3.96-2.09,7.87-2.31,11.58-.05,0-.1-.01-.15-.01Z"/><path class="cls-1" d="m1328.7,277.82l-.1-.73c.28-3.82,1.12-7.77,2.5-11.74l1.28.44h0c-1.28,3.83-2.05,7.67-2.28,11.4l-.04.65-1.37-.03Z"/><path class="cls-1" d="m1333.51,261.05c-.56,1.26-1.07,2.52-1.51,3.77.46-1.26.94-2.51,1.51-3.77Z"/><path class="cls-1" d="m1332.64,265.05l-1.28-.46c.22-.64.47-1.29.74-1.97.24-.61.5-1.24.78-1.86l1.24.55c-.27.62-.53,1.22-.76,1.8-.26.66-.5,1.3-.73,1.93Z"/><path class="cls-8" d="m1374.44,236.52c.94.55,1.78,1.22,2.57,1.94-4.97,3.58-12.54,10.32-13.77,13.63-1.74,4.68,6.64,11.54,6.64,11.54l-12.79.72s-6,3.93-7.87,9.27c-1.88,5.34-1.77,8.59-1.77,8.59l-1.59-.15c-5.24-2.95-10.85-4.54-16.44-4.9.23-3.7.98-7.61,2.31-11.58.09-.25.17-.5.27-.76.44-1.26.95-2.52,1.51-3.77.76-1.68,1.55-3.36,2.52-5.02,10.06-17.27,27.26-26,38.41-19.51Z"/><path class="cls-1" d="m1328.71,277.79l.04-.68c.24-3.86,1.02-7.81,2.35-11.75l.27-.78c.42-1.19.92-2.45,1.52-3.82.7-1.55,1.53-3.33,2.56-5.09,4.93-8.46,11.7-15.19,19.07-18.93,7.46-3.79,14.67-4.08,20.27-.82h0c.88.51,1.73,1.15,2.69,2.02l.62.56-.68.49c-4.79,3.45-12.36,10.18-13.53,13.32-1.29,3.46,4.21,8.96,6.43,10.78l1.35,1.1-14.34.8c-.91.63-5.85,4.22-7.46,8.83-1.8,5.13-1.73,8.31-1.73,8.34l.02.77-2.5-.23-.12-.07c-5.04-2.83-10.47-4.45-16.15-4.81l-.67-.04Zm9.44.24c2.73.82,5.38,1.94,7.93,3.36l.72.07c.07-1.28.4-4.11,1.79-8.07,1.93-5.49,7.89-9.45,8.14-9.61l.15-.1h.18s11.15-.64,11.15-.64c-2.35-2.21-7.05-7.26-5.6-11.19,1.28-3.43,8.45-9.82,13.32-13.44-.64-.53-1.23-.95-1.83-1.3h0c-5.21-3.03-11.93-2.71-18.97.86-7.14,3.62-13.72,10.16-18.52,18.4-.99,1.7-1.8,3.45-2.49,4.96-.59,1.33-1.07,2.55-1.48,3.72l-.26.75c-1.21,3.59-1.96,7.2-2.23,10.73,2.73.22,5.4.72,8,1.5Z"/><path class="cls-1" d="m1308.8,297.58c-8.1-2.43-13.31-8.11-11.87-12.93,1.44-4.82,8.92-6.7,17.02-4.27,8.1,2.43,13.31,8.11,11.86,12.93s-8.92,6.7-17.02,4.28Zm4.38-14.61c-6.42-1.92-12.67-.8-13.65,2.45s3.63,7.63,10.05,9.56c6.42,1.92,12.67.8,13.64-2.46.97-3.25-3.62-7.63-10.05-9.55Z"/><path class="cls-8" d="m1516.67,159.93l-10.44,3.22c-2.36.73-4.25,2.56-5.06,4.89l-3.64,10.51-.44,1.29-.45,1.28-1.89,5.47-.94-6.2-.22-1.46h0s-.22-1.45-.22-1.45l-1.58-10.48c-.42-2.76-2.18-5.11-4.72-6.26l-9.59-4.4,10.4-4.21c2.51-1.02,4.48-3.05,5.42-5.57l6.11-16.44,1.83,18.07c.27,2.7,1.89,5.03,4.32,6.24l11.12,5.51Z"/><path class="cls-1" d="m1520.18,159.16l-13.64-6.76c-1.74-.86-2.89-2.53-3.09-4.45l-2.32-22.86c-.05-.52-.45-.93-.97-1-.5-.1-1.01.23-1.2.72l-7.78,20.95c-.72,1.94-2.24,3.5-4.17,4.28l-12.79,5.19c-.41.17-.68.57-.7,1.01-.02.44.24.85.65,1.04l11.94,5.47c1.84.85,3.14,2.55,3.43,4.57l1.44,9.52.22,1.46.22,1.46,1.75,11.64c.08.51.5.9,1,.95h0c.51.04.98-.27,1.15-.75l3.44-9.93.45-1.29.44-1.28,3.59-10.35c.58-1.66,1.92-2.96,3.6-3.48l13.13-4.04c.44-.13.75-.52.79-.98.04-.46-.21-.89-.62-1.09Zm-22.66,19.38l-.44,1.29-.45,1.28-1.89,5.47-.94-6.2-.22-1.46h0s-.22-1.45-.22-1.45l-1.58-10.48c-.42-2.76-2.18-5.11-4.72-6.26l-9.59-4.4,10.4-4.21c2.51-1.02,4.48-3.05,5.42-5.57l6.11-16.44,1.83,18.07c.27,2.7,1.89,5.03,4.32,6.24l11.12,5.51-10.44,3.22c-2.36.73-4.25,2.56-5.06,4.89l-3.64,10.51Z"/><path class="cls-10" d="m1542.99,148.81l-3.89,1.2c-1.33.41-2.39,1.44-2.85,2.75l-2.47,7.13-1.14-7.56c-.22-1.54-1.21-2.85-2.63-3.5l-3.62-1.66,4-1.63c1.38-.56,2.47-1.68,2.97-3.06l2.23-5.99.67,6.67c.17,1.51,1.07,2.82,2.43,3.5l4.31,2.14Z"/><path class="cls-1" d="m1546.39,148.08l-6.75-3.35c-.69-.34-1.15-1.01-1.24-1.78l-1.14-11.3c-.05-.5-.44-.9-.94-.97-.01,0-.03,0-.04-.01-.49-.04-.95.25-1.11.71l-3.85,10.36c-.3.82-.94,1.48-1.75,1.81l-6.33,2.57c-.41.16-.67.55-.68.98-.01.43.24.83.64,1.01l5.9,2.71c.75.35,1.27,1.04,1.39,1.86l1.8,11.91c.07.49.48.87.97.92h0c.5.04.95-.26,1.12-.73l3.92-11.3c.23-.66.76-1.18,1.44-1.39l6.49-2c.42-.13.72-.51.76-.95s-.2-.86-.6-1.06Zm-12.62,11.82l-1.14-7.56c-.22-1.54-1.21-2.85-2.63-3.5l-3.62-1.66,4-1.63c1.38-.56,2.47-1.68,2.97-3.06l2.23-5.99.67,6.67c.17,1.51,1.07,2.82,2.43,3.5l4.31,2.14-3.89,1.2c-1.33.41-2.39,1.44-2.85,2.75l-2.47,7.13Z"/><path class="cls-8" d="m1164.44,227.24l-6.35,1.77-1.62.45-1.6.45-.96.26c-2.38.66-4.32,2.44-5.2,4.75l-6.94,18.36-2.42-19.66c-.34-2.77-2.04-5.16-4.54-6.39l-9.47-4.66,10.51-3.93c2.52-.94,4.55-2.91,5.57-5.42l6.55-16.26,1.33,18.11c.21,2.71,1.75,5.08,4.15,6.35l3.79,2,1.21.65,1.21.64,4.77,2.53Z"/><path class="cls-1" d="m1167.97,226.57l-7.52-3.99-1.21-.64-1.21-.64-3.51-1.86c-1.71-.91-2.82-2.6-2.96-4.54l-1.69-22.91c-.04-.52-.43-.94-.94-1.02-.53-.13-1.02.21-1.22.69l-8.36,20.73c-.78,1.92-2.34,3.44-4.28,4.16l-12.93,4.84c-.42.16-.7.55-.72.99-.02.44.22.86.62,1.06l11.79,5.8c1.82.9,3.06,2.64,3.31,4.66l2.97,24.17c.06.52.47.91.98.98h0c.51.06.99-.24,1.17-.72l8.55-22.61c.54-1.44,1.67-2.59,3.09-3.17.2-.08.4-.15.61-.21l1.01-.28,1.61-.45,10.61-2.95c.45-.12.77-.5.81-.96.05-.45-.18-.89-.59-1.11Zm-9.88,2.43l-1.62.45-1.6.45-.96.26c-2.38.66-4.32,2.44-5.2,4.75l-6.94,18.36-2.42-19.66c-.34-2.77-2.04-5.16-4.54-6.39l-9.47-4.66,10.51-3.93c2.52-.94,4.55-2.91,5.57-5.42l6.55-16.26,1.33,18.11c.21,2.71,1.75,5.08,4.15,6.35l3.79,2,1.21.65,1.21.64,4.77,2.53-6.35,1.77Z"/></g></svg>