<?xml version="1.0" encoding="UTF-8"?><svg id="Capa_2" xmlns="http://www.w3.org/2000/svg" viewBox="0 0 557.96 349.69"><defs><style>.cls-1,.cls-2,.cls-3,.cls-4{stroke-width:0px;}.cls-2{fill:#f54f36;}.cls-3{fill:#c4006e;}.cls-4{fill:#e5e5e5;}</style></defs><g id="Capa_1-2"><path class="cls-4" d="m553.54,308.26l-23.83-19.49-.16-.12c.04.23.04.43-.04.66,0,.04-.04.08-.04.08,0,.08-.04.16-.12.23l-5.78,8.44c-.23.35-.63.55-1.05.55h-.08l-49.61-4.22s-.12.08-.16.08h-.2c-.27,0-.55-.08-.78-.27l-3.59-2.81-4.1,5.59c-.23.35-.63.55-1.05.55h-.12l-49.49-5.7s-.08.04-.12.04c-.04.04-.12.04-.16.04-.31,0-.59-.12-.82-.31l-64.57-53.59c-.55-.43-.62-1.21-.23-1.76l6.02-8.24c.08-.12.16-.2.23-.2.04-.08.12-.12.23-.2.16-.12.39-.16.59-.16h.12l52.46,7.54c.2.04.39.12.55.23l.94.78,2.46-3.63c.16-.2.35-.39.59-.43,0-.04.04-.04.04-.04.04,0,.04-.04.08-.04h.08c.08,0,.16-.04.23-.04h.16l52.66,5.98c.2.04.39.12.55.23l47.19,36.8-70.66-57.85-5.31,8.09c-.23.35-.63.59-1.05.59h-.08l-49.61-3.36s-.12.08-.2.08h-.23c-.27,0-.55-.08-.78-.23l-7.5-5.66-4.73,6.76c-.23.31-.63.55-1.05.55-.04,0-.08,0-.12-.04l-49.53-4.69s-.12.08-.16.08h-.2c-.27,0-.59-.08-.82-.27l-65.62-52.3c-.51-.43-.63-1.21-.23-1.76l5.82-8.36c.08-.08.16-.2.23-.2.04-.08.16-.12.23-.2.2-.12.47-.2.7-.16l52.62,6.48c.2.04.39.12.55.23l4.77,3.79,3.32-5.04c.04-.08.12-.16.2-.16.08-.12.16-.2.23-.23.04-.04.08-.04.08-.04.12-.08.23-.12.35-.12.08-.04.16-.04.27-.04l52.77,5.08c.2,0,.39.08.55.2l28.16,21.17L206.44,24.33C153.63,17.29,57.69,4.64,38.28,2.49l375.3,298.82,126.64,6.33,13.36.66-.04-.04ZM150.39,79.25h-.2c-.27,0-.55-.08-.78-.27L83.79,26.67c-.55-.43-.66-1.17-.27-1.76l5.86-8.36c.04-.08.12-.16.2-.16l.23-.23c.12-.04.23-.12.35-.12.08-.04.16-.04.23-.04h.16l52.58,6.48c.2.04.39.12.55.23l10.47,8.36,4.18-5.9c.12-.2.27-.31.43-.39.16-.08.39-.16.59-.16h.16l52.58,6.76c.2,0,.35.08.51.23l63.16,50.78c.39.27.51.78.35,1.25-.04.12-.12.2-.2.27h-.04c0,.08-.04.16-.08.23l-5.9,8.32c-.23.35-.63.55-1.02.55h-.16l-49.45-4.96h-.08s-.04.08-.12.08-.12.04-.2.04c-.27,0-.59-.12-.82-.31l-12.77-10.27-4.02,5.74c-.23.35-.63.55-1.02.55h-.16l-49.49-4.73c-.08.04-.12.08-.2.08Zm87.54,72.03s-.04.04-.08.04c-.04.04-.12.04-.16.04-.31,0-.59-.12-.82-.27l-65.62-52.34c-.55-.39-.63-1.17-.23-1.72l5.82-8.4c.04-.08.12-.16.2-.16.08-.08.16-.16.27-.2t.08-.04c.12-.08.23-.12.35-.12.08-.04.16-.04.27-.04l52.62,6.52c.2,0,.35.08.51.23l5.16,4.1,4.1-5.98c.04-.08.12-.16.2-.16.16-.16.35-.31.59-.35.08-.04.16-.04.23-.04h.12l52.66,6.13c.2,0,.39.08.55.2l63.79,50.04c.35.31.51.82.31,1.25-.04.08-.04.12-.12.16,0,.08-.04.12-.08.16,0,.08-.04.12-.08.2l-5.78,8.4c-.23.35-.66.59-1.05.59h-.12l-49.53-4.37s-.12.08-.2.08h-.2c-.31,0-.59-.08-.82-.27l-7.62-5.98-4.49,6.45c-.23.35-.62.55-1.05.55h-.12l-49.61-4.69h-.04Z"/><polygon class="cls-2" points="384.34 330.47 371.49 346.48 3.1 50.63 14.78 36.06 362 312.54 384.34 330.47"/><path class="cls-2" d="m535.04,336.48l-7.73,10.62-152.81-.08,12.23-14.8,2.03,1.6c.23.2.51.31.82.31.08.04.16.04.23.04h.12l145.11,2.3Z"/><polygon class="cls-4" points="536.94 333.87 536.9 333.94 453.39 332.62 536.94 333.87"/><polygon class="cls-4" points="536.94 333.87 536.9 333.94 453.39 332.62 536.94 333.87"/><path class="cls-1" d="m553.6,308.24l-13.32-.62,13.36.66-.04-.04Z"/><polygon class="cls-3" points="465.89 286.33 463.47 286.09 463.43 286.05 465.89 286.33"/><path class="cls-3" d="m476.41,285.12l-1.09,1.72-3.05,4.45-2.58-2.03.39-.55c.04-.08.08-.16.12-.23.04-.04.08-.08.08-.12.04-.04.08-.08.12-.16.2-.43.04-.94-.31-1.25l-59.45-49.33,1.84-2.7,38.51,30.08,1.17.94,24.26,19.18Z"/><path class="cls-3" d="m478.55,286.52l-1.25,1.99,1.33-1.99h-.08Zm-15.12-.47l-2.38-.23.04.04,2.38.23,2.42.23-2.46-.27Zm-51.48-54.26s-.04,0-.08.04c.08,0,.16-.04.23-.04h-.16Zm52.93,56.99l1.21.98.59-.78-1.8-.2Z"/><polygon class="cls-3" points="526.02 290 521.96 295.98 475.08 291.99 477.31 288.52 478.56 286.52 478.64 286.52 526.02 290"/><path class="cls-3" d="m529.61,288.63c.04.23.04.43-.04.66.04-.04.08-.12.12-.2.04-.12.08-.23.08-.35l-.16-.12Z"/><path class="cls-3" d="m389.23,212.93l-1.25,2.03-.27.43-.16.23-.16.27-2.19,3.32-6.56-4.92c.2-.43.04-.94-.31-1.25l-56.6-45.08,2.7-4.06,45.47,34.26.66.51,18.67,14.26Z"/><path class="cls-3" d="m391.4,214.34l-1.02,1.64,1.09-1.64h-.08Z"/><polygon class="cls-3" points="438.95 216.95 434.97 223.01 388.01 219.84 390.36 216.06 390.4 215.98 391.41 214.34 391.49 214.34 438.95 216.95"/><path class="cls-3" d="m305.63,145.9v.04l-.7,1.02-3.52,5.12-6.68-5.23s.08-.08.08-.16c.08-.04.08-.08.12-.16.2-.43.04-.94-.31-1.25l-56.25-44.76,3.4-4.96,43.12,33.87,20.74,16.48Z"/><path class="cls-3" d="m307.73,147.31l-1.48,2.3,1.56-2.3h-.08Zm-66.44-54.92s-.04,0-.08.04c.08-.04.16-.04.23-.04h-.16Z"/><polygon class="cls-3" points="355.2 150.9 351.1 156.84 304.23 152.74 306.26 149.61 307.74 147.31 307.82 147.31 355.2 150.9"/><path class="cls-3" d="m222.9,78.87l-.82,1.29-.43.63-3.01,4.22-11.84-9.53.35-.51c.04-.08.08-.16.08-.23h.04c.08-.08.16-.2.2-.27.16-.47.04-.98-.35-1.25l-50.9-40.55,3.48-4.88,40.43,32.54,2.46,1.99,20.31,16.56Z"/><path class="cls-3" d="m225.04,80.32l-1.29,1.95,1.37-1.95h-.08Zm-22.66-5.12l.94.74.43-.63-1.37-.12Z"/><polygon class="cls-3" points="272.43 84.46 268.29 90.39 221.46 85.71 223.29 82.93 223.76 82.27 225.05 80.32 225.13 80.32 272.43 84.46"/><polygon class="cls-3" points="241.69 141.99 240.44 143.91 240.28 144.14 237.47 148.17 173.88 97.46 178.21 91.21 219.89 124.42 220.67 125.04 221.18 125.47 241.69 141.99"/><path class="cls-3" d="m243.83,143.44l-.7,1.09.74-1.09h-.04Z"/><polygon class="cls-3" points="291.26 147.39 287.12 153.32 240.28 148.87 242.98 144.77 243.14 144.53 243.84 143.44 243.88 143.44 291.26 147.39"/><polygon class="cls-3" points="325.4 209.84 324.58 211.09 321.18 215.94 257.59 165.24 261.92 158.99 301.22 190.31 325.4 209.84"/><path class="cls-3" d="m327.53,211.25l-1.13,1.76,1.21-1.76h-.08Z"/><polygon class="cls-3" points="374.97 215.16 370.83 221.09 323.99 216.68 326.41 213.01 327.55 211.25 327.63 211.25 374.97 215.16"/><polygon class="cls-3" points="417.23 282.66 416.3 284.02 416.26 284.1 412.9 288.71 350.32 236.76 354.81 230.59 394.73 263.75 417.23 282.66"/><path class="cls-3" d="m419.33,284.1l-.7,1.09.78-1.09h-.08Z"/><polygon class="cls-3" points="466.68 288.98 466.1 289.77 462.43 294.84 415.71 289.49 418.25 285.74 418.4 285.55 418.64 285.2 419.34 284.1 419.42 284.1 464.89 288.79 466.68 288.98"/><polygon class="cls-3" points="465.89 286.33 463.47 286.09 461.09 285.86 461.05 285.82 463.43 286.05 465.89 286.33"/><path class="cls-3" d="m463.43,286.05l-2.38-.23.04.04,2.38.23,2.42.23-2.46-.27Zm0,0l-2.38-.23.04.04,2.38.23,2.42.23-2.46-.27Zm0,0l-2.38-.23.04.04,2.38.23,2.42.23-2.46-.27Zm0,0l-2.38-.23.04.04,2.38.23,2.42.23-2.46-.27Zm0,0l-2.38-.23.04.04,2.38.23,2.42.23-2.46-.27Zm0,0l-2.38-.23.04.04,2.38.23,2.42.23-2.46-.27Zm0,0l-2.38-.23.04.04,2.38.23,2.42.23-2.46-.27Zm0,0l-2.38-.23.04.04,2.38.23,2.42.23-2.46-.27Zm0,0l-2.38-.23.04.04,2.38.23,2.42.23-2.46-.27Zm0,0l-2.38-.23.04.04,2.38.23,2.42.23-2.46-.27Zm0,0l-2.38-.23.04.04,2.38.23,2.42.23-2.46-.27Zm0,0l-2.38-.23.04.04,2.38.23,2.42.23-2.46-.27Zm0,0l-2.38-.23.04.04,2.38.23,2.42.23-2.46-.27Zm0,0l-2.38-.23.04.04,2.38.23,2.42.23-2.46-.27Zm0,0l-2.38-.23.04.04,2.38.23,2.42.23-2.46-.27Zm0,0l-2.38-.23.04.04,2.38.23,2.42.23-2.46-.27Zm0,0l-2.38-.23.04.04,2.38.23,2.42.23-2.46-.27Zm0,0l-2.38-.23.04.04,2.38.23,2.42.23-2.46-.27Z"/><polygon class="cls-3" points="154.23 69.97 154.23 70 153.53 71.06 149.97 76.1 86.38 25.4 90.76 19.15 133.65 53.36 154.23 69.97"/><path class="cls-3" d="m156.33,71.37l-1.37,2.07,1.45-2.07h-.08ZM90.27,15.98s-.04,0-.08.04c.08-.04.16-.04.23-.04h-.16Z"/><polygon class="cls-3" points="203.76 75.32 203.33 75.94 199.66 81.25 152.79 76.8 154.97 73.44 156.34 71.37 156.42 71.37 202.39 75.2 203.76 75.32"/><path class="cls-1" d="m557.92,309.37c-.04-.12-.08-.23-.12-.31,0-.16-.12-.27-.23-.39L207.61,22.43c-.16-.12-.31-.2-.55-.23C178.71,18.44,37.23-.38,34.65,0c-.04,0-.08,0-.12.04h-.04c-.51,0-1.02.23-1.33.66L9.81,30.01c-.27.35-.39.78-.35,1.25.04.43.27.82.62,1.09l2.7,2.15L.28,50.04c-.43.55-.35,1.33.2,1.8l370.42,297.45s.08.08.16.08c.08.04.16.08.23.12.12.08.23.08.39.08.04.04.08.04.12.04l156.17.08c.39,0,.78-.2,1.02-.55l9.18-12.62,2.27.04h.04c.43,0,.86-.23,1.09-.62l16.21-25.59c.08-.12.08-.27.12-.43.04-.08.08-.2.08-.31-.04-.08-.04-.16-.04-.23Zm-87.85-22.42l-59.45-49.33,1.84-2.7,38.51,30.08,1.17.94,24.26,19.18-1.09,1.72-3.05,4.45-2.58-2.03.39-.55c.04-.08.08-.16.12-.23.04-.04.08-.08.08-.12.04-.04.08-.08.12-.16.2-.43.04-.94-.31-1.25Zm-75.35-23.2l22.5,18.91-.94,1.37-.04.08-3.36,4.61-62.58-51.95,4.49-6.17,39.92,33.16Zm-36.6-33.63l.16.04,48.24,6.91.86.7,1.02.86.98.82,56.52,46.87-2.42-.23-2.38-.23-.04-.04-40.98-4.34-1.02-.12-60.94-51.25Zm60.12,55.62l.16-.2.23-.35.7-1.09h.08l45.47,4.69,1.8.2-.59.78-3.67,5.08-46.72-5.35,2.54-3.75Zm59.06,2.77l1.25-1.99h.08l47.38,3.48-4.06,5.98-46.87-3.98,2.23-3.48Zm1.91-4.65l-1.02-.08-62.42-49.41h.16l48.44,5.51,60.82,47.46-45.98-3.48Zm-100.9-70.82l-56.6-45.08,2.7-4.06,45.47,34.26.66.51,18.67,14.26-1.25,2.03-.27.43-.16.23-.16.27-2.19,3.32-6.56-4.92c.2-.43.04-.94-.31-1.25Zm-77.11-22.73l24.18,19.53-.82,1.25-3.4,4.84-63.59-50.7,4.34-6.25,39.3,31.33Zm-35.94-31.84h.16l48.36,5.98,4.69,3.75,1.02.82,1.02.78,16.05,12.77,36.6,29.18.08.04.59.47.31.27-2.38-.2-43.55-3.79-1.02-.08-61.91-50Zm61.13,54.53l1.13-1.76h.08l47.34,3.91-4.14,5.94-46.83-4.41,2.42-3.67Zm63.94,3.05l.04-.08,1.02-1.64h.08l47.46,2.62-3.98,6.05-46.95-3.16,2.34-3.79Zm1.64-4.45h-.04l-.94-.04-63.28-48.28h.12l48.55,4.65,61.64,46.41-46.05-2.73ZM206.48,24.3l199.14,162.89-28.16-21.17c-.16-.12-.35-.2-.55-.2l-52.77-5.08c-.12,0-.2,0-.27.04-.12,0-.23.04-.35.12,0,0-.04,0-.08.04-.08.04-.16.12-.23.23-.08,0-.16.08-.2.16l-3.32,5.04-4.77-3.79c-.16-.12-.35-.2-.55-.23l-52.62-6.48c-.23-.04-.51.04-.7.16-.08.08-.2.12-.23.2-.08,0-.16.12-.23.2l-5.82,8.36c-.39.55-.27,1.33.23,1.76l65.62,52.3c.23.2.55.27.82.27h.2s.12-.04.16-.08l49.53,4.69s.08.04.12.04c.43,0,.82-.23,1.05-.55l4.73-6.76,7.5,5.66c.23.16.51.23.78.23h.23c.08,0,.16-.04.2-.08l49.61,3.36h.08c.43,0,.82-.23,1.05-.59l5.31-8.09,70.66,57.85-47.19-36.8c-.16-.12-.35-.2-.55-.23l-52.66-5.98h-.16c-.08,0-.16.04-.23.04h-.08s-.04.04-.08.04c0,0-.04,0-.04.04-.23.04-.43.23-.59.43l-2.46,3.63-.94-.78c-.16-.12-.35-.2-.55-.23l-52.46-7.54h-.12c-.2,0-.43.04-.59.16-.12.08-.2.12-.23.2-.08,0-.16.08-.23.2l-6.02,8.24c-.39.55-.31,1.33.23,1.76l64.57,53.59c.23.2.51.31.82.31.04,0,.12,0,.16-.04.04,0,.08,0,.12-.04l49.49,5.7h.12c.43,0,.82-.2,1.05-.55l4.1-5.59,3.59,2.81c.23.2.51.27.78.27h.2s.12-.04.16-.08l49.61,4.22h.08c.43,0,.82-.2,1.05-.55l5.78-8.44c.08-.08.12-.16.12-.23,0,0,.04-.04.04-.08.08-.23.08-.43.04-.66l.16.12,23.83,19.49.04.04-13.36-.66-126.64-6.33L38.32,2.47c19.41,2.15,115.35,14.8,168.16,21.84ZM34.69,4.03l376.12,299.45-20.39,25.59-.9,1.13-1.45-1.13-158.86-126.48L14.85,31.92l-1.45-1.13L34.69,4.03Zm336.79,342.45L3.09,50.63l11.68-14.57,347.22,276.48,22.34,17.93-12.85,16.02Zm155.82.62l-152.81-.08,12.23-14.8,2.03,1.6c.23.2.51.31.82.31.08.04.16.04.23.04h.12l145.11,2.3-7.73,10.62Zm13.4-14.61v.04l-.94,1.45-1.29-.04h-1.56l-83.51-1.33-60.82-.94,1.02-1.25,1.02-1.29,19.8-24.92,140,6.64-13.71,21.64Z"/><polygon class="cls-4" points="438.04 214.34 391.99 211.6 391.95 211.6 391.01 211.56 327.73 163.28 327.85 163.28 376.4 167.93 438.04 214.34"/><polygon class="cls-4" points="374.13 212.54 371.75 212.34 328.2 208.56 327.18 208.48 265.27 158.48 265.43 158.48 313.78 164.46 318.47 168.21 319.49 169.03 320.5 169.81 336.56 182.58 373.16 211.76 373.24 211.8 373.82 212.27 374.13 212.54"/><polygon class="cls-4" points="525.19 287.34 479.21 283.87 478.19 283.79 415.77 234.38 415.93 234.38 464.37 239.88 525.19 287.34"/><polygon class="cls-4" points="465.89 286.33 463.43 286.05 461.05 285.82 420.07 281.48 419.06 281.37 358.12 230.12 358.28 230.16 406.52 237.07 407.38 237.77 408.39 238.63 409.37 239.45 465.89 286.33"/><polygon class="cls-2" points="554.4 310.86 540.69 332.5 540.69 332.54 539.76 333.98 538.47 333.94 536.9 333.94 536.94 333.87 453.39 332.62 392.57 331.68 393.59 330.43 394.6 329.14 414.41 304.22 554.4 310.86"/><polygon class="cls-2" points="410.81 303.48 390.42 329.06 389.52 330.19 388.08 329.06 229.22 202.58 14.85 31.92 13.4 30.79 34.69 4.03 410.81 303.48"/><path class="cls-1" d="m358.55,148.75l-63.79-50.04c-.16-.12-.35-.2-.55-.2l-52.66-6.13h-.12c-.08,0-.16,0-.23.04-.23.04-.43.2-.59.35-.08,0-.16.08-.2.16l-4.1,5.98-5.16-4.1c-.16-.16-.31-.23-.51-.23l-52.62-6.52c-.12,0-.2,0-.27.04-.12,0-.23.04-.35.12t-.08.04c-.12.04-.2.12-.27.2-.08,0-.16.08-.2.16l-5.82,8.4c-.39.55-.31,1.33.23,1.72l65.62,52.34c.23.16.51.27.82.27.04,0,.12,0,.16-.04t.08-.04h.04l49.61,4.69h.12c.43,0,.82-.2,1.05-.55l4.49-6.45,7.62,5.98c.23.2.51.27.82.27h.2c.08,0,.16-.04.2-.08l49.53,4.37h.12c.39,0,.82-.23,1.05-.59l5.78-8.4c.04-.08.08-.12.08-.2.04-.04.08-.08.08-.16.08-.04.08-.08.12-.16.2-.43.04-.94-.31-1.25Zm-113.32-53.79l48.44,5.66,60.7,47.62-46.01-3.63-.98-.08-62.3-49.57h.16Zm-63.51-4.26h.04l48.32,5.98,5.04,4.02.98.78,54.33,43.24-.43-.04h-.04l-2.34-.2-43.12-3.71h-.04l-.98-.08-61.95-50.04.2.04Zm55.74,57.46l-63.59-50.7,4.34-6.25,41.68,33.2.78.63.51.43,20.51,16.52-1.25,1.91-.16.23-2.81,4.02Zm49.65,5.16l-46.83-4.45,2.7-4.1.16-.23.7-1.09h.04l47.38,3.95-4.14,5.94Zm14.3-1.25l-6.68-5.23s.08-.08.08-.16c.08-.04.08-.08.12-.16.2-.43.04-.94-.31-1.25l-56.25-44.76,3.4-4.96,43.12,33.87,20.74,16.48v.04l-.7,1.02-3.52,5.12Zm49.69,4.77l-46.87-4.1,2.03-3.12,1.48-2.3h.08l47.38,3.59-4.1,5.94Z"/><polygon class="cls-4" points="354.37 148.24 308.35 144.61 307.38 144.53 245.07 94.96 245.23 94.96 293.67 100.63 354.37 148.24"/><polygon class="cls-4" points="290.43 144.73 290 144.69 289.96 144.69 287.61 144.49 244.49 140.78 244.45 140.78 243.47 140.71 181.52 90.67 181.72 90.71 181.76 90.71 230.08 96.68 235.11 100.71 236.09 101.49 290.43 144.73"/><path class="cls-1" d="m275.78,82.39l-63.16-50.78c-.16-.16-.31-.23-.51-.23l-52.58-6.76h-.16c-.2,0-.43.08-.59.16-.16.08-.31.2-.43.39l-4.18,5.9-10.47-8.36c-.16-.12-.35-.2-.55-.23l-52.58-6.48h-.16c-.08,0-.16,0-.23.04-.12,0-.23.08-.35.12l-.23.23c-.08,0-.16.08-.2.16l-5.86,8.36c-.39.59-.27,1.33.27,1.76l65.62,52.3c.23.2.51.27.78.27h.2c.08,0,.12-.04.2-.08l49.49,4.73h.16c.39,0,.78-.2,1.02-.55l4.02-5.74,12.77,10.27c.23.2.55.31.82.31.08,0,.12-.04.2-.04s.08-.04.12-.08h.08l49.45,4.96h.16c.39,0,.78-.2,1.02-.55l5.9-8.32c.04-.08.08-.16.08-.23h.04c.08-.08.16-.16.2-.27.16-.47.04-.98-.35-1.25Zm-112.54-55.08l48.28,6.17,60.12,48.32-45.94-4.18-1.02-.08-61.68-50.27.23.04Zm-68.98-8.67l48.36,5.94,10.31,8.24,1.02.78,49.02,39.06-1.91-.16-2.27-.2h-.04l-41.76-3.63-.98-.08-61.95-50,.2.04Zm55.7,57.46l-63.59-50.7,4.37-6.25,42.89,34.22,20.59,16.6v.04l-.7,1.05-3.55,5.04Zm53.36-.16l-3.67,5.31-46.87-4.45,2.19-3.36,1.37-2.07h.08l45.98,3.83,1.37.12-.43.63Zm15.31,9.06l-11.84-9.53.35-.51c.04-.08.08-.16.08-.23h.04c.08-.08.16-.2.2-.27.16-.47.04-.98-.35-1.25l-50.9-40.55,3.48-4.88,40.43,32.54,2.46,1.99,20.31,16.56-.82,1.29-.43.63-3.01,4.22Zm49.65,5.39l-46.83-4.69,1.84-2.77.47-.66,1.29-1.95h.08l47.3,4.14-4.14,5.94Z"/><polygon class="cls-4" points="271.64 81.8 225.7 77.62 224.68 77.54 163.01 27.27 163.24 27.31 211.52 33.48 271.64 81.8"/><polygon class="cls-4" points="202.97 72.66 201.05 72.5 198.79 72.31 198.75 72.31 156.99 68.68 156.01 68.6 94.06 18.6 94.26 18.64 142.62 24.58 152.93 32.82 153.94 33.6 202.97 72.66"/></g></svg>