<?xml version="1.0" encoding="UTF-8"?><svg id="Capa_2" xmlns="http://www.w3.org/2000/svg" viewBox="0 0 358.87 374.52"><defs><style>.cls-1{fill:none;}.cls-1,.cls-2,.cls-3,.cls-4,.cls-5,.cls-6{stroke-width:0px;}.cls-3{fill:#291254;}.cls-4{fill:#b0a7e9;}.cls-5{fill:#b48cf4;}.cls-6{fill:#fff;}</style></defs><g id="Capa_2-2"><path class="cls-3" d="m61.72,372.52c-1.33-.02-2.57-.15-3.81-.38l-.6-.12h0c-15.87-3.42-30.22-24.11-40.45-58.38C6.62,279.37,1.37,234.64,2.05,187.69,3.4,95.83,26.69,19.69,57.44,6.65c3.07-1.3,6.21-1.96,9.35-1.96h.3c1.04.01,2.13.11,3.31.3.22.04.43.07.66.12,16.05,3.07,30.6,23.87,40.94,58.55,10.21,34.25,15.45,78.96,14.76,125.87-.27,18.66-1.48,37.1-3.57,54.79l-.5,4.06-.41,3.26-2.7-1.88c-.08-.05-.17-.11-.25-.17-3.24-2.12-6.95-4.68-11.03-7.6-13.94-9.96-32.55-24.46-41.14-32.9l-1.55-1.52c-16-15.76-40.19-39.56-55.55-45.77-.3-.12-.61-.24-.93-.35-.8,10.68-1.29,21.62-1.44,32.54-.05,3.67-.07,7.5-.04,11.4,7.71,8.89,15.75,17.25,23.91,24.84,5.67,5.29,12.63,11.92,19.86,18.81,17.83,16.98,42.26,40.25,47.99,43.36.51.27,1.07.6,1.66.97.36.22.76.47,1.16.73,2.1,1.33,4.98,3.16,8.68,4.46.06.02.21.07.36.12l1.7.64-.48,1.75c-.33,1.22-.67,2.43-1.01,3.62l-.04.15c-12.31,43-30.31,67.69-49.37,67.69h-.33Z"/><path class="cls-2" d="m66.8,6.68c.09,0,.18,0,.28,0,1.01.01,2.02.11,3.02.27.19.03.37.06.56.1,31.59,6.05,55.54,85.58,54.12,182.44-.28,19.03-1.52,37.37-3.56,54.58-.11.87-.21,1.72-.32,2.58-.06.49-.12.98-.18,1.46-.1-.07-.21-.14-.32-.21-3.22-2.11-6.96-4.69-10.94-7.54-14.67-10.48-32.68-24.62-40.9-32.7l-1.55-1.52c-16.13-15.88-40.49-39.85-56.2-46.19-1.14-.46-2.31-.82-3.47-1.1-.91,11.36-1.47,23.09-1.64,35.11-.06,4.09-.07,8.15-.04,12.18,6.43,7.45,14.77,16.46,24.54,25.55,5.67,5.29,12.55,11.84,19.84,18.79,18.92,18.02,42.47,40.44,48.41,43.67.49.26,1.01.57,1.56.91.36.22.74.46,1.13.71,2.3,1.46,5.24,3.31,9.1,4.66.1.03.21.07.32.11-.33,1.21-.66,2.41-1,3.59-.01.04-.02.07-.03.1-11.6,40.5-28.71,66.3-47.47,66.3-.1,0-.2,0-.3,0-1.17-.02-2.32-.13-3.47-.35-.01-.01-.03-.01-.04-.01-31.62-5.94-55.61-85.52-54.2-182.45C5.38,96.28,28.87,20.93,58.22,8.48c2.81-1.19,5.67-1.8,8.57-1.8m0-3.98c-3.41,0-6.82.71-10.13,2.12-10.89,4.62-26.64,19.21-39.85,62.5C6.66,100.61.71,143.35.06,187.66c-.69,47.15,4.6,92.09,14.88,126.54,5.06,16.97,11.12,30.71,18,40.82,7.13,10.48,14.98,16.8,23.35,18.8l.04.04,1.2.23c1.35.26,2.71.4,4.15.42.13,0,.25,0,.37,0,10.55,0,20.53-6.61,29.68-19.66,8.33-11.88,15.6-28.52,21.6-49.46.02-.06.04-.13.06-.21.34-1.18.67-2.39,1-3.6l.97-3.54-3.45-1.25c-.14-.05-.29-.1-.43-.15-3.46-1.22-6.1-2.89-8.22-4.24-.4-.26-.8-.51-1.19-.75-.71-.44-1.26-.76-1.77-1.03-5.47-2.97-30.78-27.08-47.53-43.04-7.24-6.9-14.21-13.54-19.87-18.82-7.94-7.39-15.77-15.5-23.28-24.13-.02-3.63,0-7.19.05-10.62.14-9.95.56-19.91,1.24-29.68,15.06,7,37.96,29.54,53.29,44.64l1.56,1.53c8.65,8.51,27.36,23.09,41.37,33.1,4.09,2.93,7.82,5.5,11.07,7.63l.02.02.02.02c.06.04.12.07.17.11l5.42,3.79.82-6.56.16-1.27.02-.2c.06-.45.11-.91.17-1.38l.15-1.18c2.11-17.79,3.32-36.29,3.59-55.02.69-47.11-4.58-92.03-14.85-126.47-5.06-16.97-11.1-30.7-17.98-40.83-7.45-10.98-15.69-17.41-24.5-19.11-.24-.05-.48-.09-.72-.13-1.26-.2-2.44-.31-3.6-.32h-.32Z"/><path class="cls-4" d="m101.13,295.77c2.3,1.46,5.24,3.31,9.1,4.66-.33,1.21-.66,2.4-1.01,3.58,0,.05-.02.1-.04.14-11.65,40.73-28.88,66.59-47.76,66.31-1.06,0-2.1-.11-3.14-.28-.01-.01-.03-.01-.04-.01,16.33-6.92,30.86-33.32,40.75-71.15.02-.07.04-.14.06-.21.32-1.23.64-2.48.95-3.75.36.22.74.46,1.13.71Z"/><path class="cls-4" d="m124.44,189.42c-.28,18.98-1.51,37.27-3.55,54.44-.1.87-.21,1.74-.32,2.6-.05.48-.11.96-.18,1.44-3.22-2.11-6.96-4.69-10.94-7.54.04-.4.08-.8.13-1.2h0c.1-.99.2-1.98.3-2.97,1.44-14.46,2.32-29.63,2.55-45.26,1.42-96.93-22.59-176.52-54.21-182.45-.11-.02-.21-.04-.32-.06,2.89-1.22,5.84-1.85,8.83-1.8,1.13.02,2.25.13,3.36.33.19.03.37.06.56.1,31.42,6.55,55.2,85.87,53.79,182.37Z"/><path class="cls-1" d="m233.09,208.36c-.09.08-.18.17-.25.27-.02.02-.07.09-.16.2-2.68-1.93-10.99-7.93-14-10.39-2.68-2.17-8.56-8.51-11.44-11.65.11-.13.19-.22.22-.26.04-.07.08-.13.12-.2,4.95,5.65,9.2,9.74,9.64,10.16,4.55,4.35,10.13,8.4,15.87,11.87Z"/><path class="cls-1" d="m331.76,78.78c-.78-.32-1.49-.53-2.07-.67-7.31-1.75-22.45,4.29-22.61,4.35-.29.12-.59.15-.88.12-.14.16-.27.32-.41.48,4.64-1.4,18.12-5.16,25.97-4.29Z"/><path class="cls-1" d="m353.6,140.13c.87-2.11,1.42-4.29,1.55-6.52.03-.47.03-.93.03-1.39-.15,2.03-.53,4.26-1.22,6.72-.11.41-.24.8-.36,1.19Z"/><path class="cls-1" d="m176.27,48.78c-2.25,3.19-2.94,7.37-2,12.16.66,3.37,1.91,5.51,3.62,7.11-2.73-4.97-4.25-13.25-1.62-19.27Z"/><path class="cls-6" d="m199.56,84.24c7.43,11.5,5.77,26.64,4.43,38.8-.44,4.02-.85,7.81-.9,11.04-.07,4.88,3.89,11.58,11.44,19.37,5.89,6.07,11.9,10.63,11.96,10.67.81.62.98,1.77.36,2.58-.37.49-.93.74-1.5.74-.37,0-.76-.13-1.08-.37-.64-.49-10.45-7.95-17.55-16.9-.19-.02-.4-.05-.65-.08-5.07-.68-10.41-.56-11.57,5.52-1.48,7.73,11.9,25.47,25.25,38.23,13.66,13.06,37.02,23.04,43.18,22.62.62-.04,1.05-.27,1.41-.77,1.66-2.27,1.07-8.46.24-12.35-2.84-.37-5.15-.97-6.7-1.77-6.09-3.15-9.13-7.48-9.26-7.67-.58-.83-.37-1.98.47-2.56.83-.58,1.98-.37,2.56.46.03.03,2.69,3.78,7.93,6.5,5.1,2.64,24.22,2.8,39.15-2.41,10.91-3.81,19.05-16.49,22.29-22.28-1.16.17-2.37.24-3.59.23-4.94-.07-10.18-1.65-14.5-4.7-3.85-2.72-6.06-6.85-6.39-11.95-.24-3.75.62-6.72.65-6.84.29-.97,1.31-1.53,2.29-1.24.97.29,1.53,1.31,1.24,2.29-.13.42-2.73,9.77,4.32,14.74,7.8,5.49,17.82,4.92,22.31.92.99-.88,2.43-1.97,4.26-3.35,6.58-4.97,17.84-13.49,21.97-23.57.12-.4.25-.79.36-1.19.69-2.45,1.07-4.69,1.22-6.72-.05-4.36-1.54-8.24-4.38-11.29-3.53-3.8-8.3-5.54-11.46-5.59-.42,0-.81-.15-1.11-.39-9.96,17.44-30.84,28.61-38.52,31.49-2.69,1.01-5.75,1.45-8.91,1.4-9.77-.14-20.49-4.93-24.4-11.91-5.13-9.17-1.78-22.4,7.48-29.49,8.93-6.84,25.73-4.92,26.44-4.83,1.01.12,1.73,1.04,1.61,2.05-.12,1.01-1.04,1.72-2.05,1.61-.16-.02-16.02-1.83-23.77,4.1-7.73,5.92-10.7,17.27-6.5,24.78,4.25,7.59,19.59,12.31,28.8,8.85,4.96-1.86,13.63-6.37,21.75-13,6.73-5.49,15.41-14.38,18.56-25.59,2.43-8.64,2.26-15.41-.49-20.1-1.8-3.05-4.39-4.67-6.49-5.52-7.85-.88-21.33,2.89-25.97,4.29-4.43,5.24-7.75,9.12-8.95,10.51-.66.77-1.82.86-2.59.19-.77-.66-.86-1.83-.19-2.6,19.91-23.17,51.88-61.93,52.86-67.32,1.06-5.84.39-10.26-2.05-13.52-2.72-3.61-7.72-5.82-14.89-6.57-16.05-1.66-27.94,19.11-42.98,45.4-2.27,3.96-4.61,8.06-7.06,12.25-19.46,33.25-40.57,42.42-41.46,42.79-.6.25-1.3.17-1.82-.23-.52-.4-.79-1.04-.72-1.69.03-.25,2.8-24.59-6.62-40.69-7-11.95-19.28-18.24-37.54-19.24-5.97-.33-11.47,1.69-14.69,5.4-.28.33-.54.67-.79,1.02-2.63,6.02-1.11,14.3,1.62,19.27,1.76,1.65,4.01,2.73,6.64,3.99,4.61,2.2,10.33,4.93,15.03,12.21Zm44.34,85.69c.05-.02,5.5-2.53,11.73-6.64,4.06-2.68,6.32-6.36,7.67-8.56.88-1.44,1.42-2.31,2.27-2.72.92-.44,2.01-.06,2.46.86.41.84.11,1.84-.65,2.34-.2.24-.61.9-.94,1.45-1.51,2.46-4.04,6.58-8.78,9.71-6.48,4.28-12,6.81-12.23,6.92-.26.12-.52.17-.79.17-.69-.01-1.34-.41-1.65-1.08-.42-.92-.01-2.02.91-2.44Z"/><path class="cls-6" d="m316.37,186.95c1.72-1.85,3.13-3.79,4.33-5.77-.54.8-1.12,1.63-1.74,2.47-.85,1.16-1.72,2.26-2.59,3.3Z"/><path class="cls-4" d="m232.68,208.83c-3.02,3.99-51.57,67.53-82.79,84.56-18.91,10.31-31.15,9.9-39.34,7.15-.11-.04-.22-.08-.32-.11-3.86-1.35-6.8-3.2-9.1-4.66-.39-.25-.77-.49-1.13-.71-.55-.34-1.07-.65-1.56-.91-5.94-3.23-29.49-25.65-48.41-43.67-7.29-6.95-14.17-13.5-19.84-18.79-9.77-9.09-18.11-18.1-24.54-25.55-.03-4.03-.02-8.09.04-12.18.17-12.02.73-23.75,1.64-35.11,1.16.28,2.33.64,3.47,1.1,15.71,6.34,40.07,30.31,56.2,46.19l1.55,1.52c8.22,8.08,26.23,22.22,40.9,32.7,3.98,2.85,7.72,5.43,10.94,7.54.11.07.22.14.32.21,4.82,3.14,8.46,5.22,10.02,5.55,4.8,1.03,8.84-2.75,13.95-7.53,2.32-2.18,4.96-4.66,8.06-7.06,9.52-7.39,50.99-48.39,54.5-52.28,2.88,3.14,8.76,9.48,11.44,11.65,3.01,2.46,11.32,8.46,14,10.39Z"/><path class="cls-5" d="m97.11,297.62c2.18,1.67,4.3,3.14,6.27,4.27,2.19,1.26,4.59,2.09,7.18,2.57-4.93-1.49-8.59-3.8-11.4-5.57-.76-.49-1.44-.91-2.05-1.26Z"/><path class="cls-2" d="m244.64,173.45c.26,0,.53-.05.79-.17.23-.11,5.75-2.64,12.23-6.92,4.74-3.13,7.27-7.25,8.78-9.71.33-.54.74-1.21.94-1.45.76-.5,1.06-1.5.65-2.34-.44-.91-1.54-1.3-2.46-.86-.86.41-1.39,1.28-2.27,2.72-1.35,2.2-3.61,5.88-7.67,8.56-6.23,4.12-11.68,6.62-11.73,6.64-.92.42-1.33,1.51-.91,2.44.31.67.96,1.07,1.65,1.08Zm22.53-18.12s0,0,0,0c0,0,0,0,0,0Z"/><path class="cls-2" d="m74.39,275.58c-4.98-6.41-50.29-49.81-56.68-54.93-2.72-2.18-7.21-7.11-12.06-12.83.01,1.33.03,2.66.06,3.99,6.05,6.84,13.48,14.68,21.96,22.58,5.66,5.27,12.54,11.82,19.82,18.76,21.05,20.04,42.82,40.78,49.19,44.24.14.07.28.16.42.24-9.23-7.08-19.42-17.8-22.72-22.04Z"/><path class="cls-2" d="m353.5,118.42c-4.35-4.68-9.9-6.53-13.57-6.74.95-2.02,1.75-4.12,2.36-6.29,2.71-9.64,2.42-17.37-.87-22.96-3.15-5.36-8.17-7.25-10.87-7.89-5.6-1.34-14.38.95-19.87,2.73,15.7-18.74,38.82-47.08,39.86-52.75,1.25-6.9.36-12.26-2.74-16.38-3.35-4.46-9.22-7.17-17.45-8.02-18.43-1.9-30.84,19.78-46.55,47.24-2.26,3.95-4.6,8.04-7.04,12.21-14.69,25.1-30.57,36.12-36.89,39.77.46-7.54.6-25.95-7.38-39.59-7.67-13.1-20.92-19.99-40.51-21.06-7.1-.39-13.72,2.1-17.67,6.65-2.54,2.92-5.23,8.12-3.62,16.3,1.71,8.66,6.84,11.11,12.28,13.71,4.62,2.21,9.39,4.49,13.53,10.89,6.71,10.4,5.2,24.21,3.87,36.4-.45,4.1-.87,7.98-.92,11.39-.06,3.86,1.75,8.05,4.4,12.12-1.61-.1-3.53-.05-5.39.43-4.09,1.07-6.68,3.95-7.53,8.32-1.49,7.78,6.78,19.73,14.45,28.84-.33.11-.64.32-.87.62,0,0,0,0-.01.01-.01.02-.03.04-.04.05-2.48,2.77-44.58,44.46-53.94,51.72-3.23,2.51-5.94,5.04-8.33,7.28-4.49,4.2-7.74,7.24-10.65,6.62-4.91-1.05-45-29.91-60.38-45.03l-1.54-1.52c-16.34-16.08-41.03-40.36-57.41-46.97-1.49-.6-3.01-1.05-4.54-1.39-.06.68-.12,1.35-.18,2.03,5.6,1.68,10.28,4.86,13.22,6.21,14.24,6.58,65.6,63.95,103.86,85.37,9.71,5.44,11.56,2.1,11.56,2.1l69.49-65.91s.64.71,1.65,1.82c.11-.13.19-.21.22-.26.04-.07.08-.13.12-.2,4.96,5.65,9.2,9.74,9.65,10.16,4.55,4.35,10.13,8.4,15.86,11.87-.09.08-.18.17-.25.27-.01.02-.07.09-.15.2.53.38.85.61.85.61,0,0-24.32,30.64-33.13,40.53-8.81,9.88-39.32,42.17-55.39,48.29-12.66,4.82-24.82,7.97-34.46,6.19,2.83.86,6.08,1.45,9.83,1.5,7.95.12,18.13-2.17,31.27-9.33,32.77-17.88,82.04-83.01,84.12-85.78.17-.22.27-.47.32-.72,10.64,6.03,21.27,9.94,26.38,10.01.26,0,.5,0,.72-.02,1.7-.11,3.13-.9,4.13-2.27,2.61-3.56,1.74-10.63,1.08-14.17.93.05,1.89.09,2.89.1,8.66.13,19.53-1.24,28.66-4.42,5.69-1.99,11.2-6.16,16.41-12.41-3.61,3.89-8.54,7.41-15.59,10.21-16.52,6.57-34.1,4.75-34.1,4.75,0,0,2.06,13.49-1.89,15.99-3.95,2.5-36.22-12.29-47.13-22.84-10.92-10.55-29.76-36.48-24.23-42.02,5.53-5.54,13.72-4.93,13.72-4.93,0,0-6.98-4.06-5.34-34.52,1.64-30.46-6.72-34.11-20.55-41.68-1.19-.65-2.36-2.04-3.37-3.87-1.71-1.6-2.95-3.74-3.62-7.11-.94-4.79-.25-8.97,2-12.16,2.23-5.11,7.45-8.58,17.47-7,26.17,4.13,36.15,13.96,40.48,24,7.07,16.41,2.17,38.69,5.24,36.44,37.27-27.32,39.63-39.14,47.73-57.41,8.1-18.27,28.42-49.88,50.71-41.77,16.52,6.01,13.33,20.29,3.96,32.08-9.37,11.78-37.71,48.47-37.71,48.47,0,0,.6-.19,1.63-.51.14-.16.27-.32.41-.48.29.03.59,0,.88-.12.15-.06,15.3-6.1,22.61-4.35.58.14,1.29.35,2.07.67,2.25.25,4.03.88,5.02,2.06,5.19,6.21,6.77,14.57,4.82,19.83-1.95,5.25-4.12,11.45-4.12,11.45.77-.14,19.01,1.91,17.71,20.1,0,.46,0,.92-.03,1.39-.13,2.23-.69,4.41-1.55,6.52-7.18,23.43-27.89,29.67-28.05,30.14-1.25,3.66-2.71,7.36-4.85,10.91,3.19-4.72,5.01-8.52,5.19-8.91,1.46-.63,2.78-1.45,3.93-2.47.88-.78,2.35-1.88,4.04-3.16,8.43-6.37,24.13-18.23,24.98-32.82.35-5.95-1.5-11.27-5.33-15.4Z"/><path class="cls-2" d="m191.75,42.37c18.27,1,30.55,7.29,37.54,19.24,9.42,16.09,6.65,40.44,6.62,40.69-.08.65.2,1.29.72,1.69.53.39,1.22.48,1.82.23.89-.37,22.01-9.54,41.46-42.79,2.45-4.19,4.8-8.28,7.06-12.25,15.04-26.3,26.93-47.06,42.98-45.4,7.17.74,12.18,2.95,14.89,6.57,2.44,3.26,3.12,7.68,2.05,13.52-.98,5.38-32.94,44.15-52.86,67.32-.66.77-.57,1.94.19,2.6.77.66,1.93.57,2.59-.19,1.21-1.4,4.53-5.27,8.95-10.51-1.03.31-1.63.51-1.63.51,0,0,28.34-36.68,37.71-48.47,9.37-11.78,12.56-26.07-3.96-32.08-22.29-8.1-42.61,23.5-50.71,41.77-8.1,18.27-10.46,30.09-47.73,57.41-3.07,2.25,1.82-20.02-5.24-36.44-4.32-10.04-14.31-19.87-40.48-24-10.01-1.58-15.24,1.89-17.47,7,.25-.35.5-.69.79-1.02,3.22-3.7,8.72-5.73,14.69-5.4Z"/><path class="cls-2" d="m338.24,84.3c2.75,4.7,2.92,11.46.49,20.1-3.15,11.22-11.83,20.11-18.56,25.59-8.12,6.62-16.79,11.14-21.75,13-9.21,3.45-24.55-1.27-28.8-8.85-4.21-7.51-1.23-18.86,6.5-24.78,7.74-5.93,23.61-4.12,23.77-4.1,1.01.11,1.93-.6,2.05-1.61.12-1.01-.6-1.93-1.61-2.05-.71-.08-17.51-2.01-26.44,4.83-9.25,7.09-12.61,20.32-7.48,29.49,3.9,6.98,14.63,11.77,24.4,11.91,3.15.05,6.21-.39,8.91-1.4,7.68-2.88,28.55-14.05,38.52-31.49.3.24.69.39,1.11.39,3.16.05,7.93,1.79,11.46,5.59,2.84,3.05,4.34,6.93,4.38,11.29,1.31-18.19-16.94-20.24-17.71-20.1,0,0,2.17-6.2,4.12-11.45,1.95-5.25.37-13.62-4.82-19.83-.98-1.18-2.77-1.81-5.02-2.06,2.1.85,4.69,2.46,6.49,5.52Z"/><path class="cls-2" d="m353.6,140.13c-4.13,10.09-15.39,18.6-21.97,23.57-1.83,1.38-3.27,2.47-4.26,3.35-4.49,3.99-14.52,4.57-22.31-.92-7.05-4.98-4.45-14.32-4.32-14.74.29-.98-.27-2-1.24-2.29-.98-.29-2,.27-2.29,1.24-.04.13-.9,3.09-.65,6.84.32,5.1,2.53,9.23,6.39,11.95,4.32,3.05,9.56,4.63,14.5,4.7,1.22.02,2.42-.06,3.59-.23-3.24,5.79-11.38,18.47-22.29,22.28-14.94,5.21-34.05,5.05-39.15,2.41-5.23-2.71-7.9-6.46-7.93-6.5-.58-.83-1.72-1.04-2.56-.46-.84.58-1.05,1.72-.47,2.56.13.19,3.17,4.52,9.26,7.67,1.55.8,3.86,1.4,6.7,1.77.83,3.9,1.42,10.08-.24,12.35-.37.5-.79.73-1.41.77-6.16.42-29.52-9.56-43.18-22.62-13.35-12.76-26.73-30.5-25.25-38.23,1.16-6.07,6.5-6.19,11.57-5.52.25.03.46.06.65.08,7.1,8.95,16.91,16.41,17.55,16.9.32.24.71.37,1.08.37.57,0,1.13-.24,1.5-.74.62-.81.45-1.96-.36-2.58-.06-.04-6.07-4.6-11.96-10.67-7.56-7.79-11.52-14.49-11.44-19.37.05-3.23.46-7.03.9-11.04,1.33-12.16,3-27.29-4.43-38.8-4.7-7.27-10.43-10.01-15.03-12.21-2.62-1.25-4.88-2.34-6.64-3.99,1.01,1.84,2.18,3.22,3.37,3.87,13.83,7.57,22.19,11.22,20.55,41.68-1.64,30.46,5.34,34.52,5.34,34.52,0,0-8.19-.61-13.72,4.93-5.53,5.54,13.31,31.47,24.23,42.02,10.92,10.55,43.18,25.33,47.13,22.84,3.95-2.5,1.89-15.99,1.89-15.99,0,0,17.58,1.82,34.1-4.75,7.05-2.8,11.98-6.32,15.59-10.21.87-1.04,1.74-2.14,2.59-3.3.62-.84,1.2-1.67,1.74-2.47,2.14-3.55,3.6-7.25,4.85-10.91.16-.48,20.87-6.71,28.05-30.14Z"/><path class="cls-2" d="m207.24,186.79c-3.51,3.89-44.98,44.89-54.5,52.28-3.1,2.4-5.74,4.88-8.06,7.06-5.11,4.78-9.15,8.56-13.95,7.53-1.56-.33-5.2-2.41-10.02-5.55-.1-.07-.21-.14-.32-.21-3.22-2.11-6.96-4.69-10.94-7.54-14.67-10.48-32.68-24.62-40.9-32.7l-1.55-1.52c-16.13-15.88-40.49-39.85-56.2-46.19-1.14-.46-2.31-.82-3.47-1.1.04-.55.08-1.11.13-1.66,5.59,1.68,10.28,4.86,13.21,6.21,1.33.62,2.99,1.68,4.94,3.12.32.24.65.48.99.74,0,0,0,0,0,.01.34.26.69.53,1.04.81,2.85,2.25,6.19,5.12,9.92,8.46.91.81,1.85,1.66,2.81,2.54.48.43.97.88,1.47,1.34s1.01.92,1.51,1.38c1.52,1.4,3.1,2.85,4.72,4.35.79.73,1.6,1.48,2.41,2.23,1.48,1.38,2.99,2.78,4.53,4.2.97.9,1.95,1.81,2.94,2.73,2.56,2.37,5.19,4.8,7.87,7.25,1.07.98,2.15,1.97,3.24,2.96.02.02.04.03.06.06,1.61,1.46,3.24,2.94,4.88,4.4.55.5,1.11.99,1.67,1.49,1.67,1.48,3.35,2.97,5.03,4.45,1.13.99,2.26,1.97,3.39,2.94.56.49,1.13.98,1.7,1.46.57.48,1.14.96,1.7,1.45.57.48,1.14.96,1.71,1.44,1,.84,2.01,1.68,3.01,2.51.14.1.27.22.4.33,2.85,2.34,5.7,4.62,8.53,6.82,2.83,2.19,5.65,4.29,8.43,6.28.47.34.93.67,1.4.99,1.47,1.04,2.93,2.04,4.38,3,.58.39,1.16.77,1.73,1.13,1.17.76,2.33,1.49,3.48,2.19.1.06.21.13.32.19,1.23.74,2.44,1.46,3.65,2.13,9.71,5.43,11.56,2.1,11.56,2.1l69.49-65.91s.64.71,1.65,1.82Z"/><path class="cls-2" d="m233.53,209.44s-24.32,30.65-33.13,40.53c-8.81,9.88-39.31,42.17-55.38,48.29-12.67,4.82-24.83,7.97-34.46,6.19-.34-.1-.68-.21-1.01-.32-.11-.04-.22-.08-.33-.12-.27-.09-.53-.19-.79-.28-.46-.18-.91-.35-1.34-.53-.55-.23-1.07-.47-1.58-.71-.46-.22-.9-.44-1.33-.66-1.93-1-3.59-2.04-5.02-2.95-.04-.02-.07-.05-.11-.07-.53-.34-1.02-.65-1.47-.91-.16-.1-.32-.19-.47-.28-9.23-7.08-19.42-17.8-22.72-22.04-4.98-6.41-50.29-49.81-56.68-54.93-2.72-2.19-7.2-7.12-12.05-12.83-.01-.56-.01-1.12-.01-1.68,6.43,7.45,14.77,16.46,24.54,25.55,5.67,5.29,12.55,11.84,19.84,18.79,18.92,18.02,42.47,40.44,48.41,43.67.49.26,1.01.57,1.56.91.36.22.74.46,1.13.71,2.3,1.46,5.24,3.31,9.1,4.66.1.03.21.07.32.11,8.19,2.75,20.43,3.16,39.34-7.15,31.22-17.03,79.77-80.57,82.79-84.56.54.39.85.61.85.61Z"/><polygon class="cls-6" points="38.75 42.46 40.62 42.5 41.71 40.98 42.26 42.77 44.04 43.34 42.5 44.41 42.51 46.28 41.02 45.15 39.25 45.74 39.86 43.97 38.75 42.46"/><polygon class="cls-6" points="41.37 121.24 43.24 121.28 44.33 119.76 44.87 121.55 46.66 122.12 45.12 123.18 45.13 125.05 43.64 123.92 41.87 124.51 42.48 122.75 41.37 121.24"/><polygon class="cls-6" points="73.92 73.45 75.79 73.48 76.88 71.96 77.42 73.75 79.2 74.32 77.67 75.39 77.68 77.26 76.19 76.13 74.42 76.72 75.03 74.95 73.92 73.45"/><path class="cls-6" d="m53.99,80.34l-2.72.97-.69.25-.69.25-.41.14c-1.02.36-1.81,1.2-2.12,2.24l-2.45,8.24-1.67-8.52c-.24-1.2-1.05-2.19-2.19-2.65l-4.28-1.74,4.47-2.05c1.07-.49,1.9-1.42,2.26-2.54l2.35-7.31,1.15,7.87c.18,1.18.93,2.17,2.01,2.65l1.72.76.55.24.55.24,2.16.96Z"/><path class="cls-2" d="m55.51,79.94l-3.41-1.51-.55-.24-.55-.24-1.59-.7c-.78-.34-1.31-1.05-1.44-1.89l-1.46-9.96c-.03-.23-.22-.4-.44-.42-.23-.04-.44.12-.51.34l-3,9.32c-.28.86-.92,1.58-1.74,1.95l-5.5,2.52c-.18.08-.29.26-.28.46,0,.19.12.37.31.44l5.34,2.16c.82.34,1.42,1.06,1.59,1.93l2.06,10.47c.04.22.23.38.46.4h0c.22,0,.42-.14.49-.35l3.02-10.15c.19-.65.65-1.18,1.25-1.48.08-.04.17-.08.26-.11l.43-.16.69-.25,4.54-1.62c.19-.07.32-.24.33-.44,0-.2-.11-.39-.29-.47Zm-4.24,1.37l-.69.25-.69.25-.41.14c-1.02.36-1.81,1.2-2.12,2.24l-2.45,8.24-1.67-8.52c-.24-1.2-1.05-2.19-2.19-2.65l-4.28-1.74,4.47-2.05c1.07-.49,1.9-1.42,2.26-2.54l2.35-7.31,1.15,7.87c.18,1.18.93,2.17,2.01,2.65l1.72.76.55.24.55.24,2.16.96-2.72.97Z"/><path class="cls-6" d="m78.44,307.28l-2.72.97-.69.25-.69.25-.41.14c-1.02.36-1.81,1.2-2.12,2.24l-2.45,8.24-1.67-8.52c-.24-1.2-1.05-2.19-2.19-2.65l-4.28-1.74,4.47-2.05c1.07-.49,1.9-1.42,2.26-2.54l2.35-7.31,1.15,7.87c.18,1.18.93,2.17,2.01,2.65l1.72.76.55.24.55.24,2.16.96Z"/><path class="cls-2" d="m79.96,306.87l-3.41-1.51-.55-.24-.55-.24-1.59-.7c-.78-.34-1.31-1.05-1.44-1.89l-1.46-9.96c-.03-.23-.22-.4-.44-.42-.23-.04-.44.12-.51.34l-3,9.32c-.28.86-.92,1.58-1.74,1.95l-5.5,2.52c-.18.08-.29.26-.28.46,0,.19.12.37.31.44l5.34,2.16c.82.34,1.42,1.06,1.59,1.93l2.06,10.47c.04.22.23.38.46.4h0c.22,0,.42-.14.49-.35l3.02-10.15c.19-.65.65-1.18,1.25-1.48.08-.04.17-.08.26-.11l.43-.16.69-.25,4.54-1.62c.19-.07.32-.24.33-.44,0-.2-.11-.39-.29-.47Zm-4.24,1.37l-.69.25-.69.25-.41.14c-1.02.36-1.81,1.2-2.12,2.24l-2.45,8.24-1.67-8.52c-.24-1.2-1.05-2.19-2.19-2.65l-4.28-1.74,4.47-2.05c1.07-.49,1.9-1.42,2.26-2.54l2.35-7.31,1.15,7.87c.18,1.18.93,2.17,2.01,2.65l1.72.76.55.24.55.24,2.16.96-2.72.97Z"/><path class="cls-6" d="m58.89,290.93l-1.54.55-.39.14-.39.14-.23.08c-.58.21-1.03.68-1.2,1.27l-1.39,4.68-.95-4.84c-.13-.68-.6-1.24-1.24-1.51l-2.43-.99,2.54-1.16c.61-.28,1.08-.8,1.29-1.44l1.34-4.15.65,4.47c.1.67.53,1.23,1.14,1.5l.98.43.31.14.31.14,1.23.54Z"/><path class="cls-2" d="m59.76,290.7l-1.94-.86-.31-.14-.31-.14-.9-.4c-.44-.19-.75-.6-.82-1.07l-.83-5.66c-.02-.13-.12-.23-.25-.24-.13-.02-.25.07-.29.19l-1.7,5.29c-.16.49-.52.89-.99,1.11l-3.12,1.43c-.1.05-.16.15-.16.26,0,.11.07.21.17.25l3.03,1.23c.47.19.81.6.9,1.1l1.17,5.95c.02.13.13.22.26.23h0c.13,0,.24-.08.28-.2l1.72-5.77c.11-.37.37-.67.71-.84.05-.02.1-.04.15-.06l.25-.09.39-.14,2.58-.92c.11-.04.18-.14.18-.25,0-.11-.06-.22-.17-.27Zm-2.41.78l-.39.14-.39.14-.23.08c-.58.21-1.03.68-1.2,1.27l-1.39,4.68-.95-4.84c-.13-.68-.6-1.24-1.24-1.51l-2.43-.99,2.54-1.16c.61-.28,1.08-.8,1.29-1.44l1.34-4.15.65,4.47c.1.67.53,1.23,1.14,1.5l.98.43.31.14.31.14,1.23.54-1.54.55Z"/><polygon class="cls-6" points="20.24 252.68 22.11 252.72 23.2 251.2 23.74 252.99 25.52 253.56 23.99 254.62 24 256.49 22.51 255.36 20.74 255.95 21.35 254.19 20.24 252.68"/></g></svg>