<?xml version="1.0" encoding="UTF-8"?><svg id="Capa_2" xmlns="http://www.w3.org/2000/svg" viewBox="0 0 722.44 657.61"><defs><style>.cls-1,.cls-2,.cls-3,.cls-4,.cls-5,.cls-6,.cls-7,.cls-8{stroke-width:0px;}.cls-2{fill:#f54f36;}.cls-3{fill:#a3a3a3;}.cls-4{fill:#bcbcbc;}.cls-5{fill:#686868;}.cls-6{fill:#fff;}.cls-7{fill:#fff6c2;}.cls-8{fill:#e5e5e5;}</style></defs><g id="Capa_1-2"><path class="cls-8" d="m104.38,439.67h-.01s-.03,0-.05.01l-10.6,27.33,6.37-1.86.02-.04h0s10.57-27.23,10.57-27.23c-3.74,1.09-5.46,1.57-6.3,1.79Zm0,0h-.01s-.03,0-.05.01l-10.6,27.33,6.37-1.86.02-.04h0s10.57-27.23,10.57-27.23c-3.74,1.09-5.46,1.57-6.3,1.79Zm5.13-3.6l-32.07-15.41-5.76,1.61h-.01l-.13.03,32.16,15.46c.85-.21,3.44-.96,5.86-1.66l-.05-.03Zm-5.13,3.6h-.01s-.03,0-.05.01l-10.6,27.33,6.37-1.86.02-.04h0s10.57-27.23,10.57-27.23c-3.74,1.09-5.46,1.57-6.3,1.79Zm0,0h-.01s-.03,0-.05.01l-10.6,27.33,6.37-1.86.02-.04h0s10.57-27.23,10.57-27.23c-3.74,1.09-5.46,1.57-6.3,1.79Zm5.13-3.6l-32.07-15.41-5.76,1.61h-.01l-.13.03,32.16,15.46c.85-.21,3.44-.96,5.86-1.66l-.05-.03Zm0,0l-32.07-15.41-5.76,1.61h-.01l-.13.03,32.16,15.46c.85-.21,3.44-.96,5.86-1.66l-.05-.03Zm-5.13,3.6h-.01s-.03,0-.05.01l-10.6,27.33,6.37-1.86.02-.04h0s10.57-27.23,10.57-27.23c-3.74,1.09-5.46,1.57-6.3,1.79Zm0,0h-.01s-.03,0-.05.01l-10.6,27.33,6.37-1.86.02-.04h0s10.57-27.23,10.57-27.23c-3.74,1.09-5.46,1.57-6.3,1.79Zm5.13-3.6l-32.07-15.41-5.76,1.61h-.01l-.13.03,32.16,15.46c.85-.21,3.44-.96,5.86-1.66l-.05-.03Zm0,0l-32.07-15.41-5.76,1.61h-.01l-.13.03,32.16,15.46c.85-.21,3.44-.96,5.86-1.66l-.05-.03Zm-5.13,3.6h-.01s-.03,0-.05.01l-10.6,27.33,6.37-1.86.02-.04h0s10.57-27.23,10.57-27.23c-3.74,1.09-5.46,1.57-6.3,1.79Zm0,0h-.01s-.03,0-.05.01l-10.6,27.33,6.37-1.86.02-.04h0s10.57-27.23,10.57-27.23c-3.74,1.09-5.46,1.57-6.3,1.79Zm5.13-3.6l-32.07-15.41-5.76,1.61h-.01l-.13.03,32.16,15.46c.85-.21,3.44-.96,5.86-1.66l-.05-.03Zm0,0l-32.07-15.41-5.76,1.61h-.01l-.13.03,32.16,15.46c.85-.21,3.44-.96,5.86-1.66l-.05-.03Zm-5.13,3.6h-.01s-.03,0-.05.01l-10.6,27.33,6.37-1.86.02-.04h0s10.57-27.23,10.57-27.23c-3.74,1.09-5.46,1.57-6.3,1.79Zm0,0h-.01s-.03,0-.05.01l-10.6,27.33,6.37-1.86.02-.04h0s10.57-27.23,10.57-27.23c-3.74,1.09-5.46,1.57-6.3,1.79Zm5.13-3.6l-32.07-15.41-5.76,1.61h-.01l-.13.03,32.16,15.46c.85-.21,3.44-.96,5.86-1.66l-.05-.03Zm0,0l-32.07-15.41-5.76,1.61h-.01l-.13.03,32.16,15.46c.85-.21,3.44-.96,5.86-1.66l-.05-.03Zm-5.13,3.6h-.01s-.03,0-.05.01l-10.6,27.33,6.37-1.86.02-.04h0s10.57-27.23,10.57-27.23c-3.74,1.09-5.46,1.57-6.3,1.79Zm0,0h-.01s-.03,0-.05.01l-10.6,27.33,6.37-1.86.02-.04h0s10.57-27.23,10.57-27.23c-3.74,1.09-5.46,1.57-6.3,1.79Zm5.13-3.6l-32.07-15.41-5.76,1.61h-.01l-.13.03,32.16,15.46c.85-.21,3.44-.96,5.86-1.66l-.05-.03Zm0,0l-32.07-15.41-5.76,1.61h-.01l-.13.03,32.16,15.46c.85-.21,3.44-.96,5.86-1.66l-.05-.03Zm-5.13,3.6h-.01s-.03,0-.05.01l-10.6,27.33,6.37-1.86.02-.04h0s10.57-27.23,10.57-27.23c-3.74,1.09-5.46,1.57-6.3,1.79Zm0,0h-.01s-.03,0-.05.01l-10.6,27.33,6.37-1.86.02-.04h0s10.57-27.23,10.57-27.23c-3.74,1.09-5.46,1.57-6.3,1.79Zm5.13-3.6l-32.07-15.41-5.76,1.61h-.01l-.13.03,32.16,15.46c.85-.21,3.44-.96,5.86-1.66l-.05-.03Zm0,0l-32.07-15.41-5.76,1.61h-.01l-.13.03,32.16,15.46c.85-.21,3.44-.96,5.86-1.66l-.05-.03Zm-5.13,3.6h-.01s-.03,0-.05.01l-10.6,27.33,6.37-1.86.02-.04h0s10.57-27.23,10.57-27.23c-3.74,1.09-5.46,1.57-6.3,1.79Zm0,0h-.01s-.03,0-.05.01l-10.6,27.33,6.37-1.86.02-.04h0s10.57-27.23,10.57-27.23c-3.74,1.09-5.46,1.57-6.3,1.79Zm5.13-3.6l-32.07-15.41-5.76,1.61h-.01l-.13.03,32.16,15.46c.85-.21,3.44-.96,5.86-1.66l-.05-.03Zm608.03-21.73c-1.07-2.61-3.09-4.63-5.69-5.7l-48.38-20.05c-.73-.31-1.22-1.01-1.24-1.8-.89-32.69-2.51-82.34-3.37-86.59-.3-.67-.22-1.49.29-2.1.01-.03.04-.04.07-.07.09-.09.18-.19.27-.26.11-.08.22-.15.34-.2v-.03l-.28-4.46v-.09l-126.71,285.54c-.76,1.71-1.69,3.3-2.76,4.78-.16.21-.33.42-.49.62-.26.32-.53.63-.8.96-.28.31-.56.61-.84.9-.3.3-.6.59-.9.87-.3.28-.62.56-.93.82-.23.2-.46.38-.71.57-.07.04-.13.09-.19.14-.11.08-.22.16-.32.24-.15.1-.28.21-.44.31-.25.18-.51.36-.78.52-.26.18-.53.35-.79.49-1.38.83-2.85,1.5-4.39,2.05-4.3,1.52-8.81,1.82-13.14.92-2.16-.45-4.26-1.19-6.28-2.23-1.95-.99-5.2-2.55-9.17-4.45-.57-.27-1.16-.56-1.75-.85-.03-.01-.05-.02-.08-.03.03.28-.02.58-.13.87l-23.99,61.23c2.25.42,4.51.66,6.8.76l137.98,5.62c.43.02.85.02,1.27,0,.21-.01.42-.02.63-.04.21-.01.41-.03.62-.06.21-.02.42-.05.62-.08.19-.02.38-.05.57-.09.2-.03.39-.07.59-.12.39-.08.78-.18,1.16-.3.2-.05.39-.11.58-.18.19-.06.37-.13.56-.2.4-.15.79-.31,1.18-.5.09-.04.19-.09.28-.13l.06-.03c.18-.09.35-.18.52-.28.02,0,.03-.01.05-.02.08-.03.15-.08.23-.12.13-.06.25-.13.37-.21.17-.1.34-.2.51-.31,0,0,.01,0,.01-.01.38-.24.75-.5,1.11-.77.65-.48,1.27-1.02,1.84-1.61.31-.3.6-.61.87-.94.15-.16.29-.33.43-.5.91-1.18,1.69-2.49,2.29-3.91l92.43-220.84c1.08-2.59,1.09-5.45.02-8.05Zm-608.03,21.73l-32.07-15.41-5.76,1.61h-.01l-.13.03,32.16,15.46c.85-.21,3.44-.96,5.86-1.66l-.05-.03Zm-5.13,3.6h-.01s-.03,0-.05.01l-10.6,27.33,6.37-1.86.02-.04h0s10.57-27.23,10.57-27.23c-3.74,1.09-5.46,1.57-6.3,1.79Zm0,0h-.01s-.03,0-.05.01l-10.6,27.33,6.37-1.86.02-.04h0s10.57-27.23,10.57-27.23c-3.74,1.09-5.46,1.57-6.3,1.79Zm5.13-3.6l-32.07-15.41-5.76,1.61h-.01l-.13.03,32.16,15.46c.85-.21,3.44-.96,5.86-1.66l-.05-.03Zm0,0l-32.07-15.41-5.76,1.61h-.01l-.13.03,32.16,15.46c.85-.21,3.44-.96,5.86-1.66l-.05-.03Zm-5.13,3.6h-.01s-.03,0-.05.01l-10.6,27.33,6.37-1.86.02-.04h0s10.57-27.23,10.57-27.23c-3.74,1.09-5.46,1.57-6.3,1.79Zm0,0h-.01s-.03,0-.05.01l-10.6,27.33,6.37-1.86.02-.04h0s10.57-27.23,10.57-27.23c-3.74,1.09-5.46,1.57-6.3,1.79Zm5.13-3.6l-32.07-15.41-5.76,1.61h-.01l-.13.03,32.16,15.46c.85-.21,3.44-.96,5.86-1.66l-.05-.03Zm0,0l-32.07-15.41-5.76,1.61h-.01l-.13.03,32.16,15.46c.85-.21,3.44-.96,5.86-1.66l-.05-.03Zm-5.13,3.6h-.01s-.03,0-.05.01l-10.6,27.33,6.37-1.86.02-.04h0s10.57-27.23,10.57-27.23c-3.74,1.09-5.46,1.57-6.3,1.79Zm0,0h-.01s-.03,0-.05.01l-10.6,27.33,6.37-1.86.02-.04h0s10.57-27.23,10.57-27.23c-3.74,1.09-5.46,1.57-6.3,1.79Zm5.13-3.6l-32.07-15.41-5.76,1.61h-.01l-.13.03,32.16,15.46c.85-.21,3.44-.96,5.86-1.66l-.05-.03Zm-5.13,3.6h-.01s-.03,0-.05.01l-10.6,27.33,6.37-1.86.02-.04h0s10.57-27.23,10.57-27.23c-3.74,1.09-5.46,1.57-6.3,1.79Zm5.13-3.6l-32.07-15.41-5.76,1.61h-.01l-.13.03,32.16,15.46c.85-.21,3.44-.96,5.86-1.66l-.05-.03Zm-5.13,3.6h-.01s-.03,0-.05.01l-10.6,27.33,6.37-1.86.02-.04h0s10.57-27.23,10.57-27.23c-3.74,1.09-5.46,1.57-6.3,1.79Zm5.13-3.6l-32.07-15.41-5.76,1.61h-.01l-.13.03,32.16,15.46c.85-.21,3.44-.96,5.86-1.66l-.05-.03Zm0,0l-32.07-15.41-5.76,1.61h-.01l-.13.03,32.16,15.46c.85-.21,3.44-.96,5.86-1.66l-.05-.03Zm-5.13,3.6h-.01s-.03,0-.05.01l-10.6,27.33,6.37-1.86.02-.04h0s10.57-27.23,10.57-27.23c-3.74,1.09-5.46,1.57-6.3,1.79Zm0,0h-.01s-.03,0-.05.01l-10.6,27.33,6.37-1.86.02-.04h0s10.57-27.23,10.57-27.23c-3.74,1.09-5.46,1.57-6.3,1.79Zm5.13-3.6l-32.07-15.41-5.76,1.61h-.01l-.13.03,32.16,15.46c.85-.21,3.44-.96,5.86-1.66l-.05-.03Zm0,0l-32.07-15.41-5.76,1.61h-.01l-.13.03,32.16,15.46c.85-.21,3.44-.96,5.86-1.66l-.05-.03Zm-5.13,3.6h-.01s-.03,0-.05.01l-10.6,27.33,6.37-1.86.02-.04h0s10.57-27.23,10.57-27.23c-3.74,1.09-5.46,1.57-6.3,1.79Zm224.12,98.27l-10.39,26.76,4.24,1.89,8.86-22.84c-.96-2.13-2-4.36-2.71-5.81Zm2.15-.23c.54,1.13,1.27,2.7,2.27,4.91l90.38,39.79,1.11-2.86-93.76-41.84Zm92,46.38l-89.82-39.55-8.83,22.79-.02.04,89.7,40.1,9.07-23.34-.1-.04ZM104.38,439.67h-.01s-.03,0-.05.01l-10.6,27.33,6.37-1.86.02-.04h0s10.57-27.23,10.57-27.23c-3.74,1.09-5.46,1.57-6.3,1.79Zm5.18-3.57l-.05-.03-32.07-15.41-5.76,1.61h-.01l-.13.03,32.16,15.46c.85-.21,3.44-.96,5.86-1.66Zm221.09,101.61c.54,1.13,1.27,2.7,2.27,4.91l90.38,39.79,1.11-2.86-93.76-41.84Zm2.18,6.83l-8.83,22.79-.02.04,89.7,40.1,9.07-23.34-.1-.04-89.82-39.55Zm-4.33-6.6l-10.39,26.76,4.24,1.89,8.86-22.84c-.96-2.13-2-4.36-2.71-5.81Zm120.25,25.89c-.59-.08-1.18-.19-1.77-.31-1.67-.35-3.35-.88-4.99-1.6L61.94,395.97l-.04-.02c-.03.11-.06.21-.1.32l-23.63,62.57,414.61,184.97c2.36,1.05,4.78,1.91,7.25,2.57l.03-.07,24.19-61.73c.13-.31.31-.58.55-.79.05-.04.1-.09.16-.13-13.34-6.41-30.2-14.71-36.21-19.83Zm-120.97-29.61l.97.44,98.22,43.83-12.24,31.54-.96-.44-98.23-43.83,12.24-31.54Zm-259.97-112.51c.06-.14.14-.25.25-.35,0-.01.01-.01.01-.01l.04-.04s.03-.04.05-.05c.01-.01.02-.01.03-.01.04-.04.11-.07.17-.1.01,0,.01-.02.02-.02.07-.04.16-.08.26-.12l8.62-2.4c.24-.07.48-.07.71.06l34.83,16.75c.06.03.12.07.18.12.03.03.06.05.09.08.05.03.08.07.11.13.03.04.06.09.08.14.04.07.06.14.08.22.01.07.03.15.03.24,0,.01,0,.02-.01.03.01.08-.01.17-.05.25,0,.06-.02.11-.05.15l-11.47,29.56c-.05.13-.13.24-.23.34-.04.05-.09.08-.15.11-.08.08-.17.13-.28.16l-8.51,2.48c-.11.04-.22.05-.34.03-.13.04-.28.04-.41.01-.08-.02-.16-.04-.23-.09l-34.82-16.74c-.49-.23-.7-.79-.5-1.28l11.49-29.65Zm355.49,160.7l1.11-2.86-93.76-41.84c.54,1.13,1.27,2.7,2.27,4.91l90.38,39.79Zm-.65,1.68l-89.82-39.55-8.83,22.79-.02.04,89.7,40.1,9.07-23.34-.1-.04Zm-94.15-46.15l-10.39,26.76,4.24,1.89,8.86-22.84c-.96-2.13-2-4.36-2.71-5.81Zm-224.13-98.27s-.03,0-.05.01l-10.6,27.33,6.37-1.86.02-.04h0s10.57-27.23,10.57-27.23c-3.74,1.09-5.46,1.57-6.3,1.79h-.01Zm5.19-3.57l-.05-.03-32.07-15.41-5.76,1.61h-.01l-.13.03,32.16,15.46c.85-.21,3.44-.96,5.86-1.66Zm218.94,101.84l-10.39,26.76,4.24,1.89,8.86-22.84c-.96-2.13-2-4.36-2.71-5.81Zm2.15-.23c.54,1.13,1.27,2.7,2.27,4.91l90.38,39.79,1.11-2.86-93.76-41.84Zm92,46.38l-89.82-39.55-8.83,22.79-.02.04,89.7,40.1,9.07-23.34-.1-.04ZM109.51,436.07l-32.07-15.41-5.76,1.61h-.01l-.13.03,32.16,15.46c.85-.21,3.44-.96,5.86-1.66l-.05-.03Zm-5.13,3.6h-.01s-.03,0-.05.01l-10.6,27.33,6.37-1.86.02-.04h0s10.57-27.23,10.57-27.23c-3.74,1.09-5.46,1.57-6.3,1.79Zm318.27,144.42l-89.82-39.55-8.83,22.79-.02.04,89.7,40.1,9.07-23.34-.1-.04Zm-92-46.38c.54,1.13,1.27,2.7,2.27,4.91l90.38,39.79,1.11-2.86-93.76-41.84Zm-2.15.23l-10.39,26.76,4.24,1.89,8.86-22.84c-.96-2.13-2-4.36-2.71-5.81Zm-224.12-98.27h-.01s-.03,0-.05.01l-10.6,27.33,6.37-1.86.02-.04h0s10.57-27.23,10.57-27.23c-3.74,1.09-5.46,1.57-6.3,1.79Zm5.13-3.6l-32.07-15.41-5.76,1.61h-.01l-.13.03,32.16,15.46c.85-.21,3.44-.96,5.86-1.66l-.05-.03Zm0,0l-32.07-15.41-5.76,1.61h-.01l-.13.03,32.16,15.46c.85-.21,3.44-.96,5.86-1.66l-.05-.03Zm-5.13,3.6h-.01s-.03,0-.05.01l-10.6,27.33,6.37-1.86.02-.04h0s10.57-27.23,10.57-27.23c-3.74,1.09-5.46,1.57-6.3,1.79Zm0,0h-.01s-.03,0-.05.01l-10.6,27.33,6.37-1.86.02-.04h0s10.57-27.23,10.57-27.23c-3.74,1.09-5.46,1.57-6.3,1.79Zm5.13-3.6l-32.07-15.41-5.76,1.61h-.01l-.13.03,32.16,15.46c.85-.21,3.44-.96,5.86-1.66l-.05-.03Zm0,0l-32.07-15.41-5.76,1.61h-.01l-.13.03,32.16,15.46c.85-.21,3.44-.96,5.86-1.66l-.05-.03Zm-5.13,3.6h-.01s-.03,0-.05.01l-10.6,27.33,6.37-1.86.02-.04h0s10.57-27.23,10.57-27.23c-3.74,1.09-5.46,1.57-6.3,1.79Zm5.13-3.6l-32.07-15.41-5.76,1.61h-.01l-.13.03,32.16,15.46c.85-.21,3.44-.96,5.86-1.66l-.05-.03Zm-5.13,3.6h-.01s-.03,0-.05.01l-10.6,27.33,6.37-1.86.02-.04h0s10.57-27.23,10.57-27.23c-3.74,1.09-5.46,1.57-6.3,1.79Zm5.13-3.6l-32.07-15.41-5.76,1.61h-.01l-.13.03,32.16,15.46c.85-.21,3.44-.96,5.86-1.66l-.05-.03Zm-5.13,3.6h-.01s-.03,0-.05.01l-10.6,27.33,6.37-1.86.02-.04h0s10.57-27.23,10.57-27.23c-3.74,1.09-5.46,1.57-6.3,1.79Zm0,0h-.01s-.03,0-.05.01l-10.6,27.33,6.37-1.86.02-.04h0s10.57-27.23,10.57-27.23c-3.74,1.09-5.46,1.57-6.3,1.79Zm5.13-3.6l-32.07-15.41-5.76,1.61h-.01l-.13.03,32.16,15.46c.85-.21,3.44-.96,5.86-1.66l-.05-.03Zm0,0l-32.07-15.41-5.76,1.61h-.01l-.13.03,32.16,15.46c.85-.21,3.44-.96,5.86-1.66l-.05-.03Zm-5.13,3.6h-.01s-.03,0-.05.01l-10.6,27.33,6.37-1.86.02-.04h0s10.57-27.23,10.57-27.23c-3.74,1.09-5.46,1.57-6.3,1.79Zm0,0h-.01s-.03,0-.05.01l-10.6,27.33,6.37-1.86.02-.04h0s10.57-27.23,10.57-27.23c-3.74,1.09-5.46,1.57-6.3,1.79Zm5.13-3.6l-32.07-15.41-5.76,1.61h-.01l-.13.03,32.16,15.46c.85-.21,3.44-.96,5.86-1.66l-.05-.03Zm0,0l-32.07-15.41-5.76,1.61h-.01l-.13.03,32.16,15.46c.85-.21,3.44-.96,5.86-1.66l-.05-.03Zm-5.13,3.6h-.01s-.03,0-.05.01l-10.6,27.33,6.37-1.86.02-.04h0s10.57-27.23,10.57-27.23c-3.74,1.09-5.46,1.57-6.3,1.79Zm0,0h-.01s-.03,0-.05.01l-10.6,27.33,6.37-1.86.02-.04h0s10.57-27.23,10.57-27.23c-3.74,1.09-5.46,1.57-6.3,1.79Zm5.13-3.6l-32.07-15.41-5.76,1.61h-.01l-.13.03,32.16,15.46c.85-.21,3.44-.96,5.86-1.66l-.05-.03Zm0,0l-32.07-15.41-5.76,1.61h-.01l-.13.03,32.16,15.46c.85-.21,3.44-.96,5.86-1.66l-.05-.03Zm-5.13,3.6h-.01s-.03,0-.05.01l-10.6,27.33,6.37-1.86.02-.04h0s10.57-27.23,10.57-27.23c-3.74,1.09-5.46,1.57-6.3,1.79Zm0,0h-.01s-.03,0-.05.01l-10.6,27.33,6.37-1.86.02-.04h0s10.57-27.23,10.57-27.23c-3.74,1.09-5.46,1.57-6.3,1.79Zm5.13-3.6l-32.07-15.41-5.76,1.61h-.01l-.13.03,32.16,15.46c.85-.21,3.44-.96,5.86-1.66l-.05-.03Zm0,0l-32.07-15.41-5.76,1.61h-.01l-.13.03,32.16,15.46c.85-.21,3.44-.96,5.86-1.66l-.05-.03Zm-5.13,3.6h-.01s-.03,0-.05.01l-10.6,27.33,6.37-1.86.02-.04h0s10.57-27.23,10.57-27.23c-3.74,1.09-5.46,1.57-6.3,1.79Zm0,0h-.01s-.03,0-.05.01l-10.6,27.33,6.37-1.86.02-.04h0s10.57-27.23,10.57-27.23c-3.74,1.09-5.46,1.57-6.3,1.79Zm5.13-3.6l-32.07-15.41-5.76,1.61h-.01l-.13.03,32.16,15.46c.85-.21,3.44-.96,5.86-1.66l-.05-.03Zm0,0l-32.07-15.41-5.76,1.61h-.01l-.13.03,32.16,15.46c.85-.21,3.44-.96,5.86-1.66l-.05-.03Zm-5.13,3.6h-.01s-.03,0-.05.01l-10.6,27.33,6.37-1.86.02-.04h0s10.57-27.23,10.57-27.23c-3.74,1.09-5.46,1.57-6.3,1.79Zm0,0h-.01s-.03,0-.05.01l-10.6,27.33,6.37-1.86.02-.04h0s10.57-27.23,10.57-27.23c-3.74,1.09-5.46,1.57-6.3,1.79Zm5.13-3.6l-32.07-15.41-5.76,1.61h-.01l-.13.03,32.16,15.46c.85-.21,3.44-.96,5.86-1.66l-.05-.03Zm0,0l-32.07-15.41-5.76,1.61h-.01l-.13.03,32.16,15.46c.85-.21,3.44-.96,5.86-1.66l-.05-.03Zm-5.13,3.6h-.01s-.03,0-.05.01l-10.6,27.33,6.37-1.86.02-.04h0s10.57-27.23,10.57-27.23c-3.74,1.09-5.46,1.57-6.3,1.79Zm0,0h-.01s-.03,0-.05.01l-10.6,27.33,6.37-1.86.02-.04h0s10.57-27.23,10.57-27.23c-3.74,1.09-5.46,1.57-6.3,1.79Zm5.13-3.6l-32.07-15.41-5.76,1.61h-.01l-.13.03,32.16,15.46c.85-.21,3.44-.96,5.86-1.66l-.05-.03Zm0,0l-32.07-15.41-5.76,1.61h-.01l-.13.03,32.16,15.46c.85-.21,3.44-.96,5.86-1.66l-.05-.03Zm-5.13,3.6h-.01s-.03,0-.05.01l-10.6,27.33,6.37-1.86.02-.04h0s10.57-27.23,10.57-27.23c-3.74,1.09-5.46,1.57-6.3,1.79Zm0,0h-.01s-.03,0-.05.01l-10.6,27.33,6.37-1.86.02-.04h0s10.57-27.23,10.57-27.23c-3.74,1.09-5.46,1.57-6.3,1.79Zm5.13-3.6l-32.07-15.41-5.76,1.61h-.01l-.13.03,32.16,15.46c.85-.21,3.44-.96,5.86-1.66l-.05-.03Zm0,0l-32.07-15.41-5.76,1.61h-.01l-.13.03,32.16,15.46c.85-.21,3.44-.96,5.86-1.66l-.05-.03Zm-5.13,3.6h-.01s-.03,0-.05.01l-10.6,27.33,6.37-1.86.02-.04h0s10.57-27.23,10.57-27.23c-3.74,1.09-5.46,1.57-6.3,1.79Zm0,0h-.01s-.03,0-.05.01l-10.6,27.33,6.37-1.86.02-.04h0s10.57-27.23,10.57-27.23c-3.74,1.09-5.46,1.57-6.3,1.79Zm5.13-3.6l-32.07-15.41-5.76,1.61h-.01l-.13.03,32.16,15.46c.85-.21,3.44-.96,5.86-1.66l-.05-.03Zm0,0l-32.07-15.41-5.76,1.61h-.01l-.13.03,32.16,15.46c.85-.21,3.44-.96,5.86-1.66l-.05-.03Zm-5.13,3.6h-.01s-.03,0-.05.01l-10.6,27.33,6.37-1.86.02-.04h0s10.57-27.23,10.57-27.23c-3.74,1.09-5.46,1.57-6.3,1.79Zm0,0h-.01s-.03,0-.05.01l-10.6,27.33,6.37-1.86.02-.04h0s10.57-27.23,10.57-27.23c-3.74,1.09-5.46,1.57-6.3,1.79Zm5.13-3.6l-32.07-15.41-5.76,1.61h-.01l-.13.03,32.16,15.46c.85-.21,3.44-.96,5.86-1.66l-.05-.03Zm-5.13,3.6h-.01s-.03,0-.05.01l-10.6,27.33,6.37-1.86.02-.04h0s10.57-27.23,10.57-27.23c-3.74,1.09-5.46,1.57-6.3,1.79Zm0,0h-.01s-.03,0-.05.01l-10.6,27.33,6.37-1.86.02-.04h0s10.57-27.23,10.57-27.23c-3.74,1.09-5.46,1.57-6.3,1.79Z"/><path class="cls-2" d="m632.05,191.53c0-2.37-.47-4.73-1.39-7.01-1.96-4.84-5.71-8.54-10.58-10.44l-36.44-14.22-1.55-.61-1.56-.61-4.04-1.58-1.69-.67-1.68-.66L187.86,5.32c-.99-.39-1.99-.69-3.01-.9-8.34-1.73-17.08,2.44-20.84,10.36l-98.47,207.47-.72,1.51h0s-.71,1.53-.71,1.53l-2.92,6.14-.87,1.85-.88,1.85L5.63,348.49c-1.91,4.04-2.1,8.56-.55,12.73,1.57,4.19,4.68,7.47,8.77,9.26l47.77,20.86,382.07,166.83c3.79,1.66,7.84,2.12,11.7,1.54,7.01-1.04,13.39-5.49,16.51-12.35l125.87-276.42,32.59-71.55c1.15-2.52,1.72-5.19,1.7-7.86Zm-57.12,26.27l-28.48,62.53-101.86,223.67c-4.12,9.06-14.04,13.82-23.45,11.87-1.38-.29-2.76-.73-4.1-1.31L77.25,366.18h0s-13.72-6-13.72-6c-4.21-1.83-7.39-5.21-9-9.5s-1.41-8.92.55-13.05L185.34,63.16c4.21-8.87,14.68-13,23.83-9.45l355.5,138.82c4.86,1.89,8.6,5.59,10.56,10.41,1.97,4.83,1.85,10.11-.31,14.86Z"/><path class="cls-1" d="m721.34,412.74c-1.49-3.6-4.27-6.41-7.87-7.89l-47.17-19.55c-2.35-85.97-3.36-86.8-4.24-87.54-.63-.51-1.47-.59-2.15-.26-.03.02-.06.03-.08.04v.03c-.12.05-.23.12-.34.2-.09.07-.18.17-.27.26-.5.61-.59,1.43-.29,2.11.87,4.24,2.48,53.9,3.38,86.58.02.79.51,1.5,1.24,1.8l48.37,20.05c2.61,1.08,4.62,3.1,5.69,5.7,1.08,2.6,1.07,5.46-.01,8.05l-92.44,220.84c-.6,1.45-1.41,2.79-2.36,3.98-.14.17-.28.34-.43.5-.27.33-.56.64-.87.94-.57.59-1.19,1.13-1.84,1.61-.36.27-.73.53-1.11.77,0,.01-.01.01-.01.01-.17.11-.34.21-.51.31-.12.08-.24.15-.37.21-.08.04-.15.09-.23.12-.02.01-.03.02-.05.02-.09.07-.19.12-.28.16-.08.05-.16.09-.24.12-.02.02-.04.03-.06.03-.09.05-.19.1-.28.13-.39.19-.78.35-1.18.5-.19.07-.37.14-.56.2-.19.07-.38.13-.58.18-.38.12-.77.22-1.16.3-.2.05-.39.09-.59.12-.19.04-.38.07-.57.09-.2.03-.41.06-.62.08-.21.03-.41.05-.62.06-.21.02-.42.03-.63.04-.42.02-.84.02-1.27,0l-137.98-5.62c-2.29-.1-4.55-.34-6.8-.76l23.99-61.23c.11-.29.16-.59.13-.87.03.01.05.02.08.03v-.1c.62.3,1.23.59,1.83.88,3.96,1.91,7.21,3.46,9.16,4.46,2.02,1.03,4.13,1.77,6.28,2.22,4.34.9,8.84.6,13.14-.92,1.52-.53,2.96-1.2,4.32-1.98.26-.16.53-.33.79-.49.26-.17.52-.35.78-.52.16-.1.29-.21.44-.31.1-.08.21-.16.32-.24.06-.05.12-.1.19-.14.25-.19.48-.37.71-.57.31-.26.63-.54.93-.82.3-.28.6-.57.9-.87.28-.29.56-.59.84-.9.27-.33.54-.64.8-.96.16-.2.33-.41.49-.62,1.07-1.48,2-3.07,2.76-4.78l126.71-285.54v.09l.07-.15h0s18.27-41.18,18.27-41.18c3.95-8.86,2.3-19.25-4.17-26.46-12.75-14.22-41.02-46.3-42.16-47.68l-.15.13c-2.5-3.31-5.87-5.86-9.85-7.41l-36.15-14.11-1.55-.61-1.56-.61-5.95-2.32-1.68-.65-1.69-.67L189.33,1.56c-11.17-4.36-23.84.71-28.96,11.49L62.13,220.03l-.72,1.52-.71,1.52-4.4,9.27-.88,1.84-.91,1.91L1.98,346.76c-2.38,5.03-2.62,10.67-.67,15.88,1.94,5.21,5.83,9.31,10.93,11.53l46.13,20.14c-.11.14-.2.29-.26.46l-24.32,64.35c-.37,1,.09,2.12,1.06,2.55l416.36,185.75c3.5,1.57,7.12,2.73,10.82,3.49,2.84.59,5.73.96,8.64,1.07l137.99,5.61c8.71.36,16.85-4.81,20.21-12.87l92.44-220.84c1.5-3.59,1.51-7.55.03-11.14Zm-85.44-224.05c9.57,10.87,25.96,29.41,34.83,39.29,5.41,6.03,6.77,14.72,3.49,22.14l-15.13,34.08-129.85,292.63c-2.33,5.25-6.59,9.19-12,11.1-5.4,1.9-11.18,1.51-16.25-1.09-1.97-1-5.26-2.59-9.27-4.5-10.66-5.11-27.16-13-36-18.6,8.42-1.17,16.1-6.48,19.85-14.71l127.03-278.98,31.42-69c1.8-3.94,2.43-8.19,1.88-12.36ZM13.85,370.48c-4.09-1.79-7.2-5.07-8.77-9.26-1.55-4.17-1.36-8.69.55-12.73l53.8-113.35.88-1.85.87-1.85,2.92-6.14.72-1.52h0s.72-1.53.72-1.53L164.01,14.78c3.76-7.92,12.5-12.09,20.85-10.36,1.01.21,2.01.51,3.01.9l385.25,150.42,1.68.65,1.69.67,4.05,1.58,1.56.61,1.55.6,36.43,14.23c4.87,1.9,8.63,5.6,10.58,10.44.93,2.27,1.4,4.64,1.4,7.01.02,2.67-.56,5.33-1.71,7.85l-32.58,71.55-125.87,276.43c-3.12,6.86-9.5,11.31-16.51,12.35-3.86.58-7.91.12-11.7-1.54L61.62,391.34l-47.77-20.86Zm446.26,275.84h-.05s-.03.06-.03.06c-2.47-.66-4.89-1.52-7.25-2.57L38.17,458.84l23.63-62.57c.04-.11.07-.21.1-.32l.04.02s.03-.06.03-.09l380.1,165.98c1.64.72,3.31,1.25,4.99,1.59.59.13,1.18.23,1.76.31,6.02,5.12,22.87,13.43,36.22,19.84-.03.02-.06.03-.08.06-.06.04-.11.09-.16.13-.2.2-.37.45-.47.72l-24.22,61.81Z"/><path class="cls-3" d="m572.15,204.11c-1.61-3.98-4.71-7.02-8.7-8.59L207.95,56.71c-.81-.32-1.64-.57-2.47-.74-6.86-1.43-14.06,2-17.15,8.52L58.05,338.96c-1.58,3.32-1.73,7.05-.45,10.48,1.29,3.44,3.85,6.15,7.22,7.62l18.24,7.96,335.29,146.42c8.82,3.83,19.22-.14,23.22-8.89l100.89-221.58,29.43-64.64c1.78-3.91,1.87-8.25.25-12.22Zm-138.57,279.34c-3.89,8.54-13.92,12.38-22.51,8.62L109.17,360.25l-11.55-5.04c-6.93-3.03-9.99-11.18-6.74-18.02l115.49-243.35c3.43-7.2,11.83-10.55,19.27-7.64l315.19,123.07c8.12,3.17,11.9,12.5,8.29,20.43l-24.86,54.6-90.69,199.15Z"/><path class="cls-1" d="m575.24,202.94c-1.96-4.83-5.71-8.53-10.56-10.41L209.17,53.7c-9.15-3.54-19.62.58-23.83,9.45L55.08,337.64c-1.96,4.13-2.16,8.76-.55,13.05s4.79,7.66,9,9.5l13.72,5.99h0s339.8,148.38,339.8,148.38c1.34.58,2.72,1.02,4.1,1.31,9.41,1.95,19.33-2.81,23.45-11.87l101.86-223.67,28.48-62.53c2.16-4.75,2.28-10.03.31-14.86Zm-3.32,13.48l-29.43,64.64-100.89,221.58c-4,8.76-14.41,12.73-23.22,8.89L83.09,365.11l-18.24-7.96c-3.37-1.47-5.94-4.17-7.22-7.62-1.28-3.43-1.13-7.16.45-10.48L188.35,64.58c3.09-6.52,10.29-9.95,17.15-8.52.83.17,1.66.42,2.47.74l355.51,138.81c3.99,1.56,7.08,4.61,8.7,8.59,1.62,3.97,1.53,8.32-.25,12.22Z"/><path class="cls-7" d="m544.18,236.13l-21.95,48.6-8.93,19.79-80.98,177.83c-.43.93-.93,1.8-1.49,2.61-4.77,5.13-12.46,6.95-19.28,4L112.57,359.69l-6.46-2.79c-4.1-3.7-5.49-9.79-3-15.05l110.96-233.77c3.29-6.93,11.36-10.13,18.5-7.34l302.79,118.22c6.97,2.72,10.62,10.19,8.82,17.18Z"/><path class="cls-1" d="m540.85,209.35L225.66,86.28c-7.44-2.9-15.84.44-19.27,7.64l-115.49,243.35c-3.25,6.83-.19,14.98,6.74,18.02l11.55,5.04,301.9,131.82c8.6,3.76,18.63-.09,22.51-8.62l90.69-199.15,24.86-54.6c3.61-7.93-.17-17.27-8.29-20.43Zm3.29,26.81c-.2.83-.48,1.65-.86,2.45l-21.01,46.14-9.01,19.8-80.98,177.83c-.43.93-.93,1.8-1.49,2.61-4.77,5.13-12.46,6.95-19.28,4L112.53,359.72l-6.46-2.79c-4.1-3.7-5.49-9.79-3-15.05l110.96-233.77c3.29-6.93,11.36-10.13,18.5-7.34l302.79,118.22c6.97,2.72,10.62,10.19,8.82,17.18Z"/><path class="cls-1" d="m452.85,643.74L38.24,458.77l23.63-62.57c.03-.08.05-.15.07-.23l-.05-.02c-.02.11-.05.21-.1.32l-23.63,62.57,414.62,184.97c2.36,1.05,4.78,1.91,7.25,2.58l.03-.08c-2.45-.66-4.86-1.52-7.2-2.57Zm206.69-350.75l-126.7,285.54c-.76,1.71-1.7,3.3-2.77,4.78,1.12-1.48,2.06-3.11,2.84-4.84l126.63-285.38h0s0-.09,0-.09Zm.28,4.55c-.12.06-.23.14-.33.23.11-.08.21-.15.34-.21v-.02Zm-51.01,356.02l-137.98-5.62c-2.29-.1-4.56-.34-6.8-.76l23.99-61.23c.09-.26.14-.52.13-.77-.03-.02-.05-.02-.07-.04.02.28-.02.58-.13.87l-23.99,61.23c2.24.41,4.51.66,6.8.76l137.98,5.62c4,.17,7.85-1.12,10.92-3.44-3.07,2.28-6.88,3.53-10.84,3.38Z"/><path class="cls-2" d="m674.21,250.12l-15.12,34.08-129.85,292.63c-2.33,5.24-6.6,9.19-12.01,11.1-5.4,1.9-11.18,1.51-16.25-1.1-1.97-1-5.26-2.58-9.27-4.5-10.66-5.1-27.17-12.99-36-18.6,8.42-1.17,16.1-6.48,19.85-14.71l127.04-278.98,31.42-68.99c1.8-3.95,2.43-8.2,1.88-12.37,9.57,10.87,25.95,29.41,34.82,39.29,5.42,6.04,6.78,14.73,3.49,22.14Z"/><path class="cls-2" d="m109.63,436.04c-2.42.7-5.01,1.45-5.86,1.66l-32.16-15.46,5.9-1.65,32.12,15.44Z"/><path class="cls-2" d="m110.75,437.82l-10.59,27.27-6.37,1.86,10.61-27.33c.82-.2,2.54-.69,6.36-1.8Z"/><path class="cls-1" d="m113.4,436.04c-.02-.07-.04-.14-.08-.22-.02-.05-.05-.09-.08-.14-.03-.06-.06-.09-.11-.12-.04-.03-.06-.05-.1-.08-.05-.05-.12-.09-.18-.12l-34.82-16.75c-.23-.13-.47-.13-.71-.07l-8.62,2.41c-.1.03-.19.07-.26.12,0,0-.01,0-.02.02-.25.1-.44.31-.55.56l-11.5,29.65c-.19.49.02,1.05.5,1.28l34.82,16.74c.07.05.15.07.23.09.14.03.28.03.41,0,.12.01.23,0,.34-.03l8.51-2.48c.29-.09.55-.32.66-.61l11.47-29.56s.05-.09.05-.15c.04-.08.06-.17.05-.25.01,0,0-.02,0-.03,0-.08-.02-.17-.03-.24Zm-35.9-15.45l32.12,15.44c-2.42.7-5.01,1.45-5.86,1.66l-32.16-15.46,5.9-1.65Zm14.15,46.29l-.06.15-33-15.87,10.76-27.78.47.22,32.55,15.65-10.71,27.63Zm8.49-1.8l-6.37,1.86,10.61-27.33c.82-.2,2.54-.69,6.36-1.8l-10.59,27.27Z"/><polygon class="cls-2" points="102.37 439.26 91.66 466.89 91.6 467.04 58.59 451.17 69.36 423.39 69.82 423.61 102.37 439.26"/><path class="cls-1" d="m113.4,436.04c-.02-.07-.04-.14-.08-.22.03.05.05.1.07.16,0,.02,0,.04,0,.06Z"/><path class="cls-1" d="m422.65,584.09l-9.03,23.23-89.62-39.99-.02.04,89.7,40.1,9.07-23.34-.1-.04Z"/><path class="cls-1" d="m328.75,534.66l-.97-.44-12.24,31.54,98.23,43.83.96.44,12.24-31.54-98.22-43.83Zm94,49.47l-9.07,23.34-89.7-40.1.02-.04,8.83-22.79,89.82,39.55.1.04Zm1.66-4.58l-1.11,2.86-90.38-39.79c-1-2.21-1.73-3.78-2.27-4.91l93.76,41.84Zm-95.91-41.61c.71,1.45,1.75,3.68,2.71,5.81l-8.86,22.84-4.24-1.89,10.39-26.76Z"/><polygon class="cls-5" points="422.75 584.13 413.68 607.47 323.98 567.37 324 567.33 332.83 544.54 422.65 584.09 422.75 584.13"/><path class="cls-1" d="m372.26,341.91c-.28-.06-.52-.23-.68-.49-5.08-9.05-13.55-17.08-24.5-23.24-10.69-6.03-31.82-4.93-32.03-4.91-.56.02-1.03-.39-1.07-.95-.03-.56.4-1.03.95-1.06.89-.05,21.91-1.15,33.13,5.17,11.26,6.34,20,14.64,25.27,24.01.27.48.09,1.1-.39,1.37-.22.12-.47.16-.7.11Z"/><path class="cls-4" d="m251,253.89c-.1.39-.2.77-.3,1.15.09-.38.2-.77.3-1.15Z"/><polygon class="cls-1" points="251.68 255.28 249.72 254.8 250.02 253.62 251.97 254.13 251.68 255.28"/><path class="cls-1" d="m273.74,277.63l2.37.02s-.58-4.8,1.51-12.95c2.09-8.15,10.47-14.74,10.47-14.74l18.85-2.7s-13.28-9.08-11.31-16.24c1.39-5.06,11.74-16.01,18.65-21.95-1.27-.97-2.6-1.85-4.06-2.54-17.35-8.19-41.7,6.95-54.38,33.81-1.22,2.58-2.17,5.17-3.09,7.76.98-2.88,2.11-5.76,3.46-8.63,12.68-26.86,37.03-42,54.38-33.81,17.35,8.19,21.13,36.61,8.45,63.48-5.61,11.88-13.5,21.45-22.06,27.74-5.5-7.85-13.06-14.49-22.44-18.92-.27-.13-.54-.21-.8-.33Z"/><path class="cls-1" d="m296.76,298.31l-.6-.85c-5.6-7.99-13.22-14.42-22.05-18.59-.12-.06-.24-.1-.37-.15l-.41-.17-4.43-1.96,6.14.05c-.05-1.91.06-6.14,1.61-12.18,2.15-8.38,10.47-15,10.82-15.28l.21-.17.27-.04,16.43-2.35c-3.77-2.96-11.37-9.84-9.72-15.85,1.45-5.23,11.25-15.63,18.01-21.61-1.01-.71-1.94-1.26-2.88-1.7-8.11-3.82-18.01-2.49-27.98,3.7-10.11,6.29-19.01,16.8-25.07,29.63-1.25,2.64-2.23,5.34-3.05,7.66l-1.9-.66c1.08-3.16,2.23-6.02,3.51-8.73,6.21-13.17,15.38-23.99,25.81-30.48,10.57-6.57,21.2-7.93,29.91-3.81,17.83,8.42,21.83,37.49,8.93,64.82-5.44,11.53-13.38,21.52-22.37,28.12l-.83.61Zm-19.57-20.16c7.9,4.15,14.77,10.08,20.02,17.31,8.38-6.41,15.78-15.87,20.92-26.75,11.11-23.54,9.43-48.31-3.09-58.97l-.12.1c-6.65,5.73-17.01,16.66-18.33,21.46-1.46,5.3,7.38,12.72,10.91,15.14l2.14,1.46-21.13,3.03c-1.27,1.05-8.12,7-9.91,14.03-2.01,7.83-1.5,12.53-1.49,12.58l.08.62Z"/><path class="cls-1" d="m248.53,272.48c-.07-5.54.65-11.4,2.17-17.44-1.46,6.04-2.08,11.93-1.94,17.44-.08,0-.15,0-.23,0Z"/><path class="cls-1" d="m247.77,273.5l-.24-1.01c-.07-5.69.67-11.65,2.2-17.7l1.96.48c-1.41,5.86-2.05,11.64-1.91,17.18l.02,1.02-2.02.03Z"/><path class="cls-1" d="m252.75,248.1c-.66,1.93-1.25,3.86-1.75,5.78.52-1.93,1.06-3.84,1.75-5.78Z"/><path class="cls-1" d="m251.97,254.15l-1.95-.51c.25-.97.53-1.96.85-2.99.28-.95.59-1.91.93-2.87l1.9.66c-.33.96-.63,1.89-.9,2.78-.3,1-.57,1.99-.83,2.94Z"/><path class="cls-6" d="m310.22,206.54c1.46.69,2.79,1.57,4.06,2.54-6.91,5.94-17.25,16.89-18.65,21.95-1.97,7.15,11.31,16.24,11.31,16.24l-18.85,2.7s-8.38,6.59-10.47,14.74c-2.09,8.15-1.51,12.95-1.51,12.95l-2.37-.02c-8.13-3.69-16.66-5.34-24.98-5.15-.14-5.51.48-11.4,1.94-17.44.1-.39.19-.77.3-1.15.49-1.92,1.09-3.85,1.75-5.78.91-2.59,1.87-5.18,3.09-7.76,12.68-26.87,37.03-42,54.38-33.81Z"/><path class="cls-1" d="m247.78,273.51l-.03-1.01c-.14-5.71.52-11.67,1.97-17.7l.3-1.18c.47-1.82,1.05-3.73,1.77-5.85.84-2.38,1.85-5.13,3.13-7.86,6.21-13.17,15.38-23.99,25.81-30.48,10.57-6.57,21.16-7.94,29.91-3.81h0c1.37.65,2.71,1.48,4.24,2.65l.99.75-.95.81c-6.65,5.73-17.01,16.66-18.33,21.46-1.46,5.3,7.38,12.72,10.91,15.14l2.14,1.46-21.13,3.03c-1.27,1.05-8.12,7-9.91,14.03-2.01,7.83-1.5,12.53-1.49,12.58l.13,1.13-3.73-.03-.19-.09c-7.82-3.54-16.07-5.25-24.54-5.06l-1,.03Zm14.01-.85c4.15.86,8.21,2.18,12.17,3.96h1.08c-.05-1.9.06-6.13,1.61-12.17,2.15-8.38,10.47-15,10.82-15.28l.21-.17.27-.04,16.43-2.35c-3.77-2.96-11.37-9.84-9.72-15.85,1.45-5.23,11.25-15.63,18.01-21.61-1.01-.71-1.94-1.26-2.88-1.7h0c-8.11-3.82-18.01-2.49-27.98,3.7-10.11,6.29-19.01,16.8-25.07,29.63-1.25,2.64-2.23,5.34-3.05,7.66-.7,2.05-1.26,3.92-1.72,5.7l-.29,1.15c-1.33,5.5-1.97,10.94-1.93,16.18,4.07-.02,8.09.38,12.04,1.2Z"/><path class="cls-1" d="m298.92,303.83c-.28-.06-.52-.23-.68-.49-5.08-9.04-13.55-17.08-24.5-23.24-10.69-6.03-31.82-4.93-32.03-4.91-.56.02-1.03-.39-1.07-.95-.03-.56.4-1.03.95-1.06.89-.05,21.9-1.15,33.13,5.17,11.26,6.34,20.01,14.64,25.27,24.01.27.48.09,1.1-.39,1.37-.22.12-.47.16-.7.11Z"/><path class="cls-4" d="m323.37,293.07c-.1.39-.2.77-.3,1.15.09-.38.2-.77.3-1.15Z"/><path class="cls-1" d="m324.05,294.46l-1.96-.47c.06-.24.12-.49.18-.73l.12-.47,1.95.53-.29,1.14Z"/><path class="cls-1" d="m346.11,316.81l2.37.02s-.58-4.8,1.51-12.95c2.09-8.15,10.47-14.74,10.47-14.74l18.85-2.7s-13.28-9.08-11.31-16.24c1.39-5.06,11.74-16.01,18.65-21.95-1.27-.97-2.6-1.85-4.06-2.54-17.35-8.19-41.7,6.95-54.38,33.81-1.22,2.58-2.17,5.17-3.09,7.76.98-2.88,2.11-5.76,3.46-8.63,12.68-26.86,37.03-42,54.38-33.81,17.35,8.19,21.13,36.61,8.45,63.48-5.61,11.88-13.5,21.45-22.06,27.74-5.5-7.85-13.06-14.49-22.44-18.92-.27-.13-.54-.21-.8-.33Z"/><path class="cls-1" d="m369.12,337.48l-.6-.85c-5.59-7.99-13.21-14.41-22.04-18.58-.12-.06-.24-.11-.36-.15-.14-.06-.29-.11-.44-.18l-4.26-1.96,5.99.05c-.05-1.91.06-6.14,1.61-12.18,2.15-8.38,10.47-15,10.82-15.28l.21-.17.27-.04,16.43-2.35c-3.76-2.97-11.37-9.84-9.72-15.85,1.45-5.24,11.25-15.63,18.01-21.61-1.01-.7-1.94-1.26-2.88-1.7-8.1-3.82-18.01-2.49-27.98,3.7-10.11,6.28-19.01,16.8-25.06,29.62-1.25,2.65-2.23,5.35-3.05,7.67l-1.9-.66c1.08-3.16,2.23-6.01,3.51-8.73,12.9-27.33,37.96-42.71,55.72-34.29,17.83,8.42,21.84,37.49,8.93,64.82-5.44,11.53-13.39,21.52-22.37,28.12l-.83.61Zm-19.56-20.15c7.89,4.15,14.76,10.08,20.02,17.3,8.38-6.41,15.79-15.87,20.93-26.75,11.11-23.53,9.43-48.31-3.09-58.97l-.12.1c-6.65,5.72-17,16.65-18.33,21.45-1.46,5.3,7.38,12.73,10.91,15.14l2.14,1.46-21.13,3.03c-1.27,1.05-8.12,7-9.91,14.03-2.01,7.83-1.5,12.53-1.49,12.58l.08.63Z"/><path class="cls-1" d="m320.9,311.66c-.07-5.54.65-11.4,2.17-17.44-1.46,6.04-2.08,11.93-1.94,17.44-.08,0-.15,0-.23,0Z"/><path class="cls-1" d="m320.13,312.74l-.24-1.06c-.07-5.69.67-11.65,2.2-17.7l1.96.48h0c-1.41,5.84-2.06,11.61-1.91,17.18l.02.97-2.03.13Z"/><path class="cls-1" d="m325.11,287.28c-.66,1.93-1.25,3.86-1.75,5.78.52-1.93,1.06-3.84,1.75-5.78Z"/><path class="cls-1" d="m324.34,293.33l-1.95-.51c.25-.98.53-1.98.85-3.01.28-.94.59-1.9.92-2.86l1.9.66c-.33.96-.62,1.88-.9,2.77-.3,1-.57,1.99-.83,2.95Z"/><path class="cls-6" d="m382.58,245.71c1.46.69,2.79,1.57,4.06,2.54-6.91,5.94-17.25,16.89-18.65,21.95-1.97,7.15,11.31,16.24,11.31,16.24l-18.85,2.7s-8.38,6.59-10.47,14.74c-2.09,8.15-1.51,12.95-1.51,12.95l-2.37-.02c-8.13-3.69-16.66-5.34-24.98-5.15-.14-5.51.48-11.4,1.94-17.44.1-.39.19-.77.3-1.15.49-1.92,1.09-3.85,1.75-5.78.91-2.59,1.87-5.18,3.09-7.76,12.68-26.87,37.03-42,54.38-33.81Z"/><path class="cls-1" d="m320.15,312.69l-.03-1.01c-.14-5.74.52-11.7,1.97-17.7l.3-1.18c.47-1.82,1.05-3.74,1.77-5.85.84-2.38,1.85-5.13,3.14-7.86,6.21-13.17,15.38-23.99,25.81-30.48,10.57-6.57,21.2-7.93,29.91-3.81h0c1.37.65,2.71,1.49,4.24,2.65l.99.75-.95.81c-6.65,5.72-17,16.65-18.33,21.46-1.46,5.29,7.38,12.72,10.91,15.14l2.14,1.46-21.13,3.03c-1.27,1.05-8.12,7-9.91,14.03-2.01,7.83-1.5,12.53-1.49,12.58l.13,1.13-3.73-.03-.19-.09c-7.82-3.55-16.08-5.24-24.54-5.06l-1,.03Zm14-.85c4.15.86,8.21,2.18,12.18,3.96h1.08c-.05-1.9.06-6.13,1.61-12.17,2.15-8.38,10.47-15,10.82-15.28l.21-.17.27-.04,16.43-2.35c-3.76-2.97-11.37-9.84-9.72-15.85,1.45-5.24,11.25-15.63,18.01-21.61-1.01-.7-1.94-1.26-2.88-1.7h0c-8.1-3.82-18.01-2.49-27.98,3.7-10.11,6.28-19.01,16.8-25.06,29.62-1.25,2.65-2.23,5.35-3.05,7.67-.7,2.04-1.26,3.91-1.72,5.7l-.29,1.15c-1.33,5.48-1.98,10.92-1.93,16.17,4.06-.02,8.09.38,12.03,1.2Z"/><path class="cls-1" d="m293.21,344.55c-12.31-2.56-20.76-10.3-19.23-17.63s12.35-11.06,24.66-8.51,20.75,10.3,19.23,17.62c-1.52,7.33-12.35,11.07-24.65,8.51Zm4.61-22.19c-9.76-2.03-18.87.44-19.9,5.38s6.35,10.84,16.11,12.86c9.76,2.03,18.86-.44,19.89-5.39s-6.34-10.83-16.1-12.86Z"/><path class="cls-6" d="m583.39,114.05l-15.05,6.1c-3.4,1.38-5.97,4.34-6.87,7.89l-4.05,16.03-.49,1.96-.5,1.96-2.1,8.34-2.18-9.06-.51-2.14h-.01l-.51-2.12-3.68-15.31c-.98-4.04-3.89-7.28-7.79-8.67l-14.77-5.28,14.86-7.57c3.58-1.83,6.24-5.09,7.31-8.95l6.94-25.13,5.02,26.53c.75,3.96,3.44,7.21,7.2,8.68l17.18,6.74Z"/><path class="cls-1" d="m588.49,112.47l-21.07-8.26c-2.68-1.05-4.6-3.37-5.14-6.2l-6.36-33.56c-.14-.76-.79-1.32-1.56-1.35-.75-.09-1.47.47-1.68,1.22l-8.84,32.02c-.82,2.96-2.87,5.47-5.62,6.87l-18.28,9.33c-.59.3-.94.93-.9,1.59.03.66.47,1.23,1.1,1.46l18.39,6.57c2.84,1.02,4.97,3.38,5.67,6.32l3.35,13.92.51,2.13.52,2.13,4.09,17.01c.18.75.85,1.27,1.61,1.28h.01c.76,0,1.42-.52,1.61-1.26l3.82-15.14.5-1.97.49-1.95,3.99-15.78c.64-2.53,2.47-4.63,4.89-5.62l18.92-7.67c.64-.25,1.05-.87,1.04-1.55,0-.68-.42-1.29-1.06-1.54Zm-31.07,31.6l-.49,1.96-.5,1.96-2.1,8.34-2.18-9.06-.51-2.14h-.01l-.51-2.12-3.68-15.31c-.98-4.04-3.89-7.28-7.79-8.67l-14.77-5.28,14.86-7.57c3.58-1.83,6.24-5.09,7.31-8.95l6.94-25.13,5.02,26.53c.75,3.96,3.44,7.21,7.2,8.68l17.18,6.74-15.05,6.1c-3.4,1.38-5.97,4.34-6.87,7.89l-4.05,16.03Z"/><path class="cls-8" d="m620.93,94.22l-5.61,2.28c-1.92.78-3.36,2.44-3.87,4.44l-2.75,10.88-2.66-11.05c-.53-2.25-2.16-4.06-4.35-4.84l-5.57-2,5.71-2.92c1.97-1,3.44-2.8,4.01-4.91l2.53-9.15,1.85,9.79c.44,2.22,1.95,4.04,4.05,4.87l6.66,2.61Z"/><path class="cls-1" d="m625.87,92.7l-10.42-4.09c-1.07-.42-1.84-1.35-2.06-2.48l-3.14-16.59c-.14-.74-.77-1.28-1.52-1.31-.02,0-.04-.01-.06-.01-.73,0-1.37.49-1.56,1.19l-4.38,15.83c-.34,1.25-1.2,2.31-2.36,2.91l-9.04,4.61c-.58.29-.92.9-.88,1.54.04.64.46,1.2,1.07,1.41l9.09,3.25c1.15.42,2.02,1.37,2.3,2.57l4.19,17.4c.17.72.82,1.23,1.56,1.24h.01c.74,0,1.38-.51,1.56-1.22l4.35-17.23c.26-1.01.98-1.84,1.95-2.24l9.36-3.79c.61-.25,1-.85,1-1.5s-.41-1.25-1.02-1.49Zm-17.17,19.12l-2.66-11.05c-.53-2.25-2.16-4.06-4.35-4.84l-5.57-2,5.71-2.92c1.97-1,3.44-2.8,4.01-4.91l2.53-9.15,1.85,9.79c.44,2.22,1.95,4.04,4.05,4.87l6.66,2.61-5.61,2.28c-1.92.78-3.36,2.44-3.87,4.44l-2.75,10.88Z"/><path class="cls-6" d="m70.4,258.89l-9.18,3.43-2.33.88-2.31.87-1.38.51c-3.44,1.29-6.09,4.17-7.08,7.7l-7.92,28.08-6.1-28.81c-.86-4.06-3.68-7.37-7.55-8.88l-14.62-5.68,15.06-7.17c3.61-1.71,6.37-4.9,7.55-8.74l7.62-24.92,4.29,26.65c.66,3.98,3.25,7.3,6.96,8.88l5.86,2.48,1.87.8,1.88.79,7.39,3.13Z"/><path class="cls-1" d="m75.54,257.45l-11.65-4.94-1.88-.79-1.87-.79-5.44-2.31c-2.65-1.12-4.51-3.5-4.97-6.35l-5.43-33.71c-.12-.76-.75-1.34-1.52-1.39-.8-.13-1.48.44-1.71,1.17l-9.72,31.76c-.91,2.95-3.03,5.39-5.81,6.71l-18.53,8.82c-.6.28-.97.9-.94,1.56.02.66.44,1.24,1.06,1.49l18.2,7.07c2.81,1.1,4.87,3.52,5.49,6.47l7.5,35.41c.16.75.81,1.29,1.57,1.32h.01c.76.02,1.43-.48,1.64-1.21l9.76-34.58c.62-2.2,2.14-4.04,4.16-5.1.28-.14.58-.27.88-.39l1.47-.55,2.32-.87,15.33-5.73c.65-.23,1.07-.84,1.08-1.52.02-.68-.38-1.3-1.02-1.57Zm-14.32,4.87l-2.33.88-2.31.87-1.38.51c-3.44,1.29-6.09,4.17-7.08,7.7l-7.92,28.08-6.1-28.81c-.86-4.06-3.68-7.37-7.55-8.88l-14.62-5.68,15.06-7.17c3.61-1.71,6.37-4.9,7.55-8.74l7.62-24.92,4.29,26.65c.66,3.98,3.25,7.3,6.96,8.88l5.86,2.48,1.87.8,1.88.79,7.39,3.13-9.18,3.43Z"/></g></svg>