<?xml version="1.0" encoding="UTF-8"?><svg id="Capa_2" xmlns="http://www.w3.org/2000/svg" viewBox="0 0 553.95 229.11"><defs><style>.cls-1{opacity:.54;}.cls-1,.cls-2,.cls-3{stroke-width:0px;}.cls-1,.cls-3{fill:#fff;}</style></defs><g id="Capa_1-2"><path class="cls-1" d="m528.16,131.02l-1.83,2.45c1.14.85,27.59,21.11,14.55,50.13-.06.14-.13.28-.19.42.65-1.27,1.22-2.47,1.72-3.57,12.54-27.9-11.92-47.63-14.25-49.43Zm-9.75,87.56c-9.89,5.36-21.06,8.08-33.18,8.08-9.28,0-19.27-1.6-29.71-4.74-39.68-11.95-63.36-26.58-80.65-37.27l-.25-.15c-1.02-.64-2.02-1.25-3-1.86-17.18,10.57-43.31,15.24-59.67,10.65-7.46-2.1-12.83-6.08-15.52-11.52-1.38-2.77-1.69-5.53-.97-8.08-2.26,3.19-2.46,6.99-.57,10.81,2.63,5.31,7.89,9.2,15.21,11.26,16.38,4.59,42.43-.12,59.53-10.75,1.14.7,2.31,1.42,3.51,2.16,17.27,10.67,40.92,25.29,80.54,37.22,10.44,3.14,20.3,4.72,29.56,4.72,12.06,0,23.08-2.68,32.95-8.02,7.94-4.29,14.2-9.82,19.12-15.57-4.55,4.84-10.11,9.39-16.9,13.06Zm-139.96-41.12l.05.03c.12-.13.23-.27.33-.41-.12.13-.25.26-.38.38Zm.33-21.29c-1.21-7.4-7.55-13.53-16.15-15.63-10.08-2.45-43.51-.71-75.84.98-34.96,1.83-71.12,3.71-86.99,1.07-12.94-2.16-21.89-10.35-24.55-22.48-1.8-8.23-.57-17.28,2.98-25.29-4.65,8.62-6.5,18.9-4.48,28.13,2.61,11.92,11.41,19.97,24.14,22.09,15.82,2.64,51.95.75,86.89-1.07,32.36-1.69,65.83-3.44,75.97-.97,8.8,2.15,15.29,8.44,16.53,16.03.46,2.81.17,5.59-.83,8.25,2.14-3.48,2.96-7.28,2.33-11.11Zm-28.82,15.34c-6.08-1.91-13.29-2.92-20.85-2.92-11.79,0-22.19,2.52-25.28,6.13-.29.34-.56.7-.68,1.18,4.43-2.98,13.77-4.86,23.97-4.86,7.04,0,14.48.89,21,2.94,3.92,1.23,7.93,3.14,12.27,5.56,1.14-.51,2.25-1.05,3.34-1.62-5.6-3.2-9.87-5.19-13.77-6.41Zm-89.91-68.75c-12.46,6.05-24.17-2.62-34.5-10.26-12.26-9.08-20.31-14.18-28.81-8.4-2.34,1.59-4.46,3.59-6.3,5.88,1.26-1.25,2.6-2.37,4.03-3.34,8.77-5.97,16.95-.81,29.39,8.4,10.21,7.57,21.8,16.14,33.98,10.22,3.72-1.8,6.94-4.42,9.48-7.64-2.12,2.09-4.57,3.82-7.27,5.14Zm-2.24-53.86c-16.15-22.02-46.26-11.16-73.22.75-6.71,2.97-18.54,11.09-32.23,20.48-36.35,24.95-86.13,59.11-124.21,59.11-11.31,0-20.15-5.65-24.25-15.5C.03,104.44.93,93.19,5.94,82.08c-6.28,11.98-7.76,24.36-3.57,34.41,4.03,9.66,12.7,15.19,23.79,15.19,37.92,0,87.63-34.11,123.92-59.01,13.72-9.41,25.57-17.54,32.32-20.53,27.13-11.99,57.45-22.91,73.82-.59,8.66,11.8,12.1,23.63,9.71,33.31-.24.97-.54,1.92-.91,2.83,1.07-1.8,1.89-3.78,2.41-5.9,2.36-9.53-1.06-21.21-9.62-32.89Zm-201.55-7.63c-9.38,7.33-20.01,15.64-30.24,25.95-1.13,1.14-2.24,2.34-3.31,3.59.33-.33.65-.66.97-.99,10.25-10.34,20.89-18.66,30.29-26,8.66-6.77,15.82-12.36,20.2-17.67-4.42,4.58-10.64,9.44-17.91,15.12Zm15.72-31.92c-3.64-4.43-15.52,3.39-18.26,5.56l-.39.31-3.92-4.94c-1.39.95-2.25,1.64-2.34,1.7l4.35,5.48c3-2.37,15.02-10.26,18.96-5.48,1.48,1.79,1.53,3.12,1.44,3.96-.03.27-.08.55-.16.83.94-1.39,1.52-2.67,1.65-3.83.08-.75.03-1.94-1.33-3.59Z"/><path class="cls-2" d="m532.8,124.51l-.4-.3-4.78,6.41.4.3s.08.06.14.1c2.33,1.8,26.79,21.53,14.25,49.43-.5,1.1-1.07,2.3-1.72,3.57-8.65,16.76-31.59,45.68-82.86,30.24-38.67-11.65-61.84-25.96-78.76-36.42l-.57-.35-.05-.03c.13-.12.26-.25.38-.38,8.9-8.77,8.47-18.39,7.84-22.21-1.72-10.56-10.42-19.24-22.15-22.1-11.21-2.74-43.71-1.04-78.14.76-34.53,1.81-70.24,3.67-85.27,1.17-12.42-2.07-16.67-10.01-18.05-16.31-2.07-9.44,1.06-20.59,7.38-28.41,1.84-2.29,3.96-4.29,6.3-5.88,8.5-5.78,16.55-.68,28.81,8.4,10.33,7.64,22.04,16.31,34.5,10.26,2.7-1.32,5.15-3.05,7.27-5.14,3.79-3.7,6.53-8.49,7.88-13.9,2.94-11.88-.95-25.93-10.94-39.55-21.3-29.06-61.37-11.35-82.9-1.83-7.4,3.26-18.93,11.18-33.53,21.2-33.48,22.97-84.08,57.7-119.68,57.7-8.03,0-14.02-3.76-16.86-10.58-5.22-12.51,1.56-28.28,11.35-39.77.03-.02.05-.05.07-.08,1.07-1.25,2.18-2.45,3.31-3.59,10.23-10.31,20.86-18.62,30.24-25.95,7.27-5.68,13.49-10.54,17.91-15.12,4.08-4.21,6.64-8.18,7.09-12.34.37-3.39-.67-6.6-3.1-9.55-2.87-3.48-8.54-6.62-19.26-1.78-5.34,2.41-9.67,5.78-10.15,6.16l-.39.31,1.05,1.33,3.92,4.94.39-.31c2.74-2.17,14.62-9.99,18.26-5.56,1.36,1.65,1.41,2.84,1.33,3.59-.13,1.16-.71,2.44-1.65,3.83h-.01c-3.35,4.94-11.36,11.2-20.32,18.2-9.56,7.48-20.41,15.95-30.99,26.62-6.35,6.4-11.21,13.42-14.4,20.49C.93,93.19.03,104.44,3.9,113.74c4.1,9.85,12.94,15.5,24.25,15.5,38.08,0,87.86-34.16,124.21-59.11,13.69-9.39,25.52-17.51,32.23-20.48,26.96-11.91,57.07-22.77,73.22-.75,8.56,11.68,11.98,23.36,9.62,32.89-.52,2.12-1.34,4.1-2.41,5.9-2.01,3.42-4.93,6.16-8.46,7.88-8.11,3.93-16.92-2.59-26.25-9.51-11.38-8.42-24.27-17.96-38.07-8.57-6.09,4.14-10.93,10.33-14.01,17.33-3.55,8.01-4.78,17.06-2.98,25.29,2.66,12.13,11.61,20.32,24.55,22.48,15.87,2.64,52.03.76,86.99-1.07,32.33-1.69,65.76-3.43,75.84-.98,8.6,2.1,14.94,8.23,16.15,15.63.63,3.83-.19,7.63-2.33,11.11-1.26,2.06-2.99,4.02-5.15,5.81-6-3.59-12.44-7.17-18.94-9.22-17.67-5.54-46.34-4.02-54.61,5.65-1.1,1.29-1.87,2.69-2.29,4.16h0c-.72,2.56-.41,5.32.97,8.09,2.69,5.44,8.06,9.42,15.52,11.52,16.36,4.59,42.49-.08,59.67-10.65.98.61,1.98,1.22,3,1.86l.25.15c17.29,10.69,40.97,25.32,80.65,37.27,10.44,3.14,20.43,4.74,29.71,4.74,12.12,0,23.29-2.72,33.18-8.08,6.79-3.67,12.35-8.22,16.9-13.06.01-.01.02-.02.02-.03,6.9-7.31,11.46-15.26,14.38-21.76,15.54-34.57-16.58-58.98-16.91-59.22Zm15.99,58.81c-.55,1.23-1.17,2.51-1.84,3.83-5.18,10.13-14.13,22.5-29.01,30.56-9.75,5.27-20.75,7.95-32.71,7.95-9.18,0-19.08-1.58-29.42-4.69-39.56-11.92-63.17-26.51-80.42-37.17l-.24-.15c-1.12-.69-2.21-1.36-3.27-2.02l-.26-.16-.27.16c-16.96,10.55-42.93,15.24-59.13,10.7-7.18-2.02-12.33-5.82-14.9-11-1.75-3.54-1.61-7.05.36-10.04.24-.38.52-.76.83-1.12,8.04-9.4,36.17-10.8,53.55-5.34,6.51,2.04,13,5.68,19.03,9.3l.3.18.27-.22c.67-.54,1.3-1.09,1.89-1.67.02-.01.03-.03.04-.04,4.95-4.78,7.13-10.52,6.18-16.38-1.28-7.79-7.91-14.24-16.91-16.43-10.22-2.49-43.72-.74-76.12.95-34.91,1.82-71.01,3.71-86.78,1.08-12.52-2.08-21.17-10-23.74-21.71-2.56-11.71,1.19-25.14,9.01-34.6,2.21-2.69,4.76-5.06,7.58-6.98,13.21-8.98,25.8.34,36.91,8.56,9.58,7.1,18.62,13.79,27.27,9.6,1.87-.91,3.58-2.1,5.08-3.51,3.05-2.85,5.27-6.63,6.33-10.93,2.43-9.82-1.04-21.8-9.79-33.73-16.58-22.61-47.11-11.63-74.42.44-6.8,3-18.66,11.14-32.4,20.57-36.24,24.87-85.87,58.93-123.64,58.93-10.88,0-19.39-5.43-23.33-14.89-5.68-13.63-.77-31.65,12.51-47.03,1.17-1.37,2.41-2.71,3.72-4.03,10.54-10.62,21.36-19.07,30.9-26.54,6.71-5.24,12.89-10.07,17.04-14.31,3.08-3.14,5.05-5.95,5.31-8.39.1-.93.05-2.4-1.54-4.34-4.39-5.32-16.86,3.36-19.26,5.11l-3.26-4.1-.47-.6c1.22-.92,5.07-3.71,9.54-5.73,10.14-4.58,15.43-1.71,18.08,1.51,2.25,2.73,3.22,5.69,2.88,8.8-.22,2.01-.98,4-2.21,6.01-3.78,6.22-12.01,12.64-22.41,20.77-9.41,7.35-20.06,15.68-30.34,26.04-5.21,5.25-9.91,11.79-13.01,18.68-3.89,8.65-5.26,17.87-1.94,25.84,3.01,7.22,9.32,11.2,17.79,11.2,35.91,0,86.66-34.83,120.25-57.88,14.55-9.99,26.05-17.88,33.36-21.11,21.27-9.4,60.87-26.9,81.69,1.51,9.82,13.38,13.64,27.13,10.77,38.72-.64,2.59-1.62,5.03-2.89,7.28-2.71,4.81-6.76,8.7-11.72,11.1-11.91,5.79-23.36-2.69-33.47-10.17-12.61-9.34-20.91-14.57-29.96-8.42-5.03,3.43-9.07,8.7-11.64,14.63,0,0-.01,0-.01.02-2.87,6.62-3.9,14.06-2.45,20.69,1.45,6.59,5.9,14.91,18.87,17.07,15.13,2.52,50.89.65,85.51-1.15,34.33-1.79,66.76-3.49,77.82-.79,11.34,2.77,19.74,11.13,21.41,21.3.45,2.79.8,8.84-2.88,15.3-1.29,2.27-3.07,4.58-5.51,6.83l-.49.45,1.03.64.71.44c16.96,10.48,40.19,24.83,78.99,36.52,36.68,11.05,59.07-.33,72.16-13.97,0-.01.02-.02.03-.03,6.84-7.14,11.13-14.89,13.59-20.36,12.5-27.81-10.8-47.66-14.3-50.43l1.76-2.37,1.82-2.44c3.62,2.9,30.48,25.93,16.19,57.7Z"/><path class="cls-3" d="m532.6,125.62l-1.82,2.44-1.76,2.37c3.5,2.77,26.8,22.62,14.3,50.43-2.46,5.47-6.75,13.22-13.59,20.36-.01.01-.02.02-.03.03-13.09,13.64-35.48,25.02-72.16,13.97-38.8-11.69-62.03-26.04-78.99-36.52l-.71-.44-1.03-.64.49-.45c2.44-2.25,4.22-4.56,5.51-6.83,3.68-6.46,3.33-12.51,2.88-15.3-1.67-10.17-10.07-18.53-21.41-21.3-11.06-2.7-43.49-1-77.82.79-34.62,1.8-70.38,3.67-85.51,1.15-12.97-2.16-17.42-10.48-18.87-17.07-1.45-6.63-.42-14.07,2.45-20.69,0-.01.01-.01.01-.02,2.57-5.93,6.61-11.2,11.64-14.63,9.05-6.15,17.35-.92,29.96,8.42,10.11,7.48,21.56,15.96,33.47,10.17,4.96-2.4,9.01-6.29,11.72-11.1,1.27-2.25,2.25-4.69,2.89-7.28,2.87-11.59-.95-25.34-10.77-38.72-20.82-28.41-60.42-10.91-81.69-1.51-7.31,3.23-18.81,11.12-33.36,21.11-33.59,23.05-84.34,57.88-120.25,57.88-8.47,0-14.78-3.98-17.79-11.2-3.32-7.97-1.95-17.19,1.94-25.84,3.1-6.89,7.8-13.43,13.01-18.68,10.28-10.36,20.93-18.69,30.34-26.04,10.4-8.13,18.63-14.55,22.41-20.77,1.23-2.01,1.99-4,2.21-6.01.34-3.11-.63-6.07-2.88-8.8-2.65-3.22-7.94-6.09-18.08-1.51-4.47,2.02-8.32,4.81-9.54,5.73l.47.6,3.26,4.1c2.4-1.75,14.87-10.43,19.26-5.11,1.59,1.94,1.64,3.41,1.54,4.34-.26,2.44-2.23,5.25-5.31,8.39-4.15,4.24-10.33,9.07-17.04,14.31-9.54,7.47-20.36,15.92-30.9,26.54-1.31,1.32-2.55,2.66-3.72,4.03C4.05,81.7-.86,99.72,4.82,113.35c3.94,9.46,12.45,14.89,23.33,14.89,37.77,0,87.4-34.06,123.64-58.93,13.74-9.43,25.6-17.57,32.4-20.57,27.31-12.07,57.84-23.05,74.42-.44,8.75,11.93,12.22,23.91,9.79,33.73-1.06,4.3-3.28,8.08-6.33,10.93-1.5,1.41-3.21,2.6-5.08,3.51-8.65,4.19-17.69-2.5-27.27-9.6-11.11-8.22-23.7-17.54-36.91-8.56-2.82,1.92-5.37,4.29-7.58,6.98-7.82,9.46-11.57,22.89-9.01,34.6,2.57,11.71,11.22,19.63,23.74,21.71,15.77,2.63,51.87.74,86.78-1.08,32.4-1.69,65.9-3.44,76.12-.95,9,2.19,15.63,8.64,16.91,16.43.95,5.86-1.23,11.6-6.18,16.38,0,.01-.02.03-.04.04-.59.58-1.22,1.13-1.89,1.67l-.27.22-.3-.18c-6.03-3.62-12.52-7.26-19.03-9.3-17.38-5.46-45.51-4.06-53.55,5.34-.31.36-.59.74-.83,1.12-1.97,2.99-2.11,6.5-.36,10.04,2.57,5.18,7.72,8.98,14.9,11,16.2,4.54,42.17-.15,59.13-10.7l.27-.16.26.16c1.06.66,2.15,1.33,3.27,2.02l.24.15c17.25,10.66,40.86,25.25,80.42,37.17,10.34,3.11,20.24,4.69,29.42,4.69,11.96,0,22.96-2.68,32.71-7.95,14.88-8.06,23.83-20.43,29.01-30.56.67-1.32,1.29-2.6,1.84-3.83,14.29-31.77-12.57-54.8-16.19-57.7Zm-167.6,52.76c-1.15.62-2.33,1.21-3.54,1.76-10.83,5.07-23.9,7.93-35.05,7.93-4.62,0-8.9-.49-12.56-1.52-5.58-1.57-9.33-4.22-11.15-7.89-.38-.76-.56-1.4-.6-1.96-.09-1.17.41-1.98.97-2.63,3.32-3.87,13.78-6.48,26.04-6.48,7.66,0,14.97,1.02,21.15,2.96,4.15,1.31,8.7,3.45,14.75,6.96l.78.45-.79.42Z"/><path class="cls-2" d="m365.01,177.51c-6.05-3.51-10.6-5.65-14.75-6.96-6.18-1.94-13.49-2.96-21.15-2.96-12.26,0-22.72,2.61-26.04,6.48-.56.65-1.06,1.46-.97,2.63.04.56.22,1.2.6,1.96,1.82,3.67,5.57,6.32,11.15,7.89,3.66,1.03,7.94,1.52,12.56,1.52,11.15,0,24.22-2.86,35.05-7.93,1.21-.55,2.39-1.14,3.54-1.76l.79-.42-.78-.45Zm-4.62,2.03c-15.01,6.85-34.15,9.45-46.27,6.05-5.3-1.49-8.84-3.97-10.52-7.37-.51-1.03-.58-1.76-.45-2.32.12-.48.39-.84.68-1.18,3.09-3.61,13.49-6.13,25.28-6.13,7.56,0,14.77,1.01,20.85,2.92,3.9,1.22,8.17,3.21,13.77,6.41-1.09.57-2.2,1.11-3.34,1.62Z"/></g></svg>